G04 #@! TF.GenerationSoftware,KiCad,Pcbnew,(5.1.5)-3*
G04 #@! TF.CreationDate,2023-01-26T09:30:51+09:00*
G04 #@! TF.ProjectId,raspberrypi_zerow_uhat,72617370-6265-4727-9279-70695f7a6572,1.0*
G04 #@! TF.SameCoordinates,Original*
G04 #@! TF.FileFunction,Copper,L1,Top*
G04 #@! TF.FilePolarity,Positive*
%FSLAX46Y46*%
G04 Gerber Fmt 4.6, Leading zero omitted, Abs format (unit mm)*
G04 Created by KiCad (PCBNEW (5.1.5)-3) date 2023-01-26 09:30:51*
%MOMM*%
%LPD*%
G04 APERTURE LIST*
%ADD10R,1.900000X1.300000*%
%ADD11R,2.800000X1.000000*%
%ADD12R,0.800000X1.000000*%
%ADD13R,1.200000X1.000000*%
%ADD14R,1.200000X0.700000*%
%ADD15R,2.000000X5.500000*%
%ADD16R,0.550000X1.500000*%
%ADD17R,1.500000X0.550000*%
%ADD18R,7.000000X7.000000*%
%ADD19R,3.500000X2.000000*%
%ADD20C,0.100000*%
%ADD21O,1.700000X1.700000*%
%ADD22R,1.700000X1.700000*%
%ADD23R,1.000000X0.820000*%
%ADD24R,0.820000X1.000000*%
%ADD25C,0.800000*%
%ADD26C,0.500000*%
%ADD27C,1.200000*%
%ADD28C,0.800000*%
%ADD29C,0.254000*%
G04 APERTURE END LIST*
D10*
X118932000Y-112968000D03*
D11*
X119382000Y-99468000D03*
D12*
X123532000Y-99468000D03*
D13*
X129732000Y-99468000D03*
X134032000Y-110618000D03*
D14*
X134032000Y-100418000D03*
X134032000Y-101368000D03*
X134032000Y-102468000D03*
X134032000Y-103568000D03*
X134032000Y-104668000D03*
X134032000Y-105768000D03*
X134032000Y-106868000D03*
X134032000Y-107968000D03*
X134032000Y-109068000D03*
D15*
X159032000Y-103818000D03*
X159032000Y-113318000D03*
D16*
X152632000Y-104768000D03*
D17*
X154032000Y-111768000D03*
X154032000Y-110968000D03*
X154032000Y-110168000D03*
X154032000Y-109368000D03*
X154032000Y-108568000D03*
X154032000Y-107768000D03*
X154032000Y-106968000D03*
X154032000Y-106168000D03*
D16*
X151832000Y-104768000D03*
X151032000Y-104768000D03*
X150232000Y-104768000D03*
X149432000Y-104768000D03*
X148632000Y-104768000D03*
X147832000Y-104768000D03*
X147032000Y-104768000D03*
D17*
X145632000Y-106168000D03*
X145632000Y-106968000D03*
X145632000Y-107768000D03*
X145632000Y-108568000D03*
X145632000Y-109368000D03*
X145632000Y-110168000D03*
X145632000Y-110968000D03*
X145632000Y-111768000D03*
D16*
X147032000Y-113168000D03*
X147832000Y-113168000D03*
X148632000Y-113168000D03*
X149432000Y-113168000D03*
X150232000Y-113168000D03*
X151032000Y-113168000D03*
X151832000Y-113168000D03*
X152632000Y-113168000D03*
D18*
X177857000Y-107568000D03*
D19*
X170457000Y-109848000D03*
X170457000Y-105268000D03*
G04 #@! TA.AperFunction,SMDPad,CuDef*
D20*
G36*
X143792779Y-99169144D02*
G01*
X143815834Y-99172563D01*
X143838443Y-99178227D01*
X143860387Y-99186079D01*
X143881457Y-99196044D01*
X143901448Y-99208026D01*
X143920168Y-99221910D01*
X143937438Y-99237562D01*
X143953090Y-99254832D01*
X143966974Y-99273552D01*
X143978956Y-99293543D01*
X143988921Y-99314613D01*
X143996773Y-99336557D01*
X144002437Y-99359166D01*
X144005856Y-99382221D01*
X144007000Y-99405500D01*
X144007000Y-99905500D01*
X144005856Y-99928779D01*
X144002437Y-99951834D01*
X143996773Y-99974443D01*
X143988921Y-99996387D01*
X143978956Y-100017457D01*
X143966974Y-100037448D01*
X143953090Y-100056168D01*
X143937438Y-100073438D01*
X143920168Y-100089090D01*
X143901448Y-100102974D01*
X143881457Y-100114956D01*
X143860387Y-100124921D01*
X143838443Y-100132773D01*
X143815834Y-100138437D01*
X143792779Y-100141856D01*
X143769500Y-100143000D01*
X143294500Y-100143000D01*
X143271221Y-100141856D01*
X143248166Y-100138437D01*
X143225557Y-100132773D01*
X143203613Y-100124921D01*
X143182543Y-100114956D01*
X143162552Y-100102974D01*
X143143832Y-100089090D01*
X143126562Y-100073438D01*
X143110910Y-100056168D01*
X143097026Y-100037448D01*
X143085044Y-100017457D01*
X143075079Y-99996387D01*
X143067227Y-99974443D01*
X143061563Y-99951834D01*
X143058144Y-99928779D01*
X143057000Y-99905500D01*
X143057000Y-99405500D01*
X143058144Y-99382221D01*
X143061563Y-99359166D01*
X143067227Y-99336557D01*
X143075079Y-99314613D01*
X143085044Y-99293543D01*
X143097026Y-99273552D01*
X143110910Y-99254832D01*
X143126562Y-99237562D01*
X143143832Y-99221910D01*
X143162552Y-99208026D01*
X143182543Y-99196044D01*
X143203613Y-99186079D01*
X143225557Y-99178227D01*
X143248166Y-99172563D01*
X143271221Y-99169144D01*
X143294500Y-99168000D01*
X143769500Y-99168000D01*
X143792779Y-99169144D01*
G37*
G04 #@! TD.AperFunction*
G04 #@! TA.AperFunction,SMDPad,CuDef*
G36*
X143792779Y-100994144D02*
G01*
X143815834Y-100997563D01*
X143838443Y-101003227D01*
X143860387Y-101011079D01*
X143881457Y-101021044D01*
X143901448Y-101033026D01*
X143920168Y-101046910D01*
X143937438Y-101062562D01*
X143953090Y-101079832D01*
X143966974Y-101098552D01*
X143978956Y-101118543D01*
X143988921Y-101139613D01*
X143996773Y-101161557D01*
X144002437Y-101184166D01*
X144005856Y-101207221D01*
X144007000Y-101230500D01*
X144007000Y-101730500D01*
X144005856Y-101753779D01*
X144002437Y-101776834D01*
X143996773Y-101799443D01*
X143988921Y-101821387D01*
X143978956Y-101842457D01*
X143966974Y-101862448D01*
X143953090Y-101881168D01*
X143937438Y-101898438D01*
X143920168Y-101914090D01*
X143901448Y-101927974D01*
X143881457Y-101939956D01*
X143860387Y-101949921D01*
X143838443Y-101957773D01*
X143815834Y-101963437D01*
X143792779Y-101966856D01*
X143769500Y-101968000D01*
X143294500Y-101968000D01*
X143271221Y-101966856D01*
X143248166Y-101963437D01*
X143225557Y-101957773D01*
X143203613Y-101949921D01*
X143182543Y-101939956D01*
X143162552Y-101927974D01*
X143143832Y-101914090D01*
X143126562Y-101898438D01*
X143110910Y-101881168D01*
X143097026Y-101862448D01*
X143085044Y-101842457D01*
X143075079Y-101821387D01*
X143067227Y-101799443D01*
X143061563Y-101776834D01*
X143058144Y-101753779D01*
X143057000Y-101730500D01*
X143057000Y-101230500D01*
X143058144Y-101207221D01*
X143061563Y-101184166D01*
X143067227Y-101161557D01*
X143075079Y-101139613D01*
X143085044Y-101118543D01*
X143097026Y-101098552D01*
X143110910Y-101079832D01*
X143126562Y-101062562D01*
X143143832Y-101046910D01*
X143162552Y-101033026D01*
X143182543Y-101021044D01*
X143203613Y-101011079D01*
X143225557Y-101003227D01*
X143248166Y-100997563D01*
X143271221Y-100994144D01*
X143294500Y-100993000D01*
X143769500Y-100993000D01*
X143792779Y-100994144D01*
G37*
G04 #@! TD.AperFunction*
G04 #@! TA.AperFunction,SMDPad,CuDef*
G36*
X152792779Y-99257144D02*
G01*
X152815834Y-99260563D01*
X152838443Y-99266227D01*
X152860387Y-99274079D01*
X152881457Y-99284044D01*
X152901448Y-99296026D01*
X152920168Y-99309910D01*
X152937438Y-99325562D01*
X152953090Y-99342832D01*
X152966974Y-99361552D01*
X152978956Y-99381543D01*
X152988921Y-99402613D01*
X152996773Y-99424557D01*
X153002437Y-99447166D01*
X153005856Y-99470221D01*
X153007000Y-99493500D01*
X153007000Y-99993500D01*
X153005856Y-100016779D01*
X153002437Y-100039834D01*
X152996773Y-100062443D01*
X152988921Y-100084387D01*
X152978956Y-100105457D01*
X152966974Y-100125448D01*
X152953090Y-100144168D01*
X152937438Y-100161438D01*
X152920168Y-100177090D01*
X152901448Y-100190974D01*
X152881457Y-100202956D01*
X152860387Y-100212921D01*
X152838443Y-100220773D01*
X152815834Y-100226437D01*
X152792779Y-100229856D01*
X152769500Y-100231000D01*
X152294500Y-100231000D01*
X152271221Y-100229856D01*
X152248166Y-100226437D01*
X152225557Y-100220773D01*
X152203613Y-100212921D01*
X152182543Y-100202956D01*
X152162552Y-100190974D01*
X152143832Y-100177090D01*
X152126562Y-100161438D01*
X152110910Y-100144168D01*
X152097026Y-100125448D01*
X152085044Y-100105457D01*
X152075079Y-100084387D01*
X152067227Y-100062443D01*
X152061563Y-100039834D01*
X152058144Y-100016779D01*
X152057000Y-99993500D01*
X152057000Y-99493500D01*
X152058144Y-99470221D01*
X152061563Y-99447166D01*
X152067227Y-99424557D01*
X152075079Y-99402613D01*
X152085044Y-99381543D01*
X152097026Y-99361552D01*
X152110910Y-99342832D01*
X152126562Y-99325562D01*
X152143832Y-99309910D01*
X152162552Y-99296026D01*
X152182543Y-99284044D01*
X152203613Y-99274079D01*
X152225557Y-99266227D01*
X152248166Y-99260563D01*
X152271221Y-99257144D01*
X152294500Y-99256000D01*
X152769500Y-99256000D01*
X152792779Y-99257144D01*
G37*
G04 #@! TD.AperFunction*
G04 #@! TA.AperFunction,SMDPad,CuDef*
G36*
X152792779Y-101082144D02*
G01*
X152815834Y-101085563D01*
X152838443Y-101091227D01*
X152860387Y-101099079D01*
X152881457Y-101109044D01*
X152901448Y-101121026D01*
X152920168Y-101134910D01*
X152937438Y-101150562D01*
X152953090Y-101167832D01*
X152966974Y-101186552D01*
X152978956Y-101206543D01*
X152988921Y-101227613D01*
X152996773Y-101249557D01*
X153002437Y-101272166D01*
X153005856Y-101295221D01*
X153007000Y-101318500D01*
X153007000Y-101818500D01*
X153005856Y-101841779D01*
X153002437Y-101864834D01*
X152996773Y-101887443D01*
X152988921Y-101909387D01*
X152978956Y-101930457D01*
X152966974Y-101950448D01*
X152953090Y-101969168D01*
X152937438Y-101986438D01*
X152920168Y-102002090D01*
X152901448Y-102015974D01*
X152881457Y-102027956D01*
X152860387Y-102037921D01*
X152838443Y-102045773D01*
X152815834Y-102051437D01*
X152792779Y-102054856D01*
X152769500Y-102056000D01*
X152294500Y-102056000D01*
X152271221Y-102054856D01*
X152248166Y-102051437D01*
X152225557Y-102045773D01*
X152203613Y-102037921D01*
X152182543Y-102027956D01*
X152162552Y-102015974D01*
X152143832Y-102002090D01*
X152126562Y-101986438D01*
X152110910Y-101969168D01*
X152097026Y-101950448D01*
X152085044Y-101930457D01*
X152075079Y-101909387D01*
X152067227Y-101887443D01*
X152061563Y-101864834D01*
X152058144Y-101841779D01*
X152057000Y-101818500D01*
X152057000Y-101318500D01*
X152058144Y-101295221D01*
X152061563Y-101272166D01*
X152067227Y-101249557D01*
X152075079Y-101227613D01*
X152085044Y-101206543D01*
X152097026Y-101186552D01*
X152110910Y-101167832D01*
X152126562Y-101150562D01*
X152143832Y-101134910D01*
X152162552Y-101121026D01*
X152182543Y-101109044D01*
X152203613Y-101099079D01*
X152225557Y-101091227D01*
X152248166Y-101085563D01*
X152271221Y-101082144D01*
X152294500Y-101081000D01*
X152769500Y-101081000D01*
X152792779Y-101082144D01*
G37*
G04 #@! TD.AperFunction*
G04 #@! TA.AperFunction,SMDPad,CuDef*
G36*
X140480779Y-106594144D02*
G01*
X140503834Y-106597563D01*
X140526443Y-106603227D01*
X140548387Y-106611079D01*
X140569457Y-106621044D01*
X140589448Y-106633026D01*
X140608168Y-106646910D01*
X140625438Y-106662562D01*
X140641090Y-106679832D01*
X140654974Y-106698552D01*
X140666956Y-106718543D01*
X140676921Y-106739613D01*
X140684773Y-106761557D01*
X140690437Y-106784166D01*
X140693856Y-106807221D01*
X140695000Y-106830500D01*
X140695000Y-107305500D01*
X140693856Y-107328779D01*
X140690437Y-107351834D01*
X140684773Y-107374443D01*
X140676921Y-107396387D01*
X140666956Y-107417457D01*
X140654974Y-107437448D01*
X140641090Y-107456168D01*
X140625438Y-107473438D01*
X140608168Y-107489090D01*
X140589448Y-107502974D01*
X140569457Y-107514956D01*
X140548387Y-107524921D01*
X140526443Y-107532773D01*
X140503834Y-107538437D01*
X140480779Y-107541856D01*
X140457500Y-107543000D01*
X139957500Y-107543000D01*
X139934221Y-107541856D01*
X139911166Y-107538437D01*
X139888557Y-107532773D01*
X139866613Y-107524921D01*
X139845543Y-107514956D01*
X139825552Y-107502974D01*
X139806832Y-107489090D01*
X139789562Y-107473438D01*
X139773910Y-107456168D01*
X139760026Y-107437448D01*
X139748044Y-107417457D01*
X139738079Y-107396387D01*
X139730227Y-107374443D01*
X139724563Y-107351834D01*
X139721144Y-107328779D01*
X139720000Y-107305500D01*
X139720000Y-106830500D01*
X139721144Y-106807221D01*
X139724563Y-106784166D01*
X139730227Y-106761557D01*
X139738079Y-106739613D01*
X139748044Y-106718543D01*
X139760026Y-106698552D01*
X139773910Y-106679832D01*
X139789562Y-106662562D01*
X139806832Y-106646910D01*
X139825552Y-106633026D01*
X139845543Y-106621044D01*
X139866613Y-106611079D01*
X139888557Y-106603227D01*
X139911166Y-106597563D01*
X139934221Y-106594144D01*
X139957500Y-106593000D01*
X140457500Y-106593000D01*
X140480779Y-106594144D01*
G37*
G04 #@! TD.AperFunction*
G04 #@! TA.AperFunction,SMDPad,CuDef*
G36*
X142305779Y-106594144D02*
G01*
X142328834Y-106597563D01*
X142351443Y-106603227D01*
X142373387Y-106611079D01*
X142394457Y-106621044D01*
X142414448Y-106633026D01*
X142433168Y-106646910D01*
X142450438Y-106662562D01*
X142466090Y-106679832D01*
X142479974Y-106698552D01*
X142491956Y-106718543D01*
X142501921Y-106739613D01*
X142509773Y-106761557D01*
X142515437Y-106784166D01*
X142518856Y-106807221D01*
X142520000Y-106830500D01*
X142520000Y-107305500D01*
X142518856Y-107328779D01*
X142515437Y-107351834D01*
X142509773Y-107374443D01*
X142501921Y-107396387D01*
X142491956Y-107417457D01*
X142479974Y-107437448D01*
X142466090Y-107456168D01*
X142450438Y-107473438D01*
X142433168Y-107489090D01*
X142414448Y-107502974D01*
X142394457Y-107514956D01*
X142373387Y-107524921D01*
X142351443Y-107532773D01*
X142328834Y-107538437D01*
X142305779Y-107541856D01*
X142282500Y-107543000D01*
X141782500Y-107543000D01*
X141759221Y-107541856D01*
X141736166Y-107538437D01*
X141713557Y-107532773D01*
X141691613Y-107524921D01*
X141670543Y-107514956D01*
X141650552Y-107502974D01*
X141631832Y-107489090D01*
X141614562Y-107473438D01*
X141598910Y-107456168D01*
X141585026Y-107437448D01*
X141573044Y-107417457D01*
X141563079Y-107396387D01*
X141555227Y-107374443D01*
X141549563Y-107351834D01*
X141546144Y-107328779D01*
X141545000Y-107305500D01*
X141545000Y-106830500D01*
X141546144Y-106807221D01*
X141549563Y-106784166D01*
X141555227Y-106761557D01*
X141563079Y-106739613D01*
X141573044Y-106718543D01*
X141585026Y-106698552D01*
X141598910Y-106679832D01*
X141614562Y-106662562D01*
X141631832Y-106646910D01*
X141650552Y-106633026D01*
X141670543Y-106621044D01*
X141691613Y-106611079D01*
X141713557Y-106603227D01*
X141736166Y-106597563D01*
X141759221Y-106594144D01*
X141782500Y-106593000D01*
X142282500Y-106593000D01*
X142305779Y-106594144D01*
G37*
G04 #@! TD.AperFunction*
G04 #@! TA.AperFunction,SMDPad,CuDef*
G36*
X151792779Y-116994144D02*
G01*
X151815834Y-116997563D01*
X151838443Y-117003227D01*
X151860387Y-117011079D01*
X151881457Y-117021044D01*
X151901448Y-117033026D01*
X151920168Y-117046910D01*
X151937438Y-117062562D01*
X151953090Y-117079832D01*
X151966974Y-117098552D01*
X151978956Y-117118543D01*
X151988921Y-117139613D01*
X151996773Y-117161557D01*
X152002437Y-117184166D01*
X152005856Y-117207221D01*
X152007000Y-117230500D01*
X152007000Y-117730500D01*
X152005856Y-117753779D01*
X152002437Y-117776834D01*
X151996773Y-117799443D01*
X151988921Y-117821387D01*
X151978956Y-117842457D01*
X151966974Y-117862448D01*
X151953090Y-117881168D01*
X151937438Y-117898438D01*
X151920168Y-117914090D01*
X151901448Y-117927974D01*
X151881457Y-117939956D01*
X151860387Y-117949921D01*
X151838443Y-117957773D01*
X151815834Y-117963437D01*
X151792779Y-117966856D01*
X151769500Y-117968000D01*
X151294500Y-117968000D01*
X151271221Y-117966856D01*
X151248166Y-117963437D01*
X151225557Y-117957773D01*
X151203613Y-117949921D01*
X151182543Y-117939956D01*
X151162552Y-117927974D01*
X151143832Y-117914090D01*
X151126562Y-117898438D01*
X151110910Y-117881168D01*
X151097026Y-117862448D01*
X151085044Y-117842457D01*
X151075079Y-117821387D01*
X151067227Y-117799443D01*
X151061563Y-117776834D01*
X151058144Y-117753779D01*
X151057000Y-117730500D01*
X151057000Y-117230500D01*
X151058144Y-117207221D01*
X151061563Y-117184166D01*
X151067227Y-117161557D01*
X151075079Y-117139613D01*
X151085044Y-117118543D01*
X151097026Y-117098552D01*
X151110910Y-117079832D01*
X151126562Y-117062562D01*
X151143832Y-117046910D01*
X151162552Y-117033026D01*
X151182543Y-117021044D01*
X151203613Y-117011079D01*
X151225557Y-117003227D01*
X151248166Y-116997563D01*
X151271221Y-116994144D01*
X151294500Y-116993000D01*
X151769500Y-116993000D01*
X151792779Y-116994144D01*
G37*
G04 #@! TD.AperFunction*
G04 #@! TA.AperFunction,SMDPad,CuDef*
G36*
X151792779Y-115169144D02*
G01*
X151815834Y-115172563D01*
X151838443Y-115178227D01*
X151860387Y-115186079D01*
X151881457Y-115196044D01*
X151901448Y-115208026D01*
X151920168Y-115221910D01*
X151937438Y-115237562D01*
X151953090Y-115254832D01*
X151966974Y-115273552D01*
X151978956Y-115293543D01*
X151988921Y-115314613D01*
X151996773Y-115336557D01*
X152002437Y-115359166D01*
X152005856Y-115382221D01*
X152007000Y-115405500D01*
X152007000Y-115905500D01*
X152005856Y-115928779D01*
X152002437Y-115951834D01*
X151996773Y-115974443D01*
X151988921Y-115996387D01*
X151978956Y-116017457D01*
X151966974Y-116037448D01*
X151953090Y-116056168D01*
X151937438Y-116073438D01*
X151920168Y-116089090D01*
X151901448Y-116102974D01*
X151881457Y-116114956D01*
X151860387Y-116124921D01*
X151838443Y-116132773D01*
X151815834Y-116138437D01*
X151792779Y-116141856D01*
X151769500Y-116143000D01*
X151294500Y-116143000D01*
X151271221Y-116141856D01*
X151248166Y-116138437D01*
X151225557Y-116132773D01*
X151203613Y-116124921D01*
X151182543Y-116114956D01*
X151162552Y-116102974D01*
X151143832Y-116089090D01*
X151126562Y-116073438D01*
X151110910Y-116056168D01*
X151097026Y-116037448D01*
X151085044Y-116017457D01*
X151075079Y-115996387D01*
X151067227Y-115974443D01*
X151061563Y-115951834D01*
X151058144Y-115928779D01*
X151057000Y-115905500D01*
X151057000Y-115405500D01*
X151058144Y-115382221D01*
X151061563Y-115359166D01*
X151067227Y-115336557D01*
X151075079Y-115314613D01*
X151085044Y-115293543D01*
X151097026Y-115273552D01*
X151110910Y-115254832D01*
X151126562Y-115237562D01*
X151143832Y-115221910D01*
X151162552Y-115208026D01*
X151182543Y-115196044D01*
X151203613Y-115186079D01*
X151225557Y-115178227D01*
X151248166Y-115172563D01*
X151271221Y-115169144D01*
X151294500Y-115168000D01*
X151769500Y-115168000D01*
X151792779Y-115169144D01*
G37*
G04 #@! TD.AperFunction*
G04 #@! TA.AperFunction,SMDPad,CuDef*
G36*
X167292779Y-99169144D02*
G01*
X167315834Y-99172563D01*
X167338443Y-99178227D01*
X167360387Y-99186079D01*
X167381457Y-99196044D01*
X167401448Y-99208026D01*
X167420168Y-99221910D01*
X167437438Y-99237562D01*
X167453090Y-99254832D01*
X167466974Y-99273552D01*
X167478956Y-99293543D01*
X167488921Y-99314613D01*
X167496773Y-99336557D01*
X167502437Y-99359166D01*
X167505856Y-99382221D01*
X167507000Y-99405500D01*
X167507000Y-99905500D01*
X167505856Y-99928779D01*
X167502437Y-99951834D01*
X167496773Y-99974443D01*
X167488921Y-99996387D01*
X167478956Y-100017457D01*
X167466974Y-100037448D01*
X167453090Y-100056168D01*
X167437438Y-100073438D01*
X167420168Y-100089090D01*
X167401448Y-100102974D01*
X167381457Y-100114956D01*
X167360387Y-100124921D01*
X167338443Y-100132773D01*
X167315834Y-100138437D01*
X167292779Y-100141856D01*
X167269500Y-100143000D01*
X166794500Y-100143000D01*
X166771221Y-100141856D01*
X166748166Y-100138437D01*
X166725557Y-100132773D01*
X166703613Y-100124921D01*
X166682543Y-100114956D01*
X166662552Y-100102974D01*
X166643832Y-100089090D01*
X166626562Y-100073438D01*
X166610910Y-100056168D01*
X166597026Y-100037448D01*
X166585044Y-100017457D01*
X166575079Y-99996387D01*
X166567227Y-99974443D01*
X166561563Y-99951834D01*
X166558144Y-99928779D01*
X166557000Y-99905500D01*
X166557000Y-99405500D01*
X166558144Y-99382221D01*
X166561563Y-99359166D01*
X166567227Y-99336557D01*
X166575079Y-99314613D01*
X166585044Y-99293543D01*
X166597026Y-99273552D01*
X166610910Y-99254832D01*
X166626562Y-99237562D01*
X166643832Y-99221910D01*
X166662552Y-99208026D01*
X166682543Y-99196044D01*
X166703613Y-99186079D01*
X166725557Y-99178227D01*
X166748166Y-99172563D01*
X166771221Y-99169144D01*
X166794500Y-99168000D01*
X167269500Y-99168000D01*
X167292779Y-99169144D01*
G37*
G04 #@! TD.AperFunction*
G04 #@! TA.AperFunction,SMDPad,CuDef*
G36*
X167292779Y-100994144D02*
G01*
X167315834Y-100997563D01*
X167338443Y-101003227D01*
X167360387Y-101011079D01*
X167381457Y-101021044D01*
X167401448Y-101033026D01*
X167420168Y-101046910D01*
X167437438Y-101062562D01*
X167453090Y-101079832D01*
X167466974Y-101098552D01*
X167478956Y-101118543D01*
X167488921Y-101139613D01*
X167496773Y-101161557D01*
X167502437Y-101184166D01*
X167505856Y-101207221D01*
X167507000Y-101230500D01*
X167507000Y-101730500D01*
X167505856Y-101753779D01*
X167502437Y-101776834D01*
X167496773Y-101799443D01*
X167488921Y-101821387D01*
X167478956Y-101842457D01*
X167466974Y-101862448D01*
X167453090Y-101881168D01*
X167437438Y-101898438D01*
X167420168Y-101914090D01*
X167401448Y-101927974D01*
X167381457Y-101939956D01*
X167360387Y-101949921D01*
X167338443Y-101957773D01*
X167315834Y-101963437D01*
X167292779Y-101966856D01*
X167269500Y-101968000D01*
X166794500Y-101968000D01*
X166771221Y-101966856D01*
X166748166Y-101963437D01*
X166725557Y-101957773D01*
X166703613Y-101949921D01*
X166682543Y-101939956D01*
X166662552Y-101927974D01*
X166643832Y-101914090D01*
X166626562Y-101898438D01*
X166610910Y-101881168D01*
X166597026Y-101862448D01*
X166585044Y-101842457D01*
X166575079Y-101821387D01*
X166567227Y-101799443D01*
X166561563Y-101776834D01*
X166558144Y-101753779D01*
X166557000Y-101730500D01*
X166557000Y-101230500D01*
X166558144Y-101207221D01*
X166561563Y-101184166D01*
X166567227Y-101161557D01*
X166575079Y-101139613D01*
X166585044Y-101118543D01*
X166597026Y-101098552D01*
X166610910Y-101079832D01*
X166626562Y-101062562D01*
X166643832Y-101046910D01*
X166662552Y-101033026D01*
X166682543Y-101021044D01*
X166703613Y-101011079D01*
X166725557Y-101003227D01*
X166748166Y-100997563D01*
X166771221Y-100994144D01*
X166794500Y-100993000D01*
X167269500Y-100993000D01*
X167292779Y-100994144D01*
G37*
G04 #@! TD.AperFunction*
G04 #@! TA.AperFunction,SMDPad,CuDef*
G36*
X146792779Y-99169144D02*
G01*
X146815834Y-99172563D01*
X146838443Y-99178227D01*
X146860387Y-99186079D01*
X146881457Y-99196044D01*
X146901448Y-99208026D01*
X146920168Y-99221910D01*
X146937438Y-99237562D01*
X146953090Y-99254832D01*
X146966974Y-99273552D01*
X146978956Y-99293543D01*
X146988921Y-99314613D01*
X146996773Y-99336557D01*
X147002437Y-99359166D01*
X147005856Y-99382221D01*
X147007000Y-99405500D01*
X147007000Y-99905500D01*
X147005856Y-99928779D01*
X147002437Y-99951834D01*
X146996773Y-99974443D01*
X146988921Y-99996387D01*
X146978956Y-100017457D01*
X146966974Y-100037448D01*
X146953090Y-100056168D01*
X146937438Y-100073438D01*
X146920168Y-100089090D01*
X146901448Y-100102974D01*
X146881457Y-100114956D01*
X146860387Y-100124921D01*
X146838443Y-100132773D01*
X146815834Y-100138437D01*
X146792779Y-100141856D01*
X146769500Y-100143000D01*
X146294500Y-100143000D01*
X146271221Y-100141856D01*
X146248166Y-100138437D01*
X146225557Y-100132773D01*
X146203613Y-100124921D01*
X146182543Y-100114956D01*
X146162552Y-100102974D01*
X146143832Y-100089090D01*
X146126562Y-100073438D01*
X146110910Y-100056168D01*
X146097026Y-100037448D01*
X146085044Y-100017457D01*
X146075079Y-99996387D01*
X146067227Y-99974443D01*
X146061563Y-99951834D01*
X146058144Y-99928779D01*
X146057000Y-99905500D01*
X146057000Y-99405500D01*
X146058144Y-99382221D01*
X146061563Y-99359166D01*
X146067227Y-99336557D01*
X146075079Y-99314613D01*
X146085044Y-99293543D01*
X146097026Y-99273552D01*
X146110910Y-99254832D01*
X146126562Y-99237562D01*
X146143832Y-99221910D01*
X146162552Y-99208026D01*
X146182543Y-99196044D01*
X146203613Y-99186079D01*
X146225557Y-99178227D01*
X146248166Y-99172563D01*
X146271221Y-99169144D01*
X146294500Y-99168000D01*
X146769500Y-99168000D01*
X146792779Y-99169144D01*
G37*
G04 #@! TD.AperFunction*
G04 #@! TA.AperFunction,SMDPad,CuDef*
G36*
X146792779Y-100994144D02*
G01*
X146815834Y-100997563D01*
X146838443Y-101003227D01*
X146860387Y-101011079D01*
X146881457Y-101021044D01*
X146901448Y-101033026D01*
X146920168Y-101046910D01*
X146937438Y-101062562D01*
X146953090Y-101079832D01*
X146966974Y-101098552D01*
X146978956Y-101118543D01*
X146988921Y-101139613D01*
X146996773Y-101161557D01*
X147002437Y-101184166D01*
X147005856Y-101207221D01*
X147007000Y-101230500D01*
X147007000Y-101730500D01*
X147005856Y-101753779D01*
X147002437Y-101776834D01*
X146996773Y-101799443D01*
X146988921Y-101821387D01*
X146978956Y-101842457D01*
X146966974Y-101862448D01*
X146953090Y-101881168D01*
X146937438Y-101898438D01*
X146920168Y-101914090D01*
X146901448Y-101927974D01*
X146881457Y-101939956D01*
X146860387Y-101949921D01*
X146838443Y-101957773D01*
X146815834Y-101963437D01*
X146792779Y-101966856D01*
X146769500Y-101968000D01*
X146294500Y-101968000D01*
X146271221Y-101966856D01*
X146248166Y-101963437D01*
X146225557Y-101957773D01*
X146203613Y-101949921D01*
X146182543Y-101939956D01*
X146162552Y-101927974D01*
X146143832Y-101914090D01*
X146126562Y-101898438D01*
X146110910Y-101881168D01*
X146097026Y-101862448D01*
X146085044Y-101842457D01*
X146075079Y-101821387D01*
X146067227Y-101799443D01*
X146061563Y-101776834D01*
X146058144Y-101753779D01*
X146057000Y-101730500D01*
X146057000Y-101230500D01*
X146058144Y-101207221D01*
X146061563Y-101184166D01*
X146067227Y-101161557D01*
X146075079Y-101139613D01*
X146085044Y-101118543D01*
X146097026Y-101098552D01*
X146110910Y-101079832D01*
X146126562Y-101062562D01*
X146143832Y-101046910D01*
X146162552Y-101033026D01*
X146182543Y-101021044D01*
X146203613Y-101011079D01*
X146225557Y-101003227D01*
X146248166Y-100997563D01*
X146271221Y-100994144D01*
X146294500Y-100993000D01*
X146769500Y-100993000D01*
X146792779Y-100994144D01*
G37*
G04 #@! TD.AperFunction*
G04 #@! TA.AperFunction,SMDPad,CuDef*
G36*
X149792779Y-99169144D02*
G01*
X149815834Y-99172563D01*
X149838443Y-99178227D01*
X149860387Y-99186079D01*
X149881457Y-99196044D01*
X149901448Y-99208026D01*
X149920168Y-99221910D01*
X149937438Y-99237562D01*
X149953090Y-99254832D01*
X149966974Y-99273552D01*
X149978956Y-99293543D01*
X149988921Y-99314613D01*
X149996773Y-99336557D01*
X150002437Y-99359166D01*
X150005856Y-99382221D01*
X150007000Y-99405500D01*
X150007000Y-99905500D01*
X150005856Y-99928779D01*
X150002437Y-99951834D01*
X149996773Y-99974443D01*
X149988921Y-99996387D01*
X149978956Y-100017457D01*
X149966974Y-100037448D01*
X149953090Y-100056168D01*
X149937438Y-100073438D01*
X149920168Y-100089090D01*
X149901448Y-100102974D01*
X149881457Y-100114956D01*
X149860387Y-100124921D01*
X149838443Y-100132773D01*
X149815834Y-100138437D01*
X149792779Y-100141856D01*
X149769500Y-100143000D01*
X149294500Y-100143000D01*
X149271221Y-100141856D01*
X149248166Y-100138437D01*
X149225557Y-100132773D01*
X149203613Y-100124921D01*
X149182543Y-100114956D01*
X149162552Y-100102974D01*
X149143832Y-100089090D01*
X149126562Y-100073438D01*
X149110910Y-100056168D01*
X149097026Y-100037448D01*
X149085044Y-100017457D01*
X149075079Y-99996387D01*
X149067227Y-99974443D01*
X149061563Y-99951834D01*
X149058144Y-99928779D01*
X149057000Y-99905500D01*
X149057000Y-99405500D01*
X149058144Y-99382221D01*
X149061563Y-99359166D01*
X149067227Y-99336557D01*
X149075079Y-99314613D01*
X149085044Y-99293543D01*
X149097026Y-99273552D01*
X149110910Y-99254832D01*
X149126562Y-99237562D01*
X149143832Y-99221910D01*
X149162552Y-99208026D01*
X149182543Y-99196044D01*
X149203613Y-99186079D01*
X149225557Y-99178227D01*
X149248166Y-99172563D01*
X149271221Y-99169144D01*
X149294500Y-99168000D01*
X149769500Y-99168000D01*
X149792779Y-99169144D01*
G37*
G04 #@! TD.AperFunction*
G04 #@! TA.AperFunction,SMDPad,CuDef*
G36*
X149792779Y-100994144D02*
G01*
X149815834Y-100997563D01*
X149838443Y-101003227D01*
X149860387Y-101011079D01*
X149881457Y-101021044D01*
X149901448Y-101033026D01*
X149920168Y-101046910D01*
X149937438Y-101062562D01*
X149953090Y-101079832D01*
X149966974Y-101098552D01*
X149978956Y-101118543D01*
X149988921Y-101139613D01*
X149996773Y-101161557D01*
X150002437Y-101184166D01*
X150005856Y-101207221D01*
X150007000Y-101230500D01*
X150007000Y-101730500D01*
X150005856Y-101753779D01*
X150002437Y-101776834D01*
X149996773Y-101799443D01*
X149988921Y-101821387D01*
X149978956Y-101842457D01*
X149966974Y-101862448D01*
X149953090Y-101881168D01*
X149937438Y-101898438D01*
X149920168Y-101914090D01*
X149901448Y-101927974D01*
X149881457Y-101939956D01*
X149860387Y-101949921D01*
X149838443Y-101957773D01*
X149815834Y-101963437D01*
X149792779Y-101966856D01*
X149769500Y-101968000D01*
X149294500Y-101968000D01*
X149271221Y-101966856D01*
X149248166Y-101963437D01*
X149225557Y-101957773D01*
X149203613Y-101949921D01*
X149182543Y-101939956D01*
X149162552Y-101927974D01*
X149143832Y-101914090D01*
X149126562Y-101898438D01*
X149110910Y-101881168D01*
X149097026Y-101862448D01*
X149085044Y-101842457D01*
X149075079Y-101821387D01*
X149067227Y-101799443D01*
X149061563Y-101776834D01*
X149058144Y-101753779D01*
X149057000Y-101730500D01*
X149057000Y-101230500D01*
X149058144Y-101207221D01*
X149061563Y-101184166D01*
X149067227Y-101161557D01*
X149075079Y-101139613D01*
X149085044Y-101118543D01*
X149097026Y-101098552D01*
X149110910Y-101079832D01*
X149126562Y-101062562D01*
X149143832Y-101046910D01*
X149162552Y-101033026D01*
X149182543Y-101021044D01*
X149203613Y-101011079D01*
X149225557Y-101003227D01*
X149248166Y-100997563D01*
X149271221Y-100994144D01*
X149294500Y-100993000D01*
X149769500Y-100993000D01*
X149792779Y-100994144D01*
G37*
G04 #@! TD.AperFunction*
G04 #@! TA.AperFunction,SMDPad,CuDef*
G36*
X147792779Y-115757144D02*
G01*
X147815834Y-115760563D01*
X147838443Y-115766227D01*
X147860387Y-115774079D01*
X147881457Y-115784044D01*
X147901448Y-115796026D01*
X147920168Y-115809910D01*
X147937438Y-115825562D01*
X147953090Y-115842832D01*
X147966974Y-115861552D01*
X147978956Y-115881543D01*
X147988921Y-115902613D01*
X147996773Y-115924557D01*
X148002437Y-115947166D01*
X148005856Y-115970221D01*
X148007000Y-115993500D01*
X148007000Y-116493500D01*
X148005856Y-116516779D01*
X148002437Y-116539834D01*
X147996773Y-116562443D01*
X147988921Y-116584387D01*
X147978956Y-116605457D01*
X147966974Y-116625448D01*
X147953090Y-116644168D01*
X147937438Y-116661438D01*
X147920168Y-116677090D01*
X147901448Y-116690974D01*
X147881457Y-116702956D01*
X147860387Y-116712921D01*
X147838443Y-116720773D01*
X147815834Y-116726437D01*
X147792779Y-116729856D01*
X147769500Y-116731000D01*
X147294500Y-116731000D01*
X147271221Y-116729856D01*
X147248166Y-116726437D01*
X147225557Y-116720773D01*
X147203613Y-116712921D01*
X147182543Y-116702956D01*
X147162552Y-116690974D01*
X147143832Y-116677090D01*
X147126562Y-116661438D01*
X147110910Y-116644168D01*
X147097026Y-116625448D01*
X147085044Y-116605457D01*
X147075079Y-116584387D01*
X147067227Y-116562443D01*
X147061563Y-116539834D01*
X147058144Y-116516779D01*
X147057000Y-116493500D01*
X147057000Y-115993500D01*
X147058144Y-115970221D01*
X147061563Y-115947166D01*
X147067227Y-115924557D01*
X147075079Y-115902613D01*
X147085044Y-115881543D01*
X147097026Y-115861552D01*
X147110910Y-115842832D01*
X147126562Y-115825562D01*
X147143832Y-115809910D01*
X147162552Y-115796026D01*
X147182543Y-115784044D01*
X147203613Y-115774079D01*
X147225557Y-115766227D01*
X147248166Y-115760563D01*
X147271221Y-115757144D01*
X147294500Y-115756000D01*
X147769500Y-115756000D01*
X147792779Y-115757144D01*
G37*
G04 #@! TD.AperFunction*
G04 #@! TA.AperFunction,SMDPad,CuDef*
G36*
X147792779Y-117582144D02*
G01*
X147815834Y-117585563D01*
X147838443Y-117591227D01*
X147860387Y-117599079D01*
X147881457Y-117609044D01*
X147901448Y-117621026D01*
X147920168Y-117634910D01*
X147937438Y-117650562D01*
X147953090Y-117667832D01*
X147966974Y-117686552D01*
X147978956Y-117706543D01*
X147988921Y-117727613D01*
X147996773Y-117749557D01*
X148002437Y-117772166D01*
X148005856Y-117795221D01*
X148007000Y-117818500D01*
X148007000Y-118318500D01*
X148005856Y-118341779D01*
X148002437Y-118364834D01*
X147996773Y-118387443D01*
X147988921Y-118409387D01*
X147978956Y-118430457D01*
X147966974Y-118450448D01*
X147953090Y-118469168D01*
X147937438Y-118486438D01*
X147920168Y-118502090D01*
X147901448Y-118515974D01*
X147881457Y-118527956D01*
X147860387Y-118537921D01*
X147838443Y-118545773D01*
X147815834Y-118551437D01*
X147792779Y-118554856D01*
X147769500Y-118556000D01*
X147294500Y-118556000D01*
X147271221Y-118554856D01*
X147248166Y-118551437D01*
X147225557Y-118545773D01*
X147203613Y-118537921D01*
X147182543Y-118527956D01*
X147162552Y-118515974D01*
X147143832Y-118502090D01*
X147126562Y-118486438D01*
X147110910Y-118469168D01*
X147097026Y-118450448D01*
X147085044Y-118430457D01*
X147075079Y-118409387D01*
X147067227Y-118387443D01*
X147061563Y-118364834D01*
X147058144Y-118341779D01*
X147057000Y-118318500D01*
X147057000Y-117818500D01*
X147058144Y-117795221D01*
X147061563Y-117772166D01*
X147067227Y-117749557D01*
X147075079Y-117727613D01*
X147085044Y-117706543D01*
X147097026Y-117686552D01*
X147110910Y-117667832D01*
X147126562Y-117650562D01*
X147143832Y-117634910D01*
X147162552Y-117621026D01*
X147182543Y-117609044D01*
X147203613Y-117599079D01*
X147225557Y-117591227D01*
X147248166Y-117585563D01*
X147271221Y-117582144D01*
X147294500Y-117581000D01*
X147769500Y-117581000D01*
X147792779Y-117582144D01*
G37*
G04 #@! TD.AperFunction*
D21*
X174292000Y-93528000D03*
X174292000Y-96068000D03*
X171752000Y-93528000D03*
X171752000Y-96068000D03*
X169212000Y-93528000D03*
X169212000Y-96068000D03*
X166672000Y-93528000D03*
X166672000Y-96068000D03*
X164132000Y-93528000D03*
X164132000Y-96068000D03*
X161592000Y-93528000D03*
X161592000Y-96068000D03*
X159052000Y-93528000D03*
X159052000Y-96068000D03*
X156512000Y-93528000D03*
X156512000Y-96068000D03*
X153972000Y-93528000D03*
X153972000Y-96068000D03*
X151432000Y-93528000D03*
X151432000Y-96068000D03*
X148892000Y-93528000D03*
X148892000Y-96068000D03*
X146352000Y-93528000D03*
X146352000Y-96068000D03*
X143812000Y-93528000D03*
X143812000Y-96068000D03*
X141272000Y-93528000D03*
X141272000Y-96068000D03*
X138732000Y-93528000D03*
X138732000Y-96068000D03*
X136192000Y-93528000D03*
X136192000Y-96068000D03*
X133652000Y-93528000D03*
X133652000Y-96068000D03*
X131112000Y-93528000D03*
X131112000Y-96068000D03*
X128572000Y-93528000D03*
X128572000Y-96068000D03*
X126032000Y-93528000D03*
D22*
X126032000Y-96068000D03*
D23*
X155532000Y-99768000D03*
X155532000Y-101368000D03*
D24*
X140232000Y-110068000D03*
X141832000Y-110068000D03*
G04 #@! TA.AperFunction,SMDPad,CuDef*
D20*
G36*
X158356504Y-117344204D02*
G01*
X158380773Y-117347804D01*
X158404571Y-117353765D01*
X158427671Y-117362030D01*
X158449849Y-117372520D01*
X158470893Y-117385133D01*
X158490598Y-117399747D01*
X158508777Y-117416223D01*
X158525253Y-117434402D01*
X158539867Y-117454107D01*
X158552480Y-117475151D01*
X158562970Y-117497329D01*
X158571235Y-117520429D01*
X158577196Y-117544227D01*
X158580796Y-117568496D01*
X158582000Y-117593000D01*
X158582000Y-118543000D01*
X158580796Y-118567504D01*
X158577196Y-118591773D01*
X158571235Y-118615571D01*
X158562970Y-118638671D01*
X158552480Y-118660849D01*
X158539867Y-118681893D01*
X158525253Y-118701598D01*
X158508777Y-118719777D01*
X158490598Y-118736253D01*
X158470893Y-118750867D01*
X158449849Y-118763480D01*
X158427671Y-118773970D01*
X158404571Y-118782235D01*
X158380773Y-118788196D01*
X158356504Y-118791796D01*
X158332000Y-118793000D01*
X157657000Y-118793000D01*
X157632496Y-118791796D01*
X157608227Y-118788196D01*
X157584429Y-118782235D01*
X157561329Y-118773970D01*
X157539151Y-118763480D01*
X157518107Y-118750867D01*
X157498402Y-118736253D01*
X157480223Y-118719777D01*
X157463747Y-118701598D01*
X157449133Y-118681893D01*
X157436520Y-118660849D01*
X157426030Y-118638671D01*
X157417765Y-118615571D01*
X157411804Y-118591773D01*
X157408204Y-118567504D01*
X157407000Y-118543000D01*
X157407000Y-117593000D01*
X157408204Y-117568496D01*
X157411804Y-117544227D01*
X157417765Y-117520429D01*
X157426030Y-117497329D01*
X157436520Y-117475151D01*
X157449133Y-117454107D01*
X157463747Y-117434402D01*
X157480223Y-117416223D01*
X157498402Y-117399747D01*
X157518107Y-117385133D01*
X157539151Y-117372520D01*
X157561329Y-117362030D01*
X157584429Y-117353765D01*
X157608227Y-117347804D01*
X157632496Y-117344204D01*
X157657000Y-117343000D01*
X158332000Y-117343000D01*
X158356504Y-117344204D01*
G37*
G04 #@! TD.AperFunction*
G04 #@! TA.AperFunction,SMDPad,CuDef*
G36*
X160431504Y-117344204D02*
G01*
X160455773Y-117347804D01*
X160479571Y-117353765D01*
X160502671Y-117362030D01*
X160524849Y-117372520D01*
X160545893Y-117385133D01*
X160565598Y-117399747D01*
X160583777Y-117416223D01*
X160600253Y-117434402D01*
X160614867Y-117454107D01*
X160627480Y-117475151D01*
X160637970Y-117497329D01*
X160646235Y-117520429D01*
X160652196Y-117544227D01*
X160655796Y-117568496D01*
X160657000Y-117593000D01*
X160657000Y-118543000D01*
X160655796Y-118567504D01*
X160652196Y-118591773D01*
X160646235Y-118615571D01*
X160637970Y-118638671D01*
X160627480Y-118660849D01*
X160614867Y-118681893D01*
X160600253Y-118701598D01*
X160583777Y-118719777D01*
X160565598Y-118736253D01*
X160545893Y-118750867D01*
X160524849Y-118763480D01*
X160502671Y-118773970D01*
X160479571Y-118782235D01*
X160455773Y-118788196D01*
X160431504Y-118791796D01*
X160407000Y-118793000D01*
X159732000Y-118793000D01*
X159707496Y-118791796D01*
X159683227Y-118788196D01*
X159659429Y-118782235D01*
X159636329Y-118773970D01*
X159614151Y-118763480D01*
X159593107Y-118750867D01*
X159573402Y-118736253D01*
X159555223Y-118719777D01*
X159538747Y-118701598D01*
X159524133Y-118681893D01*
X159511520Y-118660849D01*
X159501030Y-118638671D01*
X159492765Y-118615571D01*
X159486804Y-118591773D01*
X159483204Y-118567504D01*
X159482000Y-118543000D01*
X159482000Y-117593000D01*
X159483204Y-117568496D01*
X159486804Y-117544227D01*
X159492765Y-117520429D01*
X159501030Y-117497329D01*
X159511520Y-117475151D01*
X159524133Y-117454107D01*
X159538747Y-117434402D01*
X159555223Y-117416223D01*
X159573402Y-117399747D01*
X159593107Y-117385133D01*
X159614151Y-117372520D01*
X159636329Y-117362030D01*
X159659429Y-117353765D01*
X159683227Y-117347804D01*
X159707496Y-117344204D01*
X159732000Y-117343000D01*
X160407000Y-117343000D01*
X160431504Y-117344204D01*
G37*
G04 #@! TD.AperFunction*
G04 #@! TA.AperFunction,SMDPad,CuDef*
G36*
X163792779Y-103169144D02*
G01*
X163815834Y-103172563D01*
X163838443Y-103178227D01*
X163860387Y-103186079D01*
X163881457Y-103196044D01*
X163901448Y-103208026D01*
X163920168Y-103221910D01*
X163937438Y-103237562D01*
X163953090Y-103254832D01*
X163966974Y-103273552D01*
X163978956Y-103293543D01*
X163988921Y-103314613D01*
X163996773Y-103336557D01*
X164002437Y-103359166D01*
X164005856Y-103382221D01*
X164007000Y-103405500D01*
X164007000Y-104005500D01*
X164005856Y-104028779D01*
X164002437Y-104051834D01*
X163996773Y-104074443D01*
X163988921Y-104096387D01*
X163978956Y-104117457D01*
X163966974Y-104137448D01*
X163953090Y-104156168D01*
X163937438Y-104173438D01*
X163920168Y-104189090D01*
X163901448Y-104202974D01*
X163881457Y-104214956D01*
X163860387Y-104224921D01*
X163838443Y-104232773D01*
X163815834Y-104238437D01*
X163792779Y-104241856D01*
X163769500Y-104243000D01*
X163294500Y-104243000D01*
X163271221Y-104241856D01*
X163248166Y-104238437D01*
X163225557Y-104232773D01*
X163203613Y-104224921D01*
X163182543Y-104214956D01*
X163162552Y-104202974D01*
X163143832Y-104189090D01*
X163126562Y-104173438D01*
X163110910Y-104156168D01*
X163097026Y-104137448D01*
X163085044Y-104117457D01*
X163075079Y-104096387D01*
X163067227Y-104074443D01*
X163061563Y-104051834D01*
X163058144Y-104028779D01*
X163057000Y-104005500D01*
X163057000Y-103405500D01*
X163058144Y-103382221D01*
X163061563Y-103359166D01*
X163067227Y-103336557D01*
X163075079Y-103314613D01*
X163085044Y-103293543D01*
X163097026Y-103273552D01*
X163110910Y-103254832D01*
X163126562Y-103237562D01*
X163143832Y-103221910D01*
X163162552Y-103208026D01*
X163182543Y-103196044D01*
X163203613Y-103186079D01*
X163225557Y-103178227D01*
X163248166Y-103172563D01*
X163271221Y-103169144D01*
X163294500Y-103168000D01*
X163769500Y-103168000D01*
X163792779Y-103169144D01*
G37*
G04 #@! TD.AperFunction*
G04 #@! TA.AperFunction,SMDPad,CuDef*
G36*
X163792779Y-104894144D02*
G01*
X163815834Y-104897563D01*
X163838443Y-104903227D01*
X163860387Y-104911079D01*
X163881457Y-104921044D01*
X163901448Y-104933026D01*
X163920168Y-104946910D01*
X163937438Y-104962562D01*
X163953090Y-104979832D01*
X163966974Y-104998552D01*
X163978956Y-105018543D01*
X163988921Y-105039613D01*
X163996773Y-105061557D01*
X164002437Y-105084166D01*
X164005856Y-105107221D01*
X164007000Y-105130500D01*
X164007000Y-105730500D01*
X164005856Y-105753779D01*
X164002437Y-105776834D01*
X163996773Y-105799443D01*
X163988921Y-105821387D01*
X163978956Y-105842457D01*
X163966974Y-105862448D01*
X163953090Y-105881168D01*
X163937438Y-105898438D01*
X163920168Y-105914090D01*
X163901448Y-105927974D01*
X163881457Y-105939956D01*
X163860387Y-105949921D01*
X163838443Y-105957773D01*
X163815834Y-105963437D01*
X163792779Y-105966856D01*
X163769500Y-105968000D01*
X163294500Y-105968000D01*
X163271221Y-105966856D01*
X163248166Y-105963437D01*
X163225557Y-105957773D01*
X163203613Y-105949921D01*
X163182543Y-105939956D01*
X163162552Y-105927974D01*
X163143832Y-105914090D01*
X163126562Y-105898438D01*
X163110910Y-105881168D01*
X163097026Y-105862448D01*
X163085044Y-105842457D01*
X163075079Y-105821387D01*
X163067227Y-105799443D01*
X163061563Y-105776834D01*
X163058144Y-105753779D01*
X163057000Y-105730500D01*
X163057000Y-105130500D01*
X163058144Y-105107221D01*
X163061563Y-105084166D01*
X163067227Y-105061557D01*
X163075079Y-105039613D01*
X163085044Y-105018543D01*
X163097026Y-104998552D01*
X163110910Y-104979832D01*
X163126562Y-104962562D01*
X163143832Y-104946910D01*
X163162552Y-104933026D01*
X163182543Y-104921044D01*
X163203613Y-104911079D01*
X163225557Y-104903227D01*
X163248166Y-104897563D01*
X163271221Y-104894144D01*
X163294500Y-104893000D01*
X163769500Y-104893000D01*
X163792779Y-104894144D01*
G37*
G04 #@! TD.AperFunction*
G04 #@! TA.AperFunction,SMDPad,CuDef*
G36*
X163792779Y-112894144D02*
G01*
X163815834Y-112897563D01*
X163838443Y-112903227D01*
X163860387Y-112911079D01*
X163881457Y-112921044D01*
X163901448Y-112933026D01*
X163920168Y-112946910D01*
X163937438Y-112962562D01*
X163953090Y-112979832D01*
X163966974Y-112998552D01*
X163978956Y-113018543D01*
X163988921Y-113039613D01*
X163996773Y-113061557D01*
X164002437Y-113084166D01*
X164005856Y-113107221D01*
X164007000Y-113130500D01*
X164007000Y-113730500D01*
X164005856Y-113753779D01*
X164002437Y-113776834D01*
X163996773Y-113799443D01*
X163988921Y-113821387D01*
X163978956Y-113842457D01*
X163966974Y-113862448D01*
X163953090Y-113881168D01*
X163937438Y-113898438D01*
X163920168Y-113914090D01*
X163901448Y-113927974D01*
X163881457Y-113939956D01*
X163860387Y-113949921D01*
X163838443Y-113957773D01*
X163815834Y-113963437D01*
X163792779Y-113966856D01*
X163769500Y-113968000D01*
X163294500Y-113968000D01*
X163271221Y-113966856D01*
X163248166Y-113963437D01*
X163225557Y-113957773D01*
X163203613Y-113949921D01*
X163182543Y-113939956D01*
X163162552Y-113927974D01*
X163143832Y-113914090D01*
X163126562Y-113898438D01*
X163110910Y-113881168D01*
X163097026Y-113862448D01*
X163085044Y-113842457D01*
X163075079Y-113821387D01*
X163067227Y-113799443D01*
X163061563Y-113776834D01*
X163058144Y-113753779D01*
X163057000Y-113730500D01*
X163057000Y-113130500D01*
X163058144Y-113107221D01*
X163061563Y-113084166D01*
X163067227Y-113061557D01*
X163075079Y-113039613D01*
X163085044Y-113018543D01*
X163097026Y-112998552D01*
X163110910Y-112979832D01*
X163126562Y-112962562D01*
X163143832Y-112946910D01*
X163162552Y-112933026D01*
X163182543Y-112921044D01*
X163203613Y-112911079D01*
X163225557Y-112903227D01*
X163248166Y-112897563D01*
X163271221Y-112894144D01*
X163294500Y-112893000D01*
X163769500Y-112893000D01*
X163792779Y-112894144D01*
G37*
G04 #@! TD.AperFunction*
G04 #@! TA.AperFunction,SMDPad,CuDef*
G36*
X163792779Y-111169144D02*
G01*
X163815834Y-111172563D01*
X163838443Y-111178227D01*
X163860387Y-111186079D01*
X163881457Y-111196044D01*
X163901448Y-111208026D01*
X163920168Y-111221910D01*
X163937438Y-111237562D01*
X163953090Y-111254832D01*
X163966974Y-111273552D01*
X163978956Y-111293543D01*
X163988921Y-111314613D01*
X163996773Y-111336557D01*
X164002437Y-111359166D01*
X164005856Y-111382221D01*
X164007000Y-111405500D01*
X164007000Y-112005500D01*
X164005856Y-112028779D01*
X164002437Y-112051834D01*
X163996773Y-112074443D01*
X163988921Y-112096387D01*
X163978956Y-112117457D01*
X163966974Y-112137448D01*
X163953090Y-112156168D01*
X163937438Y-112173438D01*
X163920168Y-112189090D01*
X163901448Y-112202974D01*
X163881457Y-112214956D01*
X163860387Y-112224921D01*
X163838443Y-112232773D01*
X163815834Y-112238437D01*
X163792779Y-112241856D01*
X163769500Y-112243000D01*
X163294500Y-112243000D01*
X163271221Y-112241856D01*
X163248166Y-112238437D01*
X163225557Y-112232773D01*
X163203613Y-112224921D01*
X163182543Y-112214956D01*
X163162552Y-112202974D01*
X163143832Y-112189090D01*
X163126562Y-112173438D01*
X163110910Y-112156168D01*
X163097026Y-112137448D01*
X163085044Y-112117457D01*
X163075079Y-112096387D01*
X163067227Y-112074443D01*
X163061563Y-112051834D01*
X163058144Y-112028779D01*
X163057000Y-112005500D01*
X163057000Y-111405500D01*
X163058144Y-111382221D01*
X163061563Y-111359166D01*
X163067227Y-111336557D01*
X163075079Y-111314613D01*
X163085044Y-111293543D01*
X163097026Y-111273552D01*
X163110910Y-111254832D01*
X163126562Y-111237562D01*
X163143832Y-111221910D01*
X163162552Y-111208026D01*
X163182543Y-111196044D01*
X163203613Y-111186079D01*
X163225557Y-111178227D01*
X163248166Y-111172563D01*
X163271221Y-111169144D01*
X163294500Y-111168000D01*
X163769500Y-111168000D01*
X163792779Y-111169144D01*
G37*
G04 #@! TD.AperFunction*
G04 #@! TA.AperFunction,SMDPad,CuDef*
G36*
X171856504Y-101344204D02*
G01*
X171880773Y-101347804D01*
X171904571Y-101353765D01*
X171927671Y-101362030D01*
X171949849Y-101372520D01*
X171970893Y-101385133D01*
X171990598Y-101399747D01*
X172008777Y-101416223D01*
X172025253Y-101434402D01*
X172039867Y-101454107D01*
X172052480Y-101475151D01*
X172062970Y-101497329D01*
X172071235Y-101520429D01*
X172077196Y-101544227D01*
X172080796Y-101568496D01*
X172082000Y-101593000D01*
X172082000Y-102543000D01*
X172080796Y-102567504D01*
X172077196Y-102591773D01*
X172071235Y-102615571D01*
X172062970Y-102638671D01*
X172052480Y-102660849D01*
X172039867Y-102681893D01*
X172025253Y-102701598D01*
X172008777Y-102719777D01*
X171990598Y-102736253D01*
X171970893Y-102750867D01*
X171949849Y-102763480D01*
X171927671Y-102773970D01*
X171904571Y-102782235D01*
X171880773Y-102788196D01*
X171856504Y-102791796D01*
X171832000Y-102793000D01*
X171157000Y-102793000D01*
X171132496Y-102791796D01*
X171108227Y-102788196D01*
X171084429Y-102782235D01*
X171061329Y-102773970D01*
X171039151Y-102763480D01*
X171018107Y-102750867D01*
X170998402Y-102736253D01*
X170980223Y-102719777D01*
X170963747Y-102701598D01*
X170949133Y-102681893D01*
X170936520Y-102660849D01*
X170926030Y-102638671D01*
X170917765Y-102615571D01*
X170911804Y-102591773D01*
X170908204Y-102567504D01*
X170907000Y-102543000D01*
X170907000Y-101593000D01*
X170908204Y-101568496D01*
X170911804Y-101544227D01*
X170917765Y-101520429D01*
X170926030Y-101497329D01*
X170936520Y-101475151D01*
X170949133Y-101454107D01*
X170963747Y-101434402D01*
X170980223Y-101416223D01*
X170998402Y-101399747D01*
X171018107Y-101385133D01*
X171039151Y-101372520D01*
X171061329Y-101362030D01*
X171084429Y-101353765D01*
X171108227Y-101347804D01*
X171132496Y-101344204D01*
X171157000Y-101343000D01*
X171832000Y-101343000D01*
X171856504Y-101344204D01*
G37*
G04 #@! TD.AperFunction*
G04 #@! TA.AperFunction,SMDPad,CuDef*
G36*
X173931504Y-101344204D02*
G01*
X173955773Y-101347804D01*
X173979571Y-101353765D01*
X174002671Y-101362030D01*
X174024849Y-101372520D01*
X174045893Y-101385133D01*
X174065598Y-101399747D01*
X174083777Y-101416223D01*
X174100253Y-101434402D01*
X174114867Y-101454107D01*
X174127480Y-101475151D01*
X174137970Y-101497329D01*
X174146235Y-101520429D01*
X174152196Y-101544227D01*
X174155796Y-101568496D01*
X174157000Y-101593000D01*
X174157000Y-102543000D01*
X174155796Y-102567504D01*
X174152196Y-102591773D01*
X174146235Y-102615571D01*
X174137970Y-102638671D01*
X174127480Y-102660849D01*
X174114867Y-102681893D01*
X174100253Y-102701598D01*
X174083777Y-102719777D01*
X174065598Y-102736253D01*
X174045893Y-102750867D01*
X174024849Y-102763480D01*
X174002671Y-102773970D01*
X173979571Y-102782235D01*
X173955773Y-102788196D01*
X173931504Y-102791796D01*
X173907000Y-102793000D01*
X173232000Y-102793000D01*
X173207496Y-102791796D01*
X173183227Y-102788196D01*
X173159429Y-102782235D01*
X173136329Y-102773970D01*
X173114151Y-102763480D01*
X173093107Y-102750867D01*
X173073402Y-102736253D01*
X173055223Y-102719777D01*
X173038747Y-102701598D01*
X173024133Y-102681893D01*
X173011520Y-102660849D01*
X173001030Y-102638671D01*
X172992765Y-102615571D01*
X172986804Y-102591773D01*
X172983204Y-102567504D01*
X172982000Y-102543000D01*
X172982000Y-101593000D01*
X172983204Y-101568496D01*
X172986804Y-101544227D01*
X172992765Y-101520429D01*
X173001030Y-101497329D01*
X173011520Y-101475151D01*
X173024133Y-101454107D01*
X173038747Y-101434402D01*
X173055223Y-101416223D01*
X173073402Y-101399747D01*
X173093107Y-101385133D01*
X173114151Y-101372520D01*
X173136329Y-101362030D01*
X173159429Y-101353765D01*
X173183227Y-101347804D01*
X173207496Y-101344204D01*
X173232000Y-101343000D01*
X173907000Y-101343000D01*
X173931504Y-101344204D01*
G37*
G04 #@! TD.AperFunction*
G04 #@! TA.AperFunction,SMDPad,CuDef*
G36*
X171818504Y-98844204D02*
G01*
X171842773Y-98847804D01*
X171866571Y-98853765D01*
X171889671Y-98862030D01*
X171911849Y-98872520D01*
X171932893Y-98885133D01*
X171952598Y-98899747D01*
X171970777Y-98916223D01*
X171987253Y-98934402D01*
X172001867Y-98954107D01*
X172014480Y-98975151D01*
X172024970Y-98997329D01*
X172033235Y-99020429D01*
X172039196Y-99044227D01*
X172042796Y-99068496D01*
X172044000Y-99093000D01*
X172044000Y-100043000D01*
X172042796Y-100067504D01*
X172039196Y-100091773D01*
X172033235Y-100115571D01*
X172024970Y-100138671D01*
X172014480Y-100160849D01*
X172001867Y-100181893D01*
X171987253Y-100201598D01*
X171970777Y-100219777D01*
X171952598Y-100236253D01*
X171932893Y-100250867D01*
X171911849Y-100263480D01*
X171889671Y-100273970D01*
X171866571Y-100282235D01*
X171842773Y-100288196D01*
X171818504Y-100291796D01*
X171794000Y-100293000D01*
X171119000Y-100293000D01*
X171094496Y-100291796D01*
X171070227Y-100288196D01*
X171046429Y-100282235D01*
X171023329Y-100273970D01*
X171001151Y-100263480D01*
X170980107Y-100250867D01*
X170960402Y-100236253D01*
X170942223Y-100219777D01*
X170925747Y-100201598D01*
X170911133Y-100181893D01*
X170898520Y-100160849D01*
X170888030Y-100138671D01*
X170879765Y-100115571D01*
X170873804Y-100091773D01*
X170870204Y-100067504D01*
X170869000Y-100043000D01*
X170869000Y-99093000D01*
X170870204Y-99068496D01*
X170873804Y-99044227D01*
X170879765Y-99020429D01*
X170888030Y-98997329D01*
X170898520Y-98975151D01*
X170911133Y-98954107D01*
X170925747Y-98934402D01*
X170942223Y-98916223D01*
X170960402Y-98899747D01*
X170980107Y-98885133D01*
X171001151Y-98872520D01*
X171023329Y-98862030D01*
X171046429Y-98853765D01*
X171070227Y-98847804D01*
X171094496Y-98844204D01*
X171119000Y-98843000D01*
X171794000Y-98843000D01*
X171818504Y-98844204D01*
G37*
G04 #@! TD.AperFunction*
G04 #@! TA.AperFunction,SMDPad,CuDef*
G36*
X173893504Y-98844204D02*
G01*
X173917773Y-98847804D01*
X173941571Y-98853765D01*
X173964671Y-98862030D01*
X173986849Y-98872520D01*
X174007893Y-98885133D01*
X174027598Y-98899747D01*
X174045777Y-98916223D01*
X174062253Y-98934402D01*
X174076867Y-98954107D01*
X174089480Y-98975151D01*
X174099970Y-98997329D01*
X174108235Y-99020429D01*
X174114196Y-99044227D01*
X174117796Y-99068496D01*
X174119000Y-99093000D01*
X174119000Y-100043000D01*
X174117796Y-100067504D01*
X174114196Y-100091773D01*
X174108235Y-100115571D01*
X174099970Y-100138671D01*
X174089480Y-100160849D01*
X174076867Y-100181893D01*
X174062253Y-100201598D01*
X174045777Y-100219777D01*
X174027598Y-100236253D01*
X174007893Y-100250867D01*
X173986849Y-100263480D01*
X173964671Y-100273970D01*
X173941571Y-100282235D01*
X173917773Y-100288196D01*
X173893504Y-100291796D01*
X173869000Y-100293000D01*
X173194000Y-100293000D01*
X173169496Y-100291796D01*
X173145227Y-100288196D01*
X173121429Y-100282235D01*
X173098329Y-100273970D01*
X173076151Y-100263480D01*
X173055107Y-100250867D01*
X173035402Y-100236253D01*
X173017223Y-100219777D01*
X173000747Y-100201598D01*
X172986133Y-100181893D01*
X172973520Y-100160849D01*
X172963030Y-100138671D01*
X172954765Y-100115571D01*
X172948804Y-100091773D01*
X172945204Y-100067504D01*
X172944000Y-100043000D01*
X172944000Y-99093000D01*
X172945204Y-99068496D01*
X172948804Y-99044227D01*
X172954765Y-99020429D01*
X172963030Y-98997329D01*
X172973520Y-98975151D01*
X172986133Y-98954107D01*
X173000747Y-98934402D01*
X173017223Y-98916223D01*
X173035402Y-98899747D01*
X173055107Y-98885133D01*
X173076151Y-98872520D01*
X173098329Y-98862030D01*
X173121429Y-98853765D01*
X173145227Y-98847804D01*
X173169496Y-98844204D01*
X173194000Y-98843000D01*
X173869000Y-98843000D01*
X173893504Y-98844204D01*
G37*
G04 #@! TD.AperFunction*
G04 #@! TA.AperFunction,SMDPad,CuDef*
G36*
X173356504Y-112344204D02*
G01*
X173380773Y-112347804D01*
X173404571Y-112353765D01*
X173427671Y-112362030D01*
X173449849Y-112372520D01*
X173470893Y-112385133D01*
X173490598Y-112399747D01*
X173508777Y-112416223D01*
X173525253Y-112434402D01*
X173539867Y-112454107D01*
X173552480Y-112475151D01*
X173562970Y-112497329D01*
X173571235Y-112520429D01*
X173577196Y-112544227D01*
X173580796Y-112568496D01*
X173582000Y-112593000D01*
X173582000Y-113543000D01*
X173580796Y-113567504D01*
X173577196Y-113591773D01*
X173571235Y-113615571D01*
X173562970Y-113638671D01*
X173552480Y-113660849D01*
X173539867Y-113681893D01*
X173525253Y-113701598D01*
X173508777Y-113719777D01*
X173490598Y-113736253D01*
X173470893Y-113750867D01*
X173449849Y-113763480D01*
X173427671Y-113773970D01*
X173404571Y-113782235D01*
X173380773Y-113788196D01*
X173356504Y-113791796D01*
X173332000Y-113793000D01*
X172657000Y-113793000D01*
X172632496Y-113791796D01*
X172608227Y-113788196D01*
X172584429Y-113782235D01*
X172561329Y-113773970D01*
X172539151Y-113763480D01*
X172518107Y-113750867D01*
X172498402Y-113736253D01*
X172480223Y-113719777D01*
X172463747Y-113701598D01*
X172449133Y-113681893D01*
X172436520Y-113660849D01*
X172426030Y-113638671D01*
X172417765Y-113615571D01*
X172411804Y-113591773D01*
X172408204Y-113567504D01*
X172407000Y-113543000D01*
X172407000Y-112593000D01*
X172408204Y-112568496D01*
X172411804Y-112544227D01*
X172417765Y-112520429D01*
X172426030Y-112497329D01*
X172436520Y-112475151D01*
X172449133Y-112454107D01*
X172463747Y-112434402D01*
X172480223Y-112416223D01*
X172498402Y-112399747D01*
X172518107Y-112385133D01*
X172539151Y-112372520D01*
X172561329Y-112362030D01*
X172584429Y-112353765D01*
X172608227Y-112347804D01*
X172632496Y-112344204D01*
X172657000Y-112343000D01*
X173332000Y-112343000D01*
X173356504Y-112344204D01*
G37*
G04 #@! TD.AperFunction*
G04 #@! TA.AperFunction,SMDPad,CuDef*
G36*
X175431504Y-112344204D02*
G01*
X175455773Y-112347804D01*
X175479571Y-112353765D01*
X175502671Y-112362030D01*
X175524849Y-112372520D01*
X175545893Y-112385133D01*
X175565598Y-112399747D01*
X175583777Y-112416223D01*
X175600253Y-112434402D01*
X175614867Y-112454107D01*
X175627480Y-112475151D01*
X175637970Y-112497329D01*
X175646235Y-112520429D01*
X175652196Y-112544227D01*
X175655796Y-112568496D01*
X175657000Y-112593000D01*
X175657000Y-113543000D01*
X175655796Y-113567504D01*
X175652196Y-113591773D01*
X175646235Y-113615571D01*
X175637970Y-113638671D01*
X175627480Y-113660849D01*
X175614867Y-113681893D01*
X175600253Y-113701598D01*
X175583777Y-113719777D01*
X175565598Y-113736253D01*
X175545893Y-113750867D01*
X175524849Y-113763480D01*
X175502671Y-113773970D01*
X175479571Y-113782235D01*
X175455773Y-113788196D01*
X175431504Y-113791796D01*
X175407000Y-113793000D01*
X174732000Y-113793000D01*
X174707496Y-113791796D01*
X174683227Y-113788196D01*
X174659429Y-113782235D01*
X174636329Y-113773970D01*
X174614151Y-113763480D01*
X174593107Y-113750867D01*
X174573402Y-113736253D01*
X174555223Y-113719777D01*
X174538747Y-113701598D01*
X174524133Y-113681893D01*
X174511520Y-113660849D01*
X174501030Y-113638671D01*
X174492765Y-113615571D01*
X174486804Y-113591773D01*
X174483204Y-113567504D01*
X174482000Y-113543000D01*
X174482000Y-112593000D01*
X174483204Y-112568496D01*
X174486804Y-112544227D01*
X174492765Y-112520429D01*
X174501030Y-112497329D01*
X174511520Y-112475151D01*
X174524133Y-112454107D01*
X174538747Y-112434402D01*
X174555223Y-112416223D01*
X174573402Y-112399747D01*
X174593107Y-112385133D01*
X174614151Y-112372520D01*
X174636329Y-112362030D01*
X174659429Y-112353765D01*
X174683227Y-112347804D01*
X174707496Y-112344204D01*
X174732000Y-112343000D01*
X175407000Y-112343000D01*
X175431504Y-112344204D01*
G37*
G04 #@! TD.AperFunction*
G04 #@! TA.AperFunction,SMDPad,CuDef*
G36*
X162856504Y-98844204D02*
G01*
X162880773Y-98847804D01*
X162904571Y-98853765D01*
X162927671Y-98862030D01*
X162949849Y-98872520D01*
X162970893Y-98885133D01*
X162990598Y-98899747D01*
X163008777Y-98916223D01*
X163025253Y-98934402D01*
X163039867Y-98954107D01*
X163052480Y-98975151D01*
X163062970Y-98997329D01*
X163071235Y-99020429D01*
X163077196Y-99044227D01*
X163080796Y-99068496D01*
X163082000Y-99093000D01*
X163082000Y-100043000D01*
X163080796Y-100067504D01*
X163077196Y-100091773D01*
X163071235Y-100115571D01*
X163062970Y-100138671D01*
X163052480Y-100160849D01*
X163039867Y-100181893D01*
X163025253Y-100201598D01*
X163008777Y-100219777D01*
X162990598Y-100236253D01*
X162970893Y-100250867D01*
X162949849Y-100263480D01*
X162927671Y-100273970D01*
X162904571Y-100282235D01*
X162880773Y-100288196D01*
X162856504Y-100291796D01*
X162832000Y-100293000D01*
X162157000Y-100293000D01*
X162132496Y-100291796D01*
X162108227Y-100288196D01*
X162084429Y-100282235D01*
X162061329Y-100273970D01*
X162039151Y-100263480D01*
X162018107Y-100250867D01*
X161998402Y-100236253D01*
X161980223Y-100219777D01*
X161963747Y-100201598D01*
X161949133Y-100181893D01*
X161936520Y-100160849D01*
X161926030Y-100138671D01*
X161917765Y-100115571D01*
X161911804Y-100091773D01*
X161908204Y-100067504D01*
X161907000Y-100043000D01*
X161907000Y-99093000D01*
X161908204Y-99068496D01*
X161911804Y-99044227D01*
X161917765Y-99020429D01*
X161926030Y-98997329D01*
X161936520Y-98975151D01*
X161949133Y-98954107D01*
X161963747Y-98934402D01*
X161980223Y-98916223D01*
X161998402Y-98899747D01*
X162018107Y-98885133D01*
X162039151Y-98872520D01*
X162061329Y-98862030D01*
X162084429Y-98853765D01*
X162108227Y-98847804D01*
X162132496Y-98844204D01*
X162157000Y-98843000D01*
X162832000Y-98843000D01*
X162856504Y-98844204D01*
G37*
G04 #@! TD.AperFunction*
G04 #@! TA.AperFunction,SMDPad,CuDef*
G36*
X164931504Y-98844204D02*
G01*
X164955773Y-98847804D01*
X164979571Y-98853765D01*
X165002671Y-98862030D01*
X165024849Y-98872520D01*
X165045893Y-98885133D01*
X165065598Y-98899747D01*
X165083777Y-98916223D01*
X165100253Y-98934402D01*
X165114867Y-98954107D01*
X165127480Y-98975151D01*
X165137970Y-98997329D01*
X165146235Y-99020429D01*
X165152196Y-99044227D01*
X165155796Y-99068496D01*
X165157000Y-99093000D01*
X165157000Y-100043000D01*
X165155796Y-100067504D01*
X165152196Y-100091773D01*
X165146235Y-100115571D01*
X165137970Y-100138671D01*
X165127480Y-100160849D01*
X165114867Y-100181893D01*
X165100253Y-100201598D01*
X165083777Y-100219777D01*
X165065598Y-100236253D01*
X165045893Y-100250867D01*
X165024849Y-100263480D01*
X165002671Y-100273970D01*
X164979571Y-100282235D01*
X164955773Y-100288196D01*
X164931504Y-100291796D01*
X164907000Y-100293000D01*
X164232000Y-100293000D01*
X164207496Y-100291796D01*
X164183227Y-100288196D01*
X164159429Y-100282235D01*
X164136329Y-100273970D01*
X164114151Y-100263480D01*
X164093107Y-100250867D01*
X164073402Y-100236253D01*
X164055223Y-100219777D01*
X164038747Y-100201598D01*
X164024133Y-100181893D01*
X164011520Y-100160849D01*
X164001030Y-100138671D01*
X163992765Y-100115571D01*
X163986804Y-100091773D01*
X163983204Y-100067504D01*
X163982000Y-100043000D01*
X163982000Y-99093000D01*
X163983204Y-99068496D01*
X163986804Y-99044227D01*
X163992765Y-99020429D01*
X164001030Y-98997329D01*
X164011520Y-98975151D01*
X164024133Y-98954107D01*
X164038747Y-98934402D01*
X164055223Y-98916223D01*
X164073402Y-98899747D01*
X164093107Y-98885133D01*
X164114151Y-98872520D01*
X164136329Y-98862030D01*
X164159429Y-98853765D01*
X164183227Y-98847804D01*
X164207496Y-98844204D01*
X164232000Y-98843000D01*
X164907000Y-98843000D01*
X164931504Y-98844204D01*
G37*
G04 #@! TD.AperFunction*
D25*
X143867400Y-106968000D03*
X140131700Y-105768000D03*
X133697900Y-99437700D03*
X152638300Y-110251000D03*
X152615900Y-108385700D03*
X119382000Y-101218000D03*
X119382000Y-105218000D03*
X119382000Y-111218000D03*
X121032000Y-110568000D03*
X121032000Y-104568000D03*
X123032000Y-105568000D03*
X123032000Y-109568000D03*
X124032000Y-111568000D03*
X124032000Y-113568000D03*
X128032000Y-113568000D03*
X132032000Y-113568000D03*
X127032000Y-111568000D03*
X130032000Y-111568000D03*
X125032000Y-107568000D03*
X127032000Y-108568000D03*
X122032000Y-102568000D03*
X137532000Y-103068000D03*
X137532000Y-101068000D03*
X136532000Y-102068000D03*
X145532000Y-104568000D03*
X119382000Y-108718000D03*
X121032000Y-107068000D03*
X137081600Y-111018400D03*
X135782000Y-111818000D03*
X135782000Y-110068000D03*
X149532000Y-108068000D03*
X149532000Y-106568000D03*
X151532000Y-106568000D03*
X151532000Y-108068000D03*
X161532000Y-108068000D03*
X163532000Y-106494200D03*
X165532000Y-104568000D03*
X167032000Y-103068000D03*
X161532000Y-102068000D03*
X163282000Y-101318000D03*
X160782000Y-100068000D03*
X159532000Y-99068000D03*
X158532000Y-100068000D03*
X157532000Y-99068000D03*
X150782000Y-102818000D03*
X151032000Y-100568000D03*
X151032000Y-98818000D03*
X147032800Y-110626900D03*
X153632700Y-118508300D03*
X147411800Y-100453900D03*
X135272800Y-106893000D03*
X135264800Y-104668000D03*
X139050000Y-106619500D03*
X141995000Y-98716700D03*
X152559200Y-111811300D03*
X165358400Y-101480500D03*
D26*
X145632000Y-106968000D02*
X143867400Y-106968000D01*
X145632000Y-106968000D02*
X146667000Y-106968000D01*
X146667000Y-106968000D02*
X146882000Y-107183000D01*
X146882000Y-107183000D02*
X146882000Y-108568000D01*
X140131700Y-105768000D02*
X135132000Y-105768000D01*
X134032000Y-105768000D02*
X135132000Y-105768000D01*
X145632000Y-108568000D02*
X146882000Y-108568000D01*
X157994000Y-118068000D02*
X157994500Y-118068000D01*
D27*
X157994000Y-118068000D02*
X155532000Y-118068000D01*
D26*
X172513000Y-113318000D02*
X172744500Y-113318000D01*
X172744500Y-113318000D02*
X172994500Y-113068000D01*
D27*
X172513000Y-113318000D02*
X172994000Y-113068000D01*
X172032000Y-113568000D02*
X172513000Y-113318000D01*
X154532000Y-120068000D02*
X155532000Y-119068000D01*
X155532000Y-119068000D02*
X155532000Y-118068000D01*
X148532000Y-120068000D02*
X154532000Y-120068000D01*
X154532000Y-120068000D02*
X170032000Y-120068000D01*
X170032000Y-120068000D02*
X172032000Y-118068000D01*
X172032000Y-118068000D02*
X172032000Y-113568000D01*
X147532000Y-118068500D02*
X147532000Y-119068000D01*
X147532000Y-119068000D02*
X148532000Y-120068000D01*
X147532000Y-118068000D02*
X147532000Y-118068500D01*
X155532000Y-118068000D02*
X155532000Y-116568000D01*
D26*
X155532000Y-109618000D02*
X155532000Y-108018000D01*
X155532000Y-108018000D02*
X155282000Y-107768000D01*
X155282000Y-107768000D02*
X154032000Y-107768000D01*
X155532000Y-110068000D02*
X155532000Y-109618000D01*
X155532000Y-110068000D02*
X155532000Y-116568000D01*
X155532000Y-109618000D02*
X155532000Y-110068000D01*
D27*
X170457000Y-109848000D02*
X170457000Y-112048000D01*
X170457000Y-112048000D02*
X171477000Y-113068000D01*
X171477000Y-113068000D02*
X172032000Y-113568000D01*
D26*
X154032000Y-109368000D02*
X155282000Y-109368000D01*
X155282000Y-109368000D02*
X155532000Y-109618000D01*
X146882000Y-108568000D02*
X147682000Y-109368000D01*
X147682000Y-109368000D02*
X154032000Y-109368000D01*
D27*
X141272000Y-93528000D02*
X140992000Y-93528000D01*
D28*
X126032000Y-93528000D02*
X127492000Y-92068000D01*
X139812000Y-92068000D02*
X141272000Y-93528000D01*
X127492000Y-92068000D02*
X139812000Y-92068000D01*
D26*
X132932000Y-103568000D02*
X132932000Y-100418000D01*
X132932000Y-110618000D02*
X132932000Y-103568000D01*
X132932000Y-99468000D02*
X130832000Y-99468000D01*
X133697900Y-99437700D02*
X133667600Y-99468000D01*
X133667600Y-99468000D02*
X132932000Y-99468000D01*
X132932000Y-100418000D02*
X132932000Y-99468000D01*
X134032000Y-100418000D02*
X132932000Y-100418000D01*
X129732000Y-99468000D02*
X130832000Y-99468000D01*
X164506500Y-106494200D02*
X165580300Y-107568000D01*
X165580300Y-107568000D02*
X173857000Y-107568000D01*
X163532000Y-106494200D02*
X164506500Y-106494200D01*
X141832000Y-110068000D02*
X142742000Y-110068000D01*
X142742000Y-110068000D02*
X143442000Y-109368000D01*
X143442000Y-109368000D02*
X145632000Y-109368000D01*
X135132000Y-110618000D02*
X135532400Y-111018400D01*
X135532400Y-111018400D02*
X137081600Y-111018400D01*
X140881600Y-111018400D02*
X141832000Y-110068000D01*
X177857000Y-107568000D02*
X173857000Y-107568000D01*
X163532000Y-109631700D02*
X164462900Y-110562600D01*
X164462900Y-110562600D02*
X164462900Y-114046600D01*
X164462900Y-114046600D02*
X160441500Y-118068000D01*
X160441500Y-118068000D02*
X160069500Y-118068000D01*
D27*
X163532000Y-109631700D02*
X163532000Y-111705500D01*
X163532000Y-106494200D02*
X163532000Y-106494200D01*
D26*
X134032000Y-110618000D02*
X132932000Y-110618000D01*
X134032000Y-103568000D02*
X132932000Y-103568000D01*
X119382000Y-99468000D02*
X121282000Y-99468000D01*
X129732000Y-99468000D02*
X125682000Y-99468000D01*
X125682000Y-99468000D02*
X124715100Y-98501100D01*
X124715100Y-98501100D02*
X122248900Y-98501100D01*
X122248900Y-98501100D02*
X121282000Y-99468000D01*
X118932000Y-112968000D02*
X118932000Y-111818000D01*
X118932000Y-111818000D02*
X119382000Y-111368000D01*
X119382000Y-111368000D02*
X119382000Y-111218000D01*
X134032000Y-110618000D02*
X135132000Y-110618000D01*
X152782000Y-110168000D02*
X152721300Y-110168000D01*
X152721300Y-110168000D02*
X152638300Y-110251000D01*
X154032000Y-110168000D02*
X152782000Y-110168000D01*
X152782000Y-108568000D02*
X152782000Y-108551800D01*
X152782000Y-108551800D02*
X152615900Y-108385700D01*
X154032000Y-108568000D02*
X152782000Y-108568000D01*
X151432000Y-93528000D02*
X153972000Y-93528000D01*
X148892000Y-93528000D02*
X151432000Y-93528000D01*
X151432000Y-96068000D02*
X153972000Y-96068000D01*
X148892000Y-96068000D02*
X151432000Y-96068000D01*
X146352000Y-93528000D02*
X148892000Y-93528000D01*
D27*
X163532000Y-105430500D02*
X163532000Y-106494200D01*
D26*
X173570000Y-102068000D02*
X173569500Y-102068000D01*
D27*
X173570000Y-102068000D02*
X177057000Y-102068000D01*
X177057000Y-102068000D02*
X177857000Y-102868000D01*
X175282000Y-99568000D02*
X173532000Y-99568000D01*
X173532000Y-99568000D02*
X173532000Y-96828000D01*
X173532000Y-96828000D02*
X174292000Y-96068000D01*
X177857000Y-102868000D02*
X177857000Y-100393000D01*
X177857000Y-100393000D02*
X177032000Y-99568000D01*
X177032000Y-99568000D02*
X175282000Y-99568000D01*
D26*
X175282000Y-99568000D02*
X173531500Y-99568000D01*
X175070000Y-113068000D02*
X175069500Y-113068000D01*
D27*
X175070000Y-113068000D02*
X177057000Y-113068000D01*
X177057000Y-113068000D02*
X177857000Y-112268000D01*
X177857000Y-112268000D02*
X177857000Y-107568000D01*
X163532000Y-105430000D02*
X163532000Y-105430500D01*
X163532000Y-111705500D02*
X163532000Y-111706000D01*
X174292000Y-96068000D02*
X174292000Y-93528000D01*
X177857000Y-102868000D02*
X177857000Y-107568000D01*
D26*
X163327600Y-101978300D02*
X164506500Y-103157200D01*
X162816300Y-101978300D02*
X163327600Y-101978300D01*
X156532000Y-101368000D02*
X156532000Y-101068000D01*
X155532000Y-101368000D02*
X156532000Y-101368000D01*
X160906000Y-100068000D02*
X162816300Y-101978300D01*
X156532000Y-101068000D02*
X157532000Y-100068000D01*
X164506500Y-103157200D02*
X164506500Y-106494200D01*
X157532000Y-100068000D02*
X158532000Y-100068000D01*
D28*
X153972000Y-93528000D02*
X153972000Y-92128000D01*
X173442001Y-92678001D02*
X174292000Y-93528000D01*
X172841999Y-92077999D02*
X173442001Y-92678001D01*
X154022001Y-92077999D02*
X172841999Y-92077999D01*
X153972000Y-92128000D02*
X154022001Y-92077999D01*
D27*
X153972000Y-93528000D02*
X146352000Y-93528000D01*
X146352000Y-96068000D02*
X153972000Y-96068000D01*
X153972000Y-93528000D02*
X153972000Y-96068000D01*
X151432000Y-96068000D02*
X151432000Y-93528000D01*
X148892000Y-96068000D02*
X148892000Y-93528000D01*
D26*
X119382000Y-101218000D02*
X119382000Y-99468000D01*
X119382000Y-103218000D02*
X119382000Y-101218000D01*
X119382000Y-105218000D02*
X119382000Y-103218000D01*
X119382000Y-107218000D02*
X119382000Y-105218000D01*
X119382000Y-109218000D02*
X119382000Y-108718000D01*
X119382000Y-111218000D02*
X119382000Y-109218000D01*
X119382000Y-108718000D02*
X119382000Y-107218000D01*
X137081600Y-111018400D02*
X140881600Y-111018400D01*
D27*
X163532000Y-106494200D02*
X163532000Y-109631700D01*
D26*
X160782000Y-100068000D02*
X160906000Y-100068000D01*
X158532000Y-100068000D02*
X160782000Y-100068000D01*
X150232000Y-111918000D02*
X148940900Y-110626900D01*
X148940900Y-110626900D02*
X147032800Y-110626900D01*
X150232000Y-113168000D02*
X150232000Y-111918000D01*
X162494500Y-99568000D02*
X160337600Y-97411100D01*
X160337600Y-97411100D02*
X132455100Y-97411100D01*
X132455100Y-97411100D02*
X131112000Y-96068000D01*
X150232000Y-113168000D02*
X150232000Y-114418000D01*
X147532000Y-116243500D02*
X148406500Y-116243500D01*
X148406500Y-116243500D02*
X150232000Y-114418000D01*
X164132000Y-96068000D02*
X164132000Y-97418000D01*
X164569500Y-99568000D02*
X164569500Y-97855500D01*
X164569500Y-97855500D02*
X164132000Y-97418000D01*
D27*
X170975500Y-102587000D02*
X171494000Y-102068000D01*
X170457000Y-103106000D02*
X170975500Y-102587000D01*
D26*
X170975500Y-102587000D02*
X171494500Y-102068000D01*
X171457000Y-99562000D02*
X171456500Y-99562500D01*
X171456500Y-99562500D02*
X171456500Y-99568000D01*
D27*
X171457000Y-99562000D02*
X171457000Y-96363000D01*
X171457000Y-96363000D02*
X171752000Y-96068000D01*
X170457000Y-103106000D02*
X171457000Y-102106000D01*
X171457000Y-102106000D02*
X171457000Y-99562000D01*
X171752000Y-93528000D02*
X169212000Y-93528000D01*
X171752000Y-96068000D02*
X171752000Y-93528000D01*
X170457000Y-105268000D02*
X170457000Y-103106000D01*
D26*
X163532000Y-113430000D02*
X163532000Y-113430500D01*
X159032000Y-113318000D02*
X163420000Y-113318000D01*
X163420000Y-113318000D02*
X163532000Y-113430000D01*
X159032000Y-113318000D02*
X159032000Y-110068000D01*
X159032000Y-110068000D02*
X155932000Y-106968000D01*
X155932000Y-106968000D02*
X154032000Y-106968000D01*
X163532000Y-103706000D02*
X163532000Y-103705500D01*
X159032000Y-103818000D02*
X163420000Y-103818000D01*
X163420000Y-103818000D02*
X163532000Y-103706000D01*
X154032000Y-106168000D02*
X154032000Y-105393000D01*
X154032000Y-105393000D02*
X155607000Y-103818000D01*
X155607000Y-103818000D02*
X159032000Y-103818000D01*
X140232000Y-110068000D02*
X140232000Y-107092500D01*
X140232000Y-107092500D02*
X140207500Y-107068000D01*
X155532000Y-99768000D02*
X152556500Y-99768000D01*
X152556500Y-99768000D02*
X152532000Y-99743500D01*
X153632700Y-118508300D02*
X152559800Y-118508300D01*
X152559800Y-118508300D02*
X151532000Y-117480500D01*
X166672000Y-96068000D02*
X166672000Y-99295500D01*
X166672000Y-99295500D02*
X167032000Y-99655500D01*
X146532000Y-99655500D02*
X146613400Y-99655500D01*
X146613400Y-99655500D02*
X147411800Y-100453900D01*
X135272800Y-106893000D02*
X135157000Y-106893000D01*
X135157000Y-106893000D02*
X135132000Y-106868000D01*
X134032000Y-106868000D02*
X135132000Y-106868000D01*
X145632000Y-106168000D02*
X144382000Y-106168000D01*
X142032500Y-106458700D02*
X142032500Y-107068000D01*
X135264800Y-104668000D02*
X140241800Y-104668000D01*
X140241800Y-104668000D02*
X142032500Y-106458700D01*
X144382000Y-106168000D02*
X144323100Y-106109100D01*
X144323100Y-106109100D02*
X142382100Y-106109100D01*
X142382100Y-106109100D02*
X142032500Y-106458700D01*
X135132000Y-104668000D02*
X135264800Y-104668000D01*
X134032000Y-104668000D02*
X135132000Y-104668000D01*
X147032000Y-113168000D02*
X134441800Y-113168000D01*
X134441800Y-113168000D02*
X123532000Y-102258200D01*
X123532000Y-102258200D02*
X123532000Y-99468000D01*
X149532000Y-99655500D02*
X148593200Y-98716700D01*
X148593200Y-98716700D02*
X141995000Y-98716700D01*
X139050000Y-106619500D02*
X137701500Y-107968000D01*
X137701500Y-107968000D02*
X134032000Y-107968000D01*
X148632000Y-104768000D02*
X148632000Y-102380500D01*
X148632000Y-102380500D02*
X149532000Y-101480500D01*
X146532000Y-101480500D02*
X147832000Y-102780500D01*
X147832000Y-102780500D02*
X147832000Y-104768000D01*
X151032000Y-111918000D02*
X152452500Y-111918000D01*
X152452500Y-111918000D02*
X152559200Y-111811300D01*
X151032000Y-113168000D02*
X151032000Y-111918000D01*
X167032000Y-101480500D02*
X165358400Y-101480500D01*
X151532000Y-115655500D02*
X151832000Y-115355500D01*
X151832000Y-115355500D02*
X151832000Y-113168000D01*
X152532000Y-101568500D02*
X152632000Y-101668500D01*
X152632000Y-101668500D02*
X152632000Y-104768000D01*
X135132000Y-99655500D02*
X143532000Y-99655500D01*
X135132000Y-99655500D02*
X133588000Y-98111500D01*
X133588000Y-98111500D02*
X128075500Y-98111500D01*
X128075500Y-98111500D02*
X126032000Y-96068000D01*
X135132000Y-99655500D02*
X135132000Y-102468000D01*
X134032000Y-102468000D02*
X135132000Y-102468000D01*
X147032000Y-103518000D02*
X144994500Y-101480500D01*
X144994500Y-101480500D02*
X143532000Y-101480500D01*
X147032000Y-104768000D02*
X147032000Y-103518000D01*
D29*
G36*
X127418970Y-98706549D02*
G01*
X127446683Y-98740317D01*
X127480451Y-98768030D01*
X127480453Y-98768032D01*
X127521162Y-98801441D01*
X127581441Y-98850911D01*
X127735187Y-98933089D01*
X127902010Y-98983695D01*
X128032023Y-98996500D01*
X128032033Y-98996500D01*
X128075499Y-99000781D01*
X128118965Y-98996500D01*
X128494337Y-98996500D01*
X128497000Y-99182250D01*
X128655750Y-99341000D01*
X129605000Y-99341000D01*
X129605000Y-99321000D01*
X129859000Y-99321000D01*
X129859000Y-99341000D01*
X130808250Y-99341000D01*
X130967000Y-99182250D01*
X130969663Y-98996500D01*
X133221422Y-98996500D01*
X133657050Y-99432128D01*
X133432000Y-99429928D01*
X133307518Y-99442188D01*
X133187820Y-99478498D01*
X133077506Y-99537463D01*
X132980815Y-99616815D01*
X132901463Y-99713506D01*
X132842498Y-99823820D01*
X132806188Y-99943518D01*
X132793928Y-100068000D01*
X132797000Y-100132250D01*
X132955750Y-100291000D01*
X133905000Y-100291000D01*
X133905000Y-100271000D01*
X134159000Y-100271000D01*
X134159000Y-100291000D01*
X134179000Y-100291000D01*
X134179000Y-100379928D01*
X133432000Y-100379928D01*
X133307518Y-100392188D01*
X133187820Y-100428498D01*
X133077506Y-100487463D01*
X133007397Y-100545000D01*
X132955750Y-100545000D01*
X132797000Y-100703750D01*
X132793928Y-100768000D01*
X132806188Y-100892482D01*
X132806345Y-100893000D01*
X132806188Y-100893518D01*
X132793928Y-101018000D01*
X132793928Y-101718000D01*
X132806188Y-101842482D01*
X132829096Y-101918000D01*
X132806188Y-101993518D01*
X132793928Y-102118000D01*
X132793928Y-102818000D01*
X132806188Y-102942482D01*
X132829096Y-103018000D01*
X132806188Y-103093518D01*
X132793928Y-103218000D01*
X132797000Y-103282250D01*
X132955750Y-103441000D01*
X133298248Y-103441000D01*
X133307518Y-103443812D01*
X133432000Y-103456072D01*
X134632000Y-103456072D01*
X134756482Y-103443812D01*
X134765752Y-103441000D01*
X135108250Y-103441000D01*
X135198519Y-103350731D01*
X135236651Y-103346975D01*
X135305490Y-103340195D01*
X135472313Y-103289589D01*
X135626059Y-103207411D01*
X135760817Y-103096817D01*
X135871411Y-102962059D01*
X135953589Y-102808313D01*
X136004195Y-102641490D01*
X136010162Y-102580901D01*
X136017000Y-102511477D01*
X136021282Y-102468000D01*
X136017000Y-102424523D01*
X136017000Y-100540500D01*
X142694723Y-100540500D01*
X142728232Y-100568000D01*
X142675377Y-100611377D01*
X142566488Y-100744058D01*
X142485577Y-100895433D01*
X142435752Y-101059684D01*
X142418928Y-101230500D01*
X142418928Y-101730500D01*
X142435752Y-101901316D01*
X142485577Y-102065567D01*
X142566488Y-102216942D01*
X142675377Y-102349623D01*
X142808058Y-102458512D01*
X142959433Y-102539423D01*
X143123684Y-102589248D01*
X143294500Y-102606072D01*
X143769500Y-102606072D01*
X143940316Y-102589248D01*
X144104567Y-102539423D01*
X144255942Y-102458512D01*
X144369277Y-102365500D01*
X144627922Y-102365500D01*
X146136949Y-103874528D01*
X146131188Y-103893518D01*
X146118928Y-104018000D01*
X146118928Y-105254928D01*
X144882000Y-105254928D01*
X144757518Y-105267188D01*
X144705393Y-105283000D01*
X144648542Y-105283000D01*
X144496590Y-105236905D01*
X144366577Y-105224100D01*
X144366569Y-105224100D01*
X144323100Y-105219819D01*
X144279631Y-105224100D01*
X142425566Y-105224100D01*
X142382099Y-105219819D01*
X142338633Y-105224100D01*
X142338623Y-105224100D01*
X142208610Y-105236905D01*
X142096341Y-105270962D01*
X140898334Y-104072956D01*
X140870617Y-104039183D01*
X140735859Y-103928589D01*
X140582113Y-103846411D01*
X140415290Y-103795805D01*
X140285277Y-103783000D01*
X140285269Y-103783000D01*
X140241800Y-103778719D01*
X140198331Y-103783000D01*
X135803254Y-103783000D01*
X135755056Y-103750795D01*
X135566698Y-103672774D01*
X135366739Y-103633000D01*
X135162861Y-103633000D01*
X134962902Y-103672774D01*
X134909244Y-103695000D01*
X134765752Y-103695000D01*
X134756482Y-103692188D01*
X134632000Y-103679928D01*
X133432000Y-103679928D01*
X133307518Y-103692188D01*
X133298248Y-103695000D01*
X132955750Y-103695000D01*
X132797000Y-103853750D01*
X132793928Y-103918000D01*
X132806188Y-104042482D01*
X132829096Y-104118000D01*
X132806188Y-104193518D01*
X132793928Y-104318000D01*
X132793928Y-105018000D01*
X132806188Y-105142482D01*
X132829096Y-105218000D01*
X132806188Y-105293518D01*
X132793928Y-105418000D01*
X132793928Y-106118000D01*
X132806188Y-106242482D01*
X132829096Y-106318000D01*
X132806188Y-106393518D01*
X132793928Y-106518000D01*
X132793928Y-107218000D01*
X132806188Y-107342482D01*
X132829096Y-107418000D01*
X132806188Y-107493518D01*
X132793928Y-107618000D01*
X132793928Y-108318000D01*
X132806188Y-108442482D01*
X132829096Y-108518000D01*
X132806188Y-108593518D01*
X132793928Y-108718000D01*
X132793928Y-109418000D01*
X132806188Y-109542482D01*
X132842498Y-109662180D01*
X132899061Y-109768000D01*
X132842498Y-109873820D01*
X132806188Y-109993518D01*
X132793928Y-110118000D01*
X132796118Y-110270739D01*
X124417000Y-101891622D01*
X124417000Y-100377981D01*
X124462537Y-100322494D01*
X124521502Y-100212180D01*
X124557812Y-100092482D01*
X124570072Y-99968000D01*
X128493928Y-99968000D01*
X128506188Y-100092482D01*
X128542498Y-100212180D01*
X128601463Y-100322494D01*
X128680815Y-100419185D01*
X128777506Y-100498537D01*
X128887820Y-100557502D01*
X129007518Y-100593812D01*
X129132000Y-100606072D01*
X129446250Y-100603000D01*
X129605000Y-100444250D01*
X129605000Y-99595000D01*
X129859000Y-99595000D01*
X129859000Y-100444250D01*
X130017750Y-100603000D01*
X130332000Y-100606072D01*
X130456482Y-100593812D01*
X130576180Y-100557502D01*
X130686494Y-100498537D01*
X130783185Y-100419185D01*
X130862537Y-100322494D01*
X130921502Y-100212180D01*
X130957812Y-100092482D01*
X130970072Y-99968000D01*
X130967000Y-99753750D01*
X130808250Y-99595000D01*
X129859000Y-99595000D01*
X129605000Y-99595000D01*
X128655750Y-99595000D01*
X128497000Y-99753750D01*
X128493928Y-99968000D01*
X124570072Y-99968000D01*
X124570072Y-98968000D01*
X124557812Y-98843518D01*
X124521502Y-98723820D01*
X124462537Y-98613506D01*
X124383185Y-98516815D01*
X124286494Y-98437463D01*
X124176180Y-98378498D01*
X124056482Y-98342188D01*
X123932000Y-98329928D01*
X123132000Y-98329928D01*
X123007518Y-98342188D01*
X122887820Y-98378498D01*
X122777506Y-98437463D01*
X122680815Y-98516815D01*
X122601463Y-98613506D01*
X122542498Y-98723820D01*
X122506188Y-98843518D01*
X122493928Y-98968000D01*
X122493928Y-99968000D01*
X122506188Y-100092482D01*
X122542498Y-100212180D01*
X122601463Y-100322494D01*
X122647001Y-100377982D01*
X122647000Y-102214731D01*
X122642719Y-102258200D01*
X122647000Y-102301669D01*
X122647000Y-102301676D01*
X122656458Y-102397705D01*
X122659805Y-102431690D01*
X122662383Y-102440187D01*
X122710411Y-102598512D01*
X122792589Y-102752258D01*
X122903183Y-102887017D01*
X122936956Y-102914734D01*
X133785270Y-113763049D01*
X133812983Y-113796817D01*
X133846751Y-113824530D01*
X133846753Y-113824532D01*
X133892627Y-113862180D01*
X133947741Y-113907411D01*
X134101487Y-113989589D01*
X134268310Y-114040195D01*
X134398323Y-114053000D01*
X134398333Y-114053000D01*
X134441799Y-114057281D01*
X134485265Y-114053000D01*
X146134379Y-114053000D01*
X146167498Y-114162180D01*
X146226463Y-114272494D01*
X146305815Y-114369185D01*
X146393322Y-114441000D01*
X121852565Y-114441000D01*
X121349832Y-114341000D01*
X120714168Y-114341000D01*
X120211435Y-114441000D01*
X118242000Y-114441000D01*
X118242000Y-114254870D01*
X118646250Y-114253000D01*
X118805000Y-114094250D01*
X118805000Y-113095000D01*
X119059000Y-113095000D01*
X119059000Y-114094250D01*
X119217750Y-114253000D01*
X119882000Y-114256072D01*
X120006482Y-114243812D01*
X120126180Y-114207502D01*
X120236494Y-114148537D01*
X120333185Y-114069185D01*
X120412537Y-113972494D01*
X120471502Y-113862180D01*
X120507812Y-113742482D01*
X120520072Y-113618000D01*
X120517000Y-113253750D01*
X120358250Y-113095000D01*
X119059000Y-113095000D01*
X118805000Y-113095000D01*
X118785000Y-113095000D01*
X118785000Y-112841000D01*
X118805000Y-112841000D01*
X118805000Y-111841750D01*
X119059000Y-111841750D01*
X119059000Y-112841000D01*
X120358250Y-112841000D01*
X120517000Y-112682250D01*
X120520072Y-112318000D01*
X120507812Y-112193518D01*
X120471502Y-112073820D01*
X120412537Y-111963506D01*
X120333185Y-111866815D01*
X120236494Y-111787463D01*
X120126180Y-111728498D01*
X120006482Y-111692188D01*
X119882000Y-111679928D01*
X119217750Y-111683000D01*
X119059000Y-111841750D01*
X118805000Y-111841750D01*
X118646250Y-111683000D01*
X118242000Y-111681130D01*
X118242000Y-100605355D01*
X119096250Y-100603000D01*
X119255000Y-100444250D01*
X119255000Y-99595000D01*
X119509000Y-99595000D01*
X119509000Y-100444250D01*
X119667750Y-100603000D01*
X120782000Y-100606072D01*
X120906482Y-100593812D01*
X121026180Y-100557502D01*
X121136494Y-100498537D01*
X121233185Y-100419185D01*
X121312537Y-100322494D01*
X121371502Y-100212180D01*
X121407812Y-100092482D01*
X121420072Y-99968000D01*
X121417000Y-99753750D01*
X121258250Y-99595000D01*
X119509000Y-99595000D01*
X119255000Y-99595000D01*
X119235000Y-99595000D01*
X119235000Y-99341000D01*
X119255000Y-99341000D01*
X119255000Y-98491750D01*
X119509000Y-98491750D01*
X119509000Y-99341000D01*
X121258250Y-99341000D01*
X121417000Y-99182250D01*
X121420072Y-98968000D01*
X121407812Y-98843518D01*
X121371502Y-98723820D01*
X121312537Y-98613506D01*
X121233185Y-98516815D01*
X121136494Y-98437463D01*
X121026180Y-98378498D01*
X120906482Y-98342188D01*
X120782000Y-98329928D01*
X119667750Y-98333000D01*
X119509000Y-98491750D01*
X119255000Y-98491750D01*
X119096250Y-98333000D01*
X118242000Y-98330645D01*
X118242000Y-98195000D01*
X126907421Y-98195000D01*
X127418970Y-98706549D01*
G37*
X127418970Y-98706549D02*
X127446683Y-98740317D01*
X127480451Y-98768030D01*
X127480453Y-98768032D01*
X127521162Y-98801441D01*
X127581441Y-98850911D01*
X127735187Y-98933089D01*
X127902010Y-98983695D01*
X128032023Y-98996500D01*
X128032033Y-98996500D01*
X128075499Y-99000781D01*
X128118965Y-98996500D01*
X128494337Y-98996500D01*
X128497000Y-99182250D01*
X128655750Y-99341000D01*
X129605000Y-99341000D01*
X129605000Y-99321000D01*
X129859000Y-99321000D01*
X129859000Y-99341000D01*
X130808250Y-99341000D01*
X130967000Y-99182250D01*
X130969663Y-98996500D01*
X133221422Y-98996500D01*
X133657050Y-99432128D01*
X133432000Y-99429928D01*
X133307518Y-99442188D01*
X133187820Y-99478498D01*
X133077506Y-99537463D01*
X132980815Y-99616815D01*
X132901463Y-99713506D01*
X132842498Y-99823820D01*
X132806188Y-99943518D01*
X132793928Y-100068000D01*
X132797000Y-100132250D01*
X132955750Y-100291000D01*
X133905000Y-100291000D01*
X133905000Y-100271000D01*
X134159000Y-100271000D01*
X134159000Y-100291000D01*
X134179000Y-100291000D01*
X134179000Y-100379928D01*
X133432000Y-100379928D01*
X133307518Y-100392188D01*
X133187820Y-100428498D01*
X133077506Y-100487463D01*
X133007397Y-100545000D01*
X132955750Y-100545000D01*
X132797000Y-100703750D01*
X132793928Y-100768000D01*
X132806188Y-100892482D01*
X132806345Y-100893000D01*
X132806188Y-100893518D01*
X132793928Y-101018000D01*
X132793928Y-101718000D01*
X132806188Y-101842482D01*
X132829096Y-101918000D01*
X132806188Y-101993518D01*
X132793928Y-102118000D01*
X132793928Y-102818000D01*
X132806188Y-102942482D01*
X132829096Y-103018000D01*
X132806188Y-103093518D01*
X132793928Y-103218000D01*
X132797000Y-103282250D01*
X132955750Y-103441000D01*
X133298248Y-103441000D01*
X133307518Y-103443812D01*
X133432000Y-103456072D01*
X134632000Y-103456072D01*
X134756482Y-103443812D01*
X134765752Y-103441000D01*
X135108250Y-103441000D01*
X135198519Y-103350731D01*
X135236651Y-103346975D01*
X135305490Y-103340195D01*
X135472313Y-103289589D01*
X135626059Y-103207411D01*
X135760817Y-103096817D01*
X135871411Y-102962059D01*
X135953589Y-102808313D01*
X136004195Y-102641490D01*
X136010162Y-102580901D01*
X136017000Y-102511477D01*
X136021282Y-102468000D01*
X136017000Y-102424523D01*
X136017000Y-100540500D01*
X142694723Y-100540500D01*
X142728232Y-100568000D01*
X142675377Y-100611377D01*
X142566488Y-100744058D01*
X142485577Y-100895433D01*
X142435752Y-101059684D01*
X142418928Y-101230500D01*
X142418928Y-101730500D01*
X142435752Y-101901316D01*
X142485577Y-102065567D01*
X142566488Y-102216942D01*
X142675377Y-102349623D01*
X142808058Y-102458512D01*
X142959433Y-102539423D01*
X143123684Y-102589248D01*
X143294500Y-102606072D01*
X143769500Y-102606072D01*
X143940316Y-102589248D01*
X144104567Y-102539423D01*
X144255942Y-102458512D01*
X144369277Y-102365500D01*
X144627922Y-102365500D01*
X146136949Y-103874528D01*
X146131188Y-103893518D01*
X146118928Y-104018000D01*
X146118928Y-105254928D01*
X144882000Y-105254928D01*
X144757518Y-105267188D01*
X144705393Y-105283000D01*
X144648542Y-105283000D01*
X144496590Y-105236905D01*
X144366577Y-105224100D01*
X144366569Y-105224100D01*
X144323100Y-105219819D01*
X144279631Y-105224100D01*
X142425566Y-105224100D01*
X142382099Y-105219819D01*
X142338633Y-105224100D01*
X142338623Y-105224100D01*
X142208610Y-105236905D01*
X142096341Y-105270962D01*
X140898334Y-104072956D01*
X140870617Y-104039183D01*
X140735859Y-103928589D01*
X140582113Y-103846411D01*
X140415290Y-103795805D01*
X140285277Y-103783000D01*
X140285269Y-103783000D01*
X140241800Y-103778719D01*
X140198331Y-103783000D01*
X135803254Y-103783000D01*
X135755056Y-103750795D01*
X135566698Y-103672774D01*
X135366739Y-103633000D01*
X135162861Y-103633000D01*
X134962902Y-103672774D01*
X134909244Y-103695000D01*
X134765752Y-103695000D01*
X134756482Y-103692188D01*
X134632000Y-103679928D01*
X133432000Y-103679928D01*
X133307518Y-103692188D01*
X133298248Y-103695000D01*
X132955750Y-103695000D01*
X132797000Y-103853750D01*
X132793928Y-103918000D01*
X132806188Y-104042482D01*
X132829096Y-104118000D01*
X132806188Y-104193518D01*
X132793928Y-104318000D01*
X132793928Y-105018000D01*
X132806188Y-105142482D01*
X132829096Y-105218000D01*
X132806188Y-105293518D01*
X132793928Y-105418000D01*
X132793928Y-106118000D01*
X132806188Y-106242482D01*
X132829096Y-106318000D01*
X132806188Y-106393518D01*
X132793928Y-106518000D01*
X132793928Y-107218000D01*
X132806188Y-107342482D01*
X132829096Y-107418000D01*
X132806188Y-107493518D01*
X132793928Y-107618000D01*
X132793928Y-108318000D01*
X132806188Y-108442482D01*
X132829096Y-108518000D01*
X132806188Y-108593518D01*
X132793928Y-108718000D01*
X132793928Y-109418000D01*
X132806188Y-109542482D01*
X132842498Y-109662180D01*
X132899061Y-109768000D01*
X132842498Y-109873820D01*
X132806188Y-109993518D01*
X132793928Y-110118000D01*
X132796118Y-110270739D01*
X124417000Y-101891622D01*
X124417000Y-100377981D01*
X124462537Y-100322494D01*
X124521502Y-100212180D01*
X124557812Y-100092482D01*
X124570072Y-99968000D01*
X128493928Y-99968000D01*
X128506188Y-100092482D01*
X128542498Y-100212180D01*
X128601463Y-100322494D01*
X128680815Y-100419185D01*
X128777506Y-100498537D01*
X128887820Y-100557502D01*
X129007518Y-100593812D01*
X129132000Y-100606072D01*
X129446250Y-100603000D01*
X129605000Y-100444250D01*
X129605000Y-99595000D01*
X129859000Y-99595000D01*
X129859000Y-100444250D01*
X130017750Y-100603000D01*
X130332000Y-100606072D01*
X130456482Y-100593812D01*
X130576180Y-100557502D01*
X130686494Y-100498537D01*
X130783185Y-100419185D01*
X130862537Y-100322494D01*
X130921502Y-100212180D01*
X130957812Y-100092482D01*
X130970072Y-99968000D01*
X130967000Y-99753750D01*
X130808250Y-99595000D01*
X129859000Y-99595000D01*
X129605000Y-99595000D01*
X128655750Y-99595000D01*
X128497000Y-99753750D01*
X128493928Y-99968000D01*
X124570072Y-99968000D01*
X124570072Y-98968000D01*
X124557812Y-98843518D01*
X124521502Y-98723820D01*
X124462537Y-98613506D01*
X124383185Y-98516815D01*
X124286494Y-98437463D01*
X124176180Y-98378498D01*
X124056482Y-98342188D01*
X123932000Y-98329928D01*
X123132000Y-98329928D01*
X123007518Y-98342188D01*
X122887820Y-98378498D01*
X122777506Y-98437463D01*
X122680815Y-98516815D01*
X122601463Y-98613506D01*
X122542498Y-98723820D01*
X122506188Y-98843518D01*
X122493928Y-98968000D01*
X122493928Y-99968000D01*
X122506188Y-100092482D01*
X122542498Y-100212180D01*
X122601463Y-100322494D01*
X122647001Y-100377982D01*
X122647000Y-102214731D01*
X122642719Y-102258200D01*
X122647000Y-102301669D01*
X122647000Y-102301676D01*
X122656458Y-102397705D01*
X122659805Y-102431690D01*
X122662383Y-102440187D01*
X122710411Y-102598512D01*
X122792589Y-102752258D01*
X122903183Y-102887017D01*
X122936956Y-102914734D01*
X133785270Y-113763049D01*
X133812983Y-113796817D01*
X133846751Y-113824530D01*
X133846753Y-113824532D01*
X133892627Y-113862180D01*
X133947741Y-113907411D01*
X134101487Y-113989589D01*
X134268310Y-114040195D01*
X134398323Y-114053000D01*
X134398333Y-114053000D01*
X134441799Y-114057281D01*
X134485265Y-114053000D01*
X146134379Y-114053000D01*
X146167498Y-114162180D01*
X146226463Y-114272494D01*
X146305815Y-114369185D01*
X146393322Y-114441000D01*
X121852565Y-114441000D01*
X121349832Y-114341000D01*
X120714168Y-114341000D01*
X120211435Y-114441000D01*
X118242000Y-114441000D01*
X118242000Y-114254870D01*
X118646250Y-114253000D01*
X118805000Y-114094250D01*
X118805000Y-113095000D01*
X119059000Y-113095000D01*
X119059000Y-114094250D01*
X119217750Y-114253000D01*
X119882000Y-114256072D01*
X120006482Y-114243812D01*
X120126180Y-114207502D01*
X120236494Y-114148537D01*
X120333185Y-114069185D01*
X120412537Y-113972494D01*
X120471502Y-113862180D01*
X120507812Y-113742482D01*
X120520072Y-113618000D01*
X120517000Y-113253750D01*
X120358250Y-113095000D01*
X119059000Y-113095000D01*
X118805000Y-113095000D01*
X118785000Y-113095000D01*
X118785000Y-112841000D01*
X118805000Y-112841000D01*
X118805000Y-111841750D01*
X119059000Y-111841750D01*
X119059000Y-112841000D01*
X120358250Y-112841000D01*
X120517000Y-112682250D01*
X120520072Y-112318000D01*
X120507812Y-112193518D01*
X120471502Y-112073820D01*
X120412537Y-111963506D01*
X120333185Y-111866815D01*
X120236494Y-111787463D01*
X120126180Y-111728498D01*
X120006482Y-111692188D01*
X119882000Y-111679928D01*
X119217750Y-111683000D01*
X119059000Y-111841750D01*
X118805000Y-111841750D01*
X118646250Y-111683000D01*
X118242000Y-111681130D01*
X118242000Y-100605355D01*
X119096250Y-100603000D01*
X119255000Y-100444250D01*
X119255000Y-99595000D01*
X119509000Y-99595000D01*
X119509000Y-100444250D01*
X119667750Y-100603000D01*
X120782000Y-100606072D01*
X120906482Y-100593812D01*
X121026180Y-100557502D01*
X121136494Y-100498537D01*
X121233185Y-100419185D01*
X121312537Y-100322494D01*
X121371502Y-100212180D01*
X121407812Y-100092482D01*
X121420072Y-99968000D01*
X121417000Y-99753750D01*
X121258250Y-99595000D01*
X119509000Y-99595000D01*
X119255000Y-99595000D01*
X119235000Y-99595000D01*
X119235000Y-99341000D01*
X119255000Y-99341000D01*
X119255000Y-98491750D01*
X119509000Y-98491750D01*
X119509000Y-99341000D01*
X121258250Y-99341000D01*
X121417000Y-99182250D01*
X121420072Y-98968000D01*
X121407812Y-98843518D01*
X121371502Y-98723820D01*
X121312537Y-98613506D01*
X121233185Y-98516815D01*
X121136494Y-98437463D01*
X121026180Y-98378498D01*
X120906482Y-98342188D01*
X120782000Y-98329928D01*
X119667750Y-98333000D01*
X119509000Y-98491750D01*
X119255000Y-98491750D01*
X119096250Y-98333000D01*
X118242000Y-98330645D01*
X118242000Y-98195000D01*
X126907421Y-98195000D01*
X127418970Y-98706549D01*
G36*
X170222000Y-99622664D02*
G01*
X170222001Y-99622674D01*
X170222000Y-101593832D01*
X170058927Y-101757062D01*
X170058924Y-101757065D01*
X169626393Y-102190013D01*
X169579499Y-102228498D01*
X169540636Y-102275853D01*
X169540427Y-102276062D01*
X169502632Y-102322161D01*
X169425168Y-102416551D01*
X169425025Y-102416818D01*
X169424836Y-102417049D01*
X169367680Y-102524104D01*
X169333742Y-102587598D01*
X169310489Y-102631101D01*
X169310403Y-102631386D01*
X169310260Y-102631653D01*
X169275154Y-102747583D01*
X169239870Y-102863898D01*
X169239840Y-102864200D01*
X169239754Y-102864485D01*
X169227962Y-102984805D01*
X169216025Y-103106000D01*
X169216054Y-103106298D01*
X169216025Y-103106598D01*
X169222001Y-103166973D01*
X169222001Y-103629928D01*
X168707000Y-103629928D01*
X168582518Y-103642188D01*
X168462820Y-103678498D01*
X168352506Y-103737463D01*
X168255815Y-103816815D01*
X168176463Y-103913506D01*
X168117498Y-104023820D01*
X168081188Y-104143518D01*
X168068928Y-104268000D01*
X168068928Y-106268000D01*
X168081188Y-106392482D01*
X168117498Y-106512180D01*
X168176463Y-106622494D01*
X168255815Y-106719185D01*
X168352506Y-106798537D01*
X168462820Y-106857502D01*
X168582518Y-106893812D01*
X168707000Y-106906072D01*
X172207000Y-106906072D01*
X172331482Y-106893812D01*
X172451180Y-106857502D01*
X172561494Y-106798537D01*
X172658185Y-106719185D01*
X172737537Y-106622494D01*
X172796502Y-106512180D01*
X172832812Y-106392482D01*
X172845072Y-106268000D01*
X172845072Y-104268000D01*
X172832812Y-104143518D01*
X172809904Y-104068000D01*
X173718928Y-104068000D01*
X173722000Y-107282250D01*
X173880750Y-107441000D01*
X177730000Y-107441000D01*
X177730000Y-103591750D01*
X177571250Y-103433000D01*
X174357000Y-103429928D01*
X174232518Y-103442188D01*
X174112820Y-103478498D01*
X174002506Y-103537463D01*
X173905815Y-103616815D01*
X173826463Y-103713506D01*
X173767498Y-103823820D01*
X173731188Y-103943518D01*
X173718928Y-104068000D01*
X172809904Y-104068000D01*
X172796502Y-104023820D01*
X172737537Y-103913506D01*
X172658185Y-103816815D01*
X172561494Y-103737463D01*
X172451180Y-103678498D01*
X172331482Y-103642188D01*
X172207000Y-103629928D01*
X171692000Y-103629928D01*
X171692000Y-103617553D01*
X171883559Y-103425994D01*
X172005254Y-103414008D01*
X172171850Y-103363472D01*
X172325386Y-103281405D01*
X172459962Y-103170962D01*
X172465342Y-103164406D01*
X172530815Y-103244185D01*
X172627506Y-103323537D01*
X172737820Y-103382502D01*
X172857518Y-103418812D01*
X172982000Y-103431072D01*
X173283750Y-103428000D01*
X173442500Y-103269250D01*
X173442500Y-102195000D01*
X173696500Y-102195000D01*
X173696500Y-103269250D01*
X173855250Y-103428000D01*
X174157000Y-103431072D01*
X174281482Y-103418812D01*
X174401180Y-103382502D01*
X174511494Y-103323537D01*
X174608185Y-103244185D01*
X174687537Y-103147494D01*
X174746502Y-103037180D01*
X174782812Y-102917482D01*
X174795072Y-102793000D01*
X174792000Y-102353750D01*
X174633250Y-102195000D01*
X173696500Y-102195000D01*
X173442500Y-102195000D01*
X173422500Y-102195000D01*
X173422500Y-101941000D01*
X173442500Y-101941000D01*
X173442500Y-100866750D01*
X173374750Y-100799000D01*
X173404500Y-100769250D01*
X173404500Y-99695000D01*
X173658500Y-99695000D01*
X173658500Y-100769250D01*
X173726250Y-100837000D01*
X173696500Y-100866750D01*
X173696500Y-101941000D01*
X174633250Y-101941000D01*
X174792000Y-101782250D01*
X174795072Y-101343000D01*
X174782812Y-101218518D01*
X174746502Y-101098820D01*
X174687537Y-100988506D01*
X174608185Y-100891815D01*
X174511494Y-100812463D01*
X174496654Y-100804530D01*
X174570185Y-100744185D01*
X174649537Y-100647494D01*
X174708502Y-100537180D01*
X174744812Y-100417482D01*
X174757072Y-100293000D01*
X174754000Y-99853750D01*
X174595250Y-99695000D01*
X173658500Y-99695000D01*
X173404500Y-99695000D01*
X173384500Y-99695000D01*
X173384500Y-99441000D01*
X173404500Y-99441000D01*
X173404500Y-98366750D01*
X173658500Y-98366750D01*
X173658500Y-99441000D01*
X174595250Y-99441000D01*
X174754000Y-99282250D01*
X174757072Y-98843000D01*
X174744812Y-98718518D01*
X174708502Y-98598820D01*
X174649537Y-98488506D01*
X174570185Y-98391815D01*
X174473494Y-98312463D01*
X174363180Y-98253498D01*
X174243482Y-98217188D01*
X174119000Y-98204928D01*
X173817250Y-98208000D01*
X173658500Y-98366750D01*
X173404500Y-98366750D01*
X173245750Y-98208000D01*
X172944000Y-98204928D01*
X172819518Y-98217188D01*
X172699820Y-98253498D01*
X172692000Y-98257678D01*
X172692000Y-98195000D01*
X181822000Y-98195000D01*
X181822000Y-103633649D01*
X181808185Y-103616815D01*
X181711494Y-103537463D01*
X181601180Y-103478498D01*
X181481482Y-103442188D01*
X181357000Y-103429928D01*
X178142750Y-103433000D01*
X177984000Y-103591750D01*
X177984000Y-107441000D01*
X178004000Y-107441000D01*
X178004000Y-107695000D01*
X177984000Y-107695000D01*
X177984000Y-111544250D01*
X178142750Y-111703000D01*
X181357000Y-111706072D01*
X181481482Y-111693812D01*
X181601180Y-111657502D01*
X181711494Y-111598537D01*
X181808185Y-111519185D01*
X181822001Y-111502350D01*
X181822001Y-114441000D01*
X179852565Y-114441000D01*
X179349832Y-114341000D01*
X178714168Y-114341000D01*
X178211435Y-114441000D01*
X173267000Y-114441000D01*
X173267000Y-114431072D01*
X173332000Y-114431072D01*
X173505254Y-114414008D01*
X173671850Y-114363472D01*
X173825386Y-114281405D01*
X173959962Y-114170962D01*
X173965342Y-114164406D01*
X174030815Y-114244185D01*
X174127506Y-114323537D01*
X174237820Y-114382502D01*
X174357518Y-114418812D01*
X174482000Y-114431072D01*
X174783750Y-114428000D01*
X174942500Y-114269250D01*
X174942500Y-113195000D01*
X175196500Y-113195000D01*
X175196500Y-114269250D01*
X175355250Y-114428000D01*
X175657000Y-114431072D01*
X175781482Y-114418812D01*
X175901180Y-114382502D01*
X176011494Y-114323537D01*
X176108185Y-114244185D01*
X176187537Y-114147494D01*
X176246502Y-114037180D01*
X176282812Y-113917482D01*
X176295072Y-113793000D01*
X176292000Y-113353750D01*
X176133250Y-113195000D01*
X175196500Y-113195000D01*
X174942500Y-113195000D01*
X174922500Y-113195000D01*
X174922500Y-112941000D01*
X174942500Y-112941000D01*
X174942500Y-111866750D01*
X175196500Y-111866750D01*
X175196500Y-112941000D01*
X176133250Y-112941000D01*
X176292000Y-112782250D01*
X176295072Y-112343000D01*
X176282812Y-112218518D01*
X176246502Y-112098820D01*
X176187537Y-111988506D01*
X176108185Y-111891815D01*
X176011494Y-111812463D01*
X175901180Y-111753498D01*
X175781482Y-111717188D01*
X175657000Y-111704928D01*
X175355250Y-111708000D01*
X175196500Y-111866750D01*
X174942500Y-111866750D01*
X174783750Y-111708000D01*
X174573999Y-111705865D01*
X177571250Y-111703000D01*
X177730000Y-111544250D01*
X177730000Y-107695000D01*
X173880750Y-107695000D01*
X173722000Y-107853750D01*
X173718928Y-111068000D01*
X173731188Y-111192482D01*
X173767498Y-111312180D01*
X173826463Y-111422494D01*
X173905815Y-111519185D01*
X174002506Y-111598537D01*
X174112820Y-111657502D01*
X174232518Y-111693812D01*
X174357000Y-111706072D01*
X174471495Y-111705963D01*
X174357518Y-111717188D01*
X174237820Y-111753498D01*
X174127506Y-111812463D01*
X174030815Y-111891815D01*
X173965342Y-111971594D01*
X173959962Y-111965038D01*
X173825386Y-111854595D01*
X173671850Y-111772528D01*
X173505254Y-111721992D01*
X173332000Y-111704928D01*
X172657000Y-111704928D01*
X172483746Y-111721992D01*
X172317150Y-111772528D01*
X172163614Y-111854595D01*
X172079324Y-111923770D01*
X171692000Y-111536447D01*
X171692000Y-111486072D01*
X172207000Y-111486072D01*
X172331482Y-111473812D01*
X172451180Y-111437502D01*
X172561494Y-111378537D01*
X172658185Y-111299185D01*
X172737537Y-111202494D01*
X172796502Y-111092180D01*
X172832812Y-110972482D01*
X172845072Y-110848000D01*
X172845072Y-108848000D01*
X172832812Y-108723518D01*
X172796502Y-108603820D01*
X172737537Y-108493506D01*
X172658185Y-108396815D01*
X172561494Y-108317463D01*
X172451180Y-108258498D01*
X172331482Y-108222188D01*
X172207000Y-108209928D01*
X168707000Y-108209928D01*
X168582518Y-108222188D01*
X168462820Y-108258498D01*
X168352506Y-108317463D01*
X168255815Y-108396815D01*
X168176463Y-108493506D01*
X168117498Y-108603820D01*
X168081188Y-108723518D01*
X168068928Y-108848000D01*
X168068928Y-110848000D01*
X168081188Y-110972482D01*
X168117498Y-111092180D01*
X168176463Y-111202494D01*
X168255815Y-111299185D01*
X168352506Y-111378537D01*
X168462820Y-111437502D01*
X168582518Y-111473812D01*
X168707000Y-111486072D01*
X169222001Y-111486072D01*
X169222001Y-111987325D01*
X169216025Y-112048000D01*
X169239870Y-112290102D01*
X169303589Y-112500153D01*
X169310490Y-112522901D01*
X169425168Y-112737449D01*
X169579499Y-112925502D01*
X169626621Y-112964174D01*
X170583624Y-113921178D01*
X170605301Y-113944951D01*
X170626452Y-113964006D01*
X170646619Y-113984173D01*
X170671529Y-114004616D01*
X170797001Y-114117654D01*
X170797001Y-114441000D01*
X164277280Y-114441000D01*
X164388623Y-114349623D01*
X164497512Y-114216942D01*
X164578423Y-114065567D01*
X164628248Y-113901316D01*
X164645072Y-113730500D01*
X164645072Y-113130500D01*
X164628248Y-112959684D01*
X164578423Y-112795433D01*
X164498226Y-112645394D01*
X164537537Y-112597494D01*
X164596502Y-112487180D01*
X164632812Y-112367482D01*
X164645072Y-112243000D01*
X164642000Y-111991250D01*
X164483250Y-111832500D01*
X163659000Y-111832500D01*
X163659000Y-111852500D01*
X163405000Y-111852500D01*
X163405000Y-111832500D01*
X162580750Y-111832500D01*
X162422000Y-111991250D01*
X162418928Y-112243000D01*
X162431188Y-112367482D01*
X162451063Y-112433000D01*
X160670072Y-112433000D01*
X160670072Y-111168000D01*
X162418928Y-111168000D01*
X162422000Y-111419750D01*
X162580750Y-111578500D01*
X163405000Y-111578500D01*
X163405000Y-110691750D01*
X163659000Y-110691750D01*
X163659000Y-111578500D01*
X164483250Y-111578500D01*
X164642000Y-111419750D01*
X164645072Y-111168000D01*
X164632812Y-111043518D01*
X164596502Y-110923820D01*
X164537537Y-110813506D01*
X164458185Y-110716815D01*
X164361494Y-110637463D01*
X164251180Y-110578498D01*
X164131482Y-110542188D01*
X164007000Y-110529928D01*
X163817750Y-110533000D01*
X163659000Y-110691750D01*
X163405000Y-110691750D01*
X163246250Y-110533000D01*
X163057000Y-110529928D01*
X162932518Y-110542188D01*
X162812820Y-110578498D01*
X162702506Y-110637463D01*
X162605815Y-110716815D01*
X162526463Y-110813506D01*
X162467498Y-110923820D01*
X162431188Y-111043518D01*
X162418928Y-111168000D01*
X160670072Y-111168000D01*
X160670072Y-110568000D01*
X160659000Y-110455580D01*
X160659000Y-106680420D01*
X160670072Y-106568000D01*
X160670072Y-105968000D01*
X162418928Y-105968000D01*
X162431188Y-106092482D01*
X162467498Y-106212180D01*
X162526463Y-106322494D01*
X162605815Y-106419185D01*
X162702506Y-106498537D01*
X162812820Y-106557502D01*
X162932518Y-106593812D01*
X163057000Y-106606072D01*
X163246250Y-106603000D01*
X163405000Y-106444250D01*
X163405000Y-105557500D01*
X163659000Y-105557500D01*
X163659000Y-106444250D01*
X163817750Y-106603000D01*
X164007000Y-106606072D01*
X164131482Y-106593812D01*
X164251180Y-106557502D01*
X164361494Y-106498537D01*
X164458185Y-106419185D01*
X164537537Y-106322494D01*
X164596502Y-106212180D01*
X164632812Y-106092482D01*
X164645072Y-105968000D01*
X164642000Y-105716250D01*
X164483250Y-105557500D01*
X163659000Y-105557500D01*
X163405000Y-105557500D01*
X162580750Y-105557500D01*
X162422000Y-105716250D01*
X162418928Y-105968000D01*
X160670072Y-105968000D01*
X160670072Y-104703000D01*
X162451063Y-104703000D01*
X162431188Y-104768518D01*
X162418928Y-104893000D01*
X162422000Y-105144750D01*
X162580750Y-105303500D01*
X163405000Y-105303500D01*
X163405000Y-105283500D01*
X163659000Y-105283500D01*
X163659000Y-105303500D01*
X164483250Y-105303500D01*
X164642000Y-105144750D01*
X164645072Y-104893000D01*
X164632812Y-104768518D01*
X164596502Y-104648820D01*
X164537537Y-104538506D01*
X164498226Y-104490606D01*
X164578423Y-104340567D01*
X164628248Y-104176316D01*
X164645072Y-104005500D01*
X164645072Y-103405500D01*
X164628248Y-103234684D01*
X164578423Y-103070433D01*
X164497512Y-102919058D01*
X164388623Y-102786377D01*
X164255942Y-102677488D01*
X164104567Y-102596577D01*
X163940316Y-102546752D01*
X163769500Y-102529928D01*
X163294500Y-102529928D01*
X163123684Y-102546752D01*
X162959433Y-102596577D01*
X162808058Y-102677488D01*
X162675377Y-102786377D01*
X162566488Y-102919058D01*
X162559036Y-102933000D01*
X160670072Y-102933000D01*
X160670072Y-101068000D01*
X160659000Y-100955580D01*
X160659000Y-100568000D01*
X160656560Y-100543224D01*
X160649333Y-100519399D01*
X160637597Y-100497443D01*
X160621803Y-100478197D01*
X160602557Y-100462403D01*
X160580601Y-100450667D01*
X160556776Y-100443440D01*
X160532000Y-100441000D01*
X160144420Y-100441000D01*
X160032000Y-100429928D01*
X158032000Y-100429928D01*
X157919580Y-100441000D01*
X157532000Y-100441000D01*
X157507224Y-100443440D01*
X157483399Y-100450667D01*
X157461443Y-100462403D01*
X157442197Y-100478197D01*
X157426403Y-100497443D01*
X157414667Y-100519399D01*
X157407440Y-100543224D01*
X157405000Y-100568000D01*
X157405000Y-100955580D01*
X157393928Y-101068000D01*
X157393928Y-102933000D01*
X155650465Y-102933000D01*
X155606999Y-102928719D01*
X155563533Y-102933000D01*
X155563523Y-102933000D01*
X155433510Y-102945805D01*
X155266687Y-102996411D01*
X155112941Y-103078589D01*
X155094750Y-103093518D01*
X155011953Y-103161468D01*
X155011951Y-103161470D01*
X154978183Y-103189183D01*
X154950470Y-103222951D01*
X153545072Y-104628350D01*
X153545072Y-104018000D01*
X153532812Y-103893518D01*
X153517000Y-103841393D01*
X153517000Y-102268482D01*
X153578423Y-102153567D01*
X153628248Y-101989316D01*
X153645072Y-101818500D01*
X153645072Y-101778000D01*
X154393928Y-101778000D01*
X154406188Y-101902482D01*
X154442498Y-102022180D01*
X154501463Y-102132494D01*
X154580815Y-102229185D01*
X154677506Y-102308537D01*
X154787820Y-102367502D01*
X154907518Y-102403812D01*
X155032000Y-102416072D01*
X155246250Y-102413000D01*
X155405000Y-102254250D01*
X155405000Y-101495000D01*
X155659000Y-101495000D01*
X155659000Y-102254250D01*
X155817750Y-102413000D01*
X156032000Y-102416072D01*
X156156482Y-102403812D01*
X156276180Y-102367502D01*
X156386494Y-102308537D01*
X156483185Y-102229185D01*
X156562537Y-102132494D01*
X156621502Y-102022180D01*
X156657812Y-101902482D01*
X156670072Y-101778000D01*
X156667000Y-101653750D01*
X156508250Y-101495000D01*
X155659000Y-101495000D01*
X155405000Y-101495000D01*
X154555750Y-101495000D01*
X154397000Y-101653750D01*
X154393928Y-101778000D01*
X153645072Y-101778000D01*
X153645072Y-101318500D01*
X153628248Y-101147684D01*
X153578423Y-100983433D01*
X153497512Y-100832058D01*
X153388623Y-100699377D01*
X153335768Y-100656000D01*
X153339424Y-100653000D01*
X154475007Y-100653000D01*
X154442498Y-100713820D01*
X154406188Y-100833518D01*
X154393928Y-100958000D01*
X154397000Y-101082250D01*
X154555750Y-101241000D01*
X155405000Y-101241000D01*
X155405000Y-101221000D01*
X155659000Y-101221000D01*
X155659000Y-101241000D01*
X156508250Y-101241000D01*
X156667000Y-101082250D01*
X156670072Y-100958000D01*
X156657812Y-100833518D01*
X156621502Y-100713820D01*
X156562537Y-100603506D01*
X156533398Y-100568000D01*
X156562537Y-100532494D01*
X156621502Y-100422180D01*
X156657812Y-100302482D01*
X156670072Y-100178000D01*
X156670072Y-99358000D01*
X156657812Y-99233518D01*
X156621502Y-99113820D01*
X156562537Y-99003506D01*
X156483185Y-98906815D01*
X156386494Y-98827463D01*
X156276180Y-98768498D01*
X156156482Y-98732188D01*
X156032000Y-98719928D01*
X155032000Y-98719928D01*
X154907518Y-98732188D01*
X154787820Y-98768498D01*
X154677506Y-98827463D01*
X154609834Y-98883000D01*
X153395700Y-98883000D01*
X153388623Y-98874377D01*
X153255942Y-98765488D01*
X153104567Y-98684577D01*
X152940316Y-98634752D01*
X152769500Y-98617928D01*
X152294500Y-98617928D01*
X152123684Y-98634752D01*
X151959433Y-98684577D01*
X151808058Y-98765488D01*
X151675377Y-98874377D01*
X151566488Y-99007058D01*
X151485577Y-99158433D01*
X151435752Y-99322684D01*
X151418928Y-99493500D01*
X151418928Y-99993500D01*
X151435752Y-100164316D01*
X151485577Y-100328567D01*
X151566488Y-100479942D01*
X151675377Y-100612623D01*
X151728232Y-100656000D01*
X151675377Y-100699377D01*
X151566488Y-100832058D01*
X151485577Y-100983433D01*
X151435752Y-101147684D01*
X151418928Y-101318500D01*
X151418928Y-101818500D01*
X151435752Y-101989316D01*
X151485577Y-102153567D01*
X151566488Y-102304942D01*
X151675377Y-102437623D01*
X151747000Y-102496403D01*
X151747001Y-103379928D01*
X151557000Y-103379928D01*
X151432518Y-103392188D01*
X151432000Y-103392345D01*
X151431482Y-103392188D01*
X151307000Y-103379928D01*
X150757000Y-103379928D01*
X150632518Y-103392188D01*
X150632000Y-103392345D01*
X150631482Y-103392188D01*
X150507000Y-103379928D01*
X149957000Y-103379928D01*
X149832518Y-103392188D01*
X149832000Y-103392345D01*
X149831482Y-103392188D01*
X149707000Y-103379928D01*
X149517000Y-103379928D01*
X149517000Y-102747078D01*
X149658006Y-102606072D01*
X149769500Y-102606072D01*
X149940316Y-102589248D01*
X150104567Y-102539423D01*
X150255942Y-102458512D01*
X150388623Y-102349623D01*
X150497512Y-102216942D01*
X150578423Y-102065567D01*
X150628248Y-101901316D01*
X150645072Y-101730500D01*
X150645072Y-101230500D01*
X150628248Y-101059684D01*
X150578423Y-100895433D01*
X150497512Y-100744058D01*
X150388623Y-100611377D01*
X150335768Y-100568000D01*
X150388623Y-100524623D01*
X150497512Y-100391942D01*
X150578423Y-100240567D01*
X150628248Y-100076316D01*
X150645072Y-99905500D01*
X150645072Y-99405500D01*
X150628248Y-99234684D01*
X150578423Y-99070433D01*
X150497512Y-98919058D01*
X150388623Y-98786377D01*
X150255942Y-98677488D01*
X150104567Y-98596577D01*
X149940316Y-98546752D01*
X149769500Y-98529928D01*
X149658006Y-98529928D01*
X149424178Y-98296100D01*
X159971022Y-98296100D01*
X161268928Y-99594007D01*
X161268928Y-100043000D01*
X161285992Y-100216254D01*
X161336528Y-100382850D01*
X161418595Y-100536386D01*
X161529038Y-100670962D01*
X161663614Y-100781405D01*
X161817150Y-100863472D01*
X161983746Y-100914008D01*
X162157000Y-100931072D01*
X162832000Y-100931072D01*
X163005254Y-100914008D01*
X163171850Y-100863472D01*
X163325386Y-100781405D01*
X163459962Y-100670962D01*
X163532000Y-100583183D01*
X163604038Y-100670962D01*
X163738614Y-100781405D01*
X163892150Y-100863472D01*
X164058746Y-100914008D01*
X164232000Y-100931072D01*
X164480732Y-100931072D01*
X164441195Y-100990244D01*
X164363174Y-101178602D01*
X164323400Y-101378561D01*
X164323400Y-101582439D01*
X164363174Y-101782398D01*
X164441195Y-101970756D01*
X164554463Y-102140274D01*
X164698626Y-102284437D01*
X164868144Y-102397705D01*
X165056502Y-102475726D01*
X165256461Y-102515500D01*
X165460339Y-102515500D01*
X165660298Y-102475726D01*
X165848656Y-102397705D01*
X165896854Y-102365500D01*
X166194723Y-102365500D01*
X166308058Y-102458512D01*
X166459433Y-102539423D01*
X166623684Y-102589248D01*
X166794500Y-102606072D01*
X167269500Y-102606072D01*
X167440316Y-102589248D01*
X167604567Y-102539423D01*
X167755942Y-102458512D01*
X167888623Y-102349623D01*
X167997512Y-102216942D01*
X168078423Y-102065567D01*
X168128248Y-101901316D01*
X168145072Y-101730500D01*
X168145072Y-101230500D01*
X168128248Y-101059684D01*
X168078423Y-100895433D01*
X167997512Y-100744058D01*
X167888623Y-100611377D01*
X167835768Y-100568000D01*
X167888623Y-100524623D01*
X167997512Y-100391942D01*
X168078423Y-100240567D01*
X168128248Y-100076316D01*
X168145072Y-99905500D01*
X168145072Y-99405500D01*
X168128248Y-99234684D01*
X168078423Y-99070433D01*
X167997512Y-98919058D01*
X167888623Y-98786377D01*
X167755942Y-98677488D01*
X167604567Y-98596577D01*
X167557000Y-98582148D01*
X167557000Y-98195000D01*
X170222000Y-98195000D01*
X170222000Y-99622664D01*
G37*
X170222000Y-99622664D02*
X170222001Y-99622674D01*
X170222000Y-101593832D01*
X170058927Y-101757062D01*
X170058924Y-101757065D01*
X169626393Y-102190013D01*
X169579499Y-102228498D01*
X169540636Y-102275853D01*
X169540427Y-102276062D01*
X169502632Y-102322161D01*
X169425168Y-102416551D01*
X169425025Y-102416818D01*
X169424836Y-102417049D01*
X169367680Y-102524104D01*
X169333742Y-102587598D01*
X169310489Y-102631101D01*
X169310403Y-102631386D01*
X169310260Y-102631653D01*
X169275154Y-102747583D01*
X169239870Y-102863898D01*
X169239840Y-102864200D01*
X169239754Y-102864485D01*
X169227962Y-102984805D01*
X169216025Y-103106000D01*
X169216054Y-103106298D01*
X169216025Y-103106598D01*
X169222001Y-103166973D01*
X169222001Y-103629928D01*
X168707000Y-103629928D01*
X168582518Y-103642188D01*
X168462820Y-103678498D01*
X168352506Y-103737463D01*
X168255815Y-103816815D01*
X168176463Y-103913506D01*
X168117498Y-104023820D01*
X168081188Y-104143518D01*
X168068928Y-104268000D01*
X168068928Y-106268000D01*
X168081188Y-106392482D01*
X168117498Y-106512180D01*
X168176463Y-106622494D01*
X168255815Y-106719185D01*
X168352506Y-106798537D01*
X168462820Y-106857502D01*
X168582518Y-106893812D01*
X168707000Y-106906072D01*
X172207000Y-106906072D01*
X172331482Y-106893812D01*
X172451180Y-106857502D01*
X172561494Y-106798537D01*
X172658185Y-106719185D01*
X172737537Y-106622494D01*
X172796502Y-106512180D01*
X172832812Y-106392482D01*
X172845072Y-106268000D01*
X172845072Y-104268000D01*
X172832812Y-104143518D01*
X172809904Y-104068000D01*
X173718928Y-104068000D01*
X173722000Y-107282250D01*
X173880750Y-107441000D01*
X177730000Y-107441000D01*
X177730000Y-103591750D01*
X177571250Y-103433000D01*
X174357000Y-103429928D01*
X174232518Y-103442188D01*
X174112820Y-103478498D01*
X174002506Y-103537463D01*
X173905815Y-103616815D01*
X173826463Y-103713506D01*
X173767498Y-103823820D01*
X173731188Y-103943518D01*
X173718928Y-104068000D01*
X172809904Y-104068000D01*
X172796502Y-104023820D01*
X172737537Y-103913506D01*
X172658185Y-103816815D01*
X172561494Y-103737463D01*
X172451180Y-103678498D01*
X172331482Y-103642188D01*
X172207000Y-103629928D01*
X171692000Y-103629928D01*
X171692000Y-103617553D01*
X171883559Y-103425994D01*
X172005254Y-103414008D01*
X172171850Y-103363472D01*
X172325386Y-103281405D01*
X172459962Y-103170962D01*
X172465342Y-103164406D01*
X172530815Y-103244185D01*
X172627506Y-103323537D01*
X172737820Y-103382502D01*
X172857518Y-103418812D01*
X172982000Y-103431072D01*
X173283750Y-103428000D01*
X173442500Y-103269250D01*
X173442500Y-102195000D01*
X173696500Y-102195000D01*
X173696500Y-103269250D01*
X173855250Y-103428000D01*
X174157000Y-103431072D01*
X174281482Y-103418812D01*
X174401180Y-103382502D01*
X174511494Y-103323537D01*
X174608185Y-103244185D01*
X174687537Y-103147494D01*
X174746502Y-103037180D01*
X174782812Y-102917482D01*
X174795072Y-102793000D01*
X174792000Y-102353750D01*
X174633250Y-102195000D01*
X173696500Y-102195000D01*
X173442500Y-102195000D01*
X173422500Y-102195000D01*
X173422500Y-101941000D01*
X173442500Y-101941000D01*
X173442500Y-100866750D01*
X173374750Y-100799000D01*
X173404500Y-100769250D01*
X173404500Y-99695000D01*
X173658500Y-99695000D01*
X173658500Y-100769250D01*
X173726250Y-100837000D01*
X173696500Y-100866750D01*
X173696500Y-101941000D01*
X174633250Y-101941000D01*
X174792000Y-101782250D01*
X174795072Y-101343000D01*
X174782812Y-101218518D01*
X174746502Y-101098820D01*
X174687537Y-100988506D01*
X174608185Y-100891815D01*
X174511494Y-100812463D01*
X174496654Y-100804530D01*
X174570185Y-100744185D01*
X174649537Y-100647494D01*
X174708502Y-100537180D01*
X174744812Y-100417482D01*
X174757072Y-100293000D01*
X174754000Y-99853750D01*
X174595250Y-99695000D01*
X173658500Y-99695000D01*
X173404500Y-99695000D01*
X173384500Y-99695000D01*
X173384500Y-99441000D01*
X173404500Y-99441000D01*
X173404500Y-98366750D01*
X173658500Y-98366750D01*
X173658500Y-99441000D01*
X174595250Y-99441000D01*
X174754000Y-99282250D01*
X174757072Y-98843000D01*
X174744812Y-98718518D01*
X174708502Y-98598820D01*
X174649537Y-98488506D01*
X174570185Y-98391815D01*
X174473494Y-98312463D01*
X174363180Y-98253498D01*
X174243482Y-98217188D01*
X174119000Y-98204928D01*
X173817250Y-98208000D01*
X173658500Y-98366750D01*
X173404500Y-98366750D01*
X173245750Y-98208000D01*
X172944000Y-98204928D01*
X172819518Y-98217188D01*
X172699820Y-98253498D01*
X172692000Y-98257678D01*
X172692000Y-98195000D01*
X181822000Y-98195000D01*
X181822000Y-103633649D01*
X181808185Y-103616815D01*
X181711494Y-103537463D01*
X181601180Y-103478498D01*
X181481482Y-103442188D01*
X181357000Y-103429928D01*
X178142750Y-103433000D01*
X177984000Y-103591750D01*
X177984000Y-107441000D01*
X178004000Y-107441000D01*
X178004000Y-107695000D01*
X177984000Y-107695000D01*
X177984000Y-111544250D01*
X178142750Y-111703000D01*
X181357000Y-111706072D01*
X181481482Y-111693812D01*
X181601180Y-111657502D01*
X181711494Y-111598537D01*
X181808185Y-111519185D01*
X181822001Y-111502350D01*
X181822001Y-114441000D01*
X179852565Y-114441000D01*
X179349832Y-114341000D01*
X178714168Y-114341000D01*
X178211435Y-114441000D01*
X173267000Y-114441000D01*
X173267000Y-114431072D01*
X173332000Y-114431072D01*
X173505254Y-114414008D01*
X173671850Y-114363472D01*
X173825386Y-114281405D01*
X173959962Y-114170962D01*
X173965342Y-114164406D01*
X174030815Y-114244185D01*
X174127506Y-114323537D01*
X174237820Y-114382502D01*
X174357518Y-114418812D01*
X174482000Y-114431072D01*
X174783750Y-114428000D01*
X174942500Y-114269250D01*
X174942500Y-113195000D01*
X175196500Y-113195000D01*
X175196500Y-114269250D01*
X175355250Y-114428000D01*
X175657000Y-114431072D01*
X175781482Y-114418812D01*
X175901180Y-114382502D01*
X176011494Y-114323537D01*
X176108185Y-114244185D01*
X176187537Y-114147494D01*
X176246502Y-114037180D01*
X176282812Y-113917482D01*
X176295072Y-113793000D01*
X176292000Y-113353750D01*
X176133250Y-113195000D01*
X175196500Y-113195000D01*
X174942500Y-113195000D01*
X174922500Y-113195000D01*
X174922500Y-112941000D01*
X174942500Y-112941000D01*
X174942500Y-111866750D01*
X175196500Y-111866750D01*
X175196500Y-112941000D01*
X176133250Y-112941000D01*
X176292000Y-112782250D01*
X176295072Y-112343000D01*
X176282812Y-112218518D01*
X176246502Y-112098820D01*
X176187537Y-111988506D01*
X176108185Y-111891815D01*
X176011494Y-111812463D01*
X175901180Y-111753498D01*
X175781482Y-111717188D01*
X175657000Y-111704928D01*
X175355250Y-111708000D01*
X175196500Y-111866750D01*
X174942500Y-111866750D01*
X174783750Y-111708000D01*
X174573999Y-111705865D01*
X177571250Y-111703000D01*
X177730000Y-111544250D01*
X177730000Y-107695000D01*
X173880750Y-107695000D01*
X173722000Y-107853750D01*
X173718928Y-111068000D01*
X173731188Y-111192482D01*
X173767498Y-111312180D01*
X173826463Y-111422494D01*
X173905815Y-111519185D01*
X174002506Y-111598537D01*
X174112820Y-111657502D01*
X174232518Y-111693812D01*
X174357000Y-111706072D01*
X174471495Y-111705963D01*
X174357518Y-111717188D01*
X174237820Y-111753498D01*
X174127506Y-111812463D01*
X174030815Y-111891815D01*
X173965342Y-111971594D01*
X173959962Y-111965038D01*
X173825386Y-111854595D01*
X173671850Y-111772528D01*
X173505254Y-111721992D01*
X173332000Y-111704928D01*
X172657000Y-111704928D01*
X172483746Y-111721992D01*
X172317150Y-111772528D01*
X172163614Y-111854595D01*
X172079324Y-111923770D01*
X171692000Y-111536447D01*
X171692000Y-111486072D01*
X172207000Y-111486072D01*
X172331482Y-111473812D01*
X172451180Y-111437502D01*
X172561494Y-111378537D01*
X172658185Y-111299185D01*
X172737537Y-111202494D01*
X172796502Y-111092180D01*
X172832812Y-110972482D01*
X172845072Y-110848000D01*
X172845072Y-108848000D01*
X172832812Y-108723518D01*
X172796502Y-108603820D01*
X172737537Y-108493506D01*
X172658185Y-108396815D01*
X172561494Y-108317463D01*
X172451180Y-108258498D01*
X172331482Y-108222188D01*
X172207000Y-108209928D01*
X168707000Y-108209928D01*
X168582518Y-108222188D01*
X168462820Y-108258498D01*
X168352506Y-108317463D01*
X168255815Y-108396815D01*
X168176463Y-108493506D01*
X168117498Y-108603820D01*
X168081188Y-108723518D01*
X168068928Y-108848000D01*
X168068928Y-110848000D01*
X168081188Y-110972482D01*
X168117498Y-111092180D01*
X168176463Y-111202494D01*
X168255815Y-111299185D01*
X168352506Y-111378537D01*
X168462820Y-111437502D01*
X168582518Y-111473812D01*
X168707000Y-111486072D01*
X169222001Y-111486072D01*
X169222001Y-111987325D01*
X169216025Y-112048000D01*
X169239870Y-112290102D01*
X169303589Y-112500153D01*
X169310490Y-112522901D01*
X169425168Y-112737449D01*
X169579499Y-112925502D01*
X169626621Y-112964174D01*
X170583624Y-113921178D01*
X170605301Y-113944951D01*
X170626452Y-113964006D01*
X170646619Y-113984173D01*
X170671529Y-114004616D01*
X170797001Y-114117654D01*
X170797001Y-114441000D01*
X164277280Y-114441000D01*
X164388623Y-114349623D01*
X164497512Y-114216942D01*
X164578423Y-114065567D01*
X164628248Y-113901316D01*
X164645072Y-113730500D01*
X164645072Y-113130500D01*
X164628248Y-112959684D01*
X164578423Y-112795433D01*
X164498226Y-112645394D01*
X164537537Y-112597494D01*
X164596502Y-112487180D01*
X164632812Y-112367482D01*
X164645072Y-112243000D01*
X164642000Y-111991250D01*
X164483250Y-111832500D01*
X163659000Y-111832500D01*
X163659000Y-111852500D01*
X163405000Y-111852500D01*
X163405000Y-111832500D01*
X162580750Y-111832500D01*
X162422000Y-111991250D01*
X162418928Y-112243000D01*
X162431188Y-112367482D01*
X162451063Y-112433000D01*
X160670072Y-112433000D01*
X160670072Y-111168000D01*
X162418928Y-111168000D01*
X162422000Y-111419750D01*
X162580750Y-111578500D01*
X163405000Y-111578500D01*
X163405000Y-110691750D01*
X163659000Y-110691750D01*
X163659000Y-111578500D01*
X164483250Y-111578500D01*
X164642000Y-111419750D01*
X164645072Y-111168000D01*
X164632812Y-111043518D01*
X164596502Y-110923820D01*
X164537537Y-110813506D01*
X164458185Y-110716815D01*
X164361494Y-110637463D01*
X164251180Y-110578498D01*
X164131482Y-110542188D01*
X164007000Y-110529928D01*
X163817750Y-110533000D01*
X163659000Y-110691750D01*
X163405000Y-110691750D01*
X163246250Y-110533000D01*
X163057000Y-110529928D01*
X162932518Y-110542188D01*
X162812820Y-110578498D01*
X162702506Y-110637463D01*
X162605815Y-110716815D01*
X162526463Y-110813506D01*
X162467498Y-110923820D01*
X162431188Y-111043518D01*
X162418928Y-111168000D01*
X160670072Y-111168000D01*
X160670072Y-110568000D01*
X160659000Y-110455580D01*
X160659000Y-106680420D01*
X160670072Y-106568000D01*
X160670072Y-105968000D01*
X162418928Y-105968000D01*
X162431188Y-106092482D01*
X162467498Y-106212180D01*
X162526463Y-106322494D01*
X162605815Y-106419185D01*
X162702506Y-106498537D01*
X162812820Y-106557502D01*
X162932518Y-106593812D01*
X163057000Y-106606072D01*
X163246250Y-106603000D01*
X163405000Y-106444250D01*
X163405000Y-105557500D01*
X163659000Y-105557500D01*
X163659000Y-106444250D01*
X163817750Y-106603000D01*
X164007000Y-106606072D01*
X164131482Y-106593812D01*
X164251180Y-106557502D01*
X164361494Y-106498537D01*
X164458185Y-106419185D01*
X164537537Y-106322494D01*
X164596502Y-106212180D01*
X164632812Y-106092482D01*
X164645072Y-105968000D01*
X164642000Y-105716250D01*
X164483250Y-105557500D01*
X163659000Y-105557500D01*
X163405000Y-105557500D01*
X162580750Y-105557500D01*
X162422000Y-105716250D01*
X162418928Y-105968000D01*
X160670072Y-105968000D01*
X160670072Y-104703000D01*
X162451063Y-104703000D01*
X162431188Y-104768518D01*
X162418928Y-104893000D01*
X162422000Y-105144750D01*
X162580750Y-105303500D01*
X163405000Y-105303500D01*
X163405000Y-105283500D01*
X163659000Y-105283500D01*
X163659000Y-105303500D01*
X164483250Y-105303500D01*
X164642000Y-105144750D01*
X164645072Y-104893000D01*
X164632812Y-104768518D01*
X164596502Y-104648820D01*
X164537537Y-104538506D01*
X164498226Y-104490606D01*
X164578423Y-104340567D01*
X164628248Y-104176316D01*
X164645072Y-104005500D01*
X164645072Y-103405500D01*
X164628248Y-103234684D01*
X164578423Y-103070433D01*
X164497512Y-102919058D01*
X164388623Y-102786377D01*
X164255942Y-102677488D01*
X164104567Y-102596577D01*
X163940316Y-102546752D01*
X163769500Y-102529928D01*
X163294500Y-102529928D01*
X163123684Y-102546752D01*
X162959433Y-102596577D01*
X162808058Y-102677488D01*
X162675377Y-102786377D01*
X162566488Y-102919058D01*
X162559036Y-102933000D01*
X160670072Y-102933000D01*
X160670072Y-101068000D01*
X160659000Y-100955580D01*
X160659000Y-100568000D01*
X160656560Y-100543224D01*
X160649333Y-100519399D01*
X160637597Y-100497443D01*
X160621803Y-100478197D01*
X160602557Y-100462403D01*
X160580601Y-100450667D01*
X160556776Y-100443440D01*
X160532000Y-100441000D01*
X160144420Y-100441000D01*
X160032000Y-100429928D01*
X158032000Y-100429928D01*
X157919580Y-100441000D01*
X157532000Y-100441000D01*
X157507224Y-100443440D01*
X157483399Y-100450667D01*
X157461443Y-100462403D01*
X157442197Y-100478197D01*
X157426403Y-100497443D01*
X157414667Y-100519399D01*
X157407440Y-100543224D01*
X157405000Y-100568000D01*
X157405000Y-100955580D01*
X157393928Y-101068000D01*
X157393928Y-102933000D01*
X155650465Y-102933000D01*
X155606999Y-102928719D01*
X155563533Y-102933000D01*
X155563523Y-102933000D01*
X155433510Y-102945805D01*
X155266687Y-102996411D01*
X155112941Y-103078589D01*
X155094750Y-103093518D01*
X155011953Y-103161468D01*
X155011951Y-103161470D01*
X154978183Y-103189183D01*
X154950470Y-103222951D01*
X153545072Y-104628350D01*
X153545072Y-104018000D01*
X153532812Y-103893518D01*
X153517000Y-103841393D01*
X153517000Y-102268482D01*
X153578423Y-102153567D01*
X153628248Y-101989316D01*
X153645072Y-101818500D01*
X153645072Y-101778000D01*
X154393928Y-101778000D01*
X154406188Y-101902482D01*
X154442498Y-102022180D01*
X154501463Y-102132494D01*
X154580815Y-102229185D01*
X154677506Y-102308537D01*
X154787820Y-102367502D01*
X154907518Y-102403812D01*
X155032000Y-102416072D01*
X155246250Y-102413000D01*
X155405000Y-102254250D01*
X155405000Y-101495000D01*
X155659000Y-101495000D01*
X155659000Y-102254250D01*
X155817750Y-102413000D01*
X156032000Y-102416072D01*
X156156482Y-102403812D01*
X156276180Y-102367502D01*
X156386494Y-102308537D01*
X156483185Y-102229185D01*
X156562537Y-102132494D01*
X156621502Y-102022180D01*
X156657812Y-101902482D01*
X156670072Y-101778000D01*
X156667000Y-101653750D01*
X156508250Y-101495000D01*
X155659000Y-101495000D01*
X155405000Y-101495000D01*
X154555750Y-101495000D01*
X154397000Y-101653750D01*
X154393928Y-101778000D01*
X153645072Y-101778000D01*
X153645072Y-101318500D01*
X153628248Y-101147684D01*
X153578423Y-100983433D01*
X153497512Y-100832058D01*
X153388623Y-100699377D01*
X153335768Y-100656000D01*
X153339424Y-100653000D01*
X154475007Y-100653000D01*
X154442498Y-100713820D01*
X154406188Y-100833518D01*
X154393928Y-100958000D01*
X154397000Y-101082250D01*
X154555750Y-101241000D01*
X155405000Y-101241000D01*
X155405000Y-101221000D01*
X155659000Y-101221000D01*
X155659000Y-101241000D01*
X156508250Y-101241000D01*
X156667000Y-101082250D01*
X156670072Y-100958000D01*
X156657812Y-100833518D01*
X156621502Y-100713820D01*
X156562537Y-100603506D01*
X156533398Y-100568000D01*
X156562537Y-100532494D01*
X156621502Y-100422180D01*
X156657812Y-100302482D01*
X156670072Y-100178000D01*
X156670072Y-99358000D01*
X156657812Y-99233518D01*
X156621502Y-99113820D01*
X156562537Y-99003506D01*
X156483185Y-98906815D01*
X156386494Y-98827463D01*
X156276180Y-98768498D01*
X156156482Y-98732188D01*
X156032000Y-98719928D01*
X155032000Y-98719928D01*
X154907518Y-98732188D01*
X154787820Y-98768498D01*
X154677506Y-98827463D01*
X154609834Y-98883000D01*
X153395700Y-98883000D01*
X153388623Y-98874377D01*
X153255942Y-98765488D01*
X153104567Y-98684577D01*
X152940316Y-98634752D01*
X152769500Y-98617928D01*
X152294500Y-98617928D01*
X152123684Y-98634752D01*
X151959433Y-98684577D01*
X151808058Y-98765488D01*
X151675377Y-98874377D01*
X151566488Y-99007058D01*
X151485577Y-99158433D01*
X151435752Y-99322684D01*
X151418928Y-99493500D01*
X151418928Y-99993500D01*
X151435752Y-100164316D01*
X151485577Y-100328567D01*
X151566488Y-100479942D01*
X151675377Y-100612623D01*
X151728232Y-100656000D01*
X151675377Y-100699377D01*
X151566488Y-100832058D01*
X151485577Y-100983433D01*
X151435752Y-101147684D01*
X151418928Y-101318500D01*
X151418928Y-101818500D01*
X151435752Y-101989316D01*
X151485577Y-102153567D01*
X151566488Y-102304942D01*
X151675377Y-102437623D01*
X151747000Y-102496403D01*
X151747001Y-103379928D01*
X151557000Y-103379928D01*
X151432518Y-103392188D01*
X151432000Y-103392345D01*
X151431482Y-103392188D01*
X151307000Y-103379928D01*
X150757000Y-103379928D01*
X150632518Y-103392188D01*
X150632000Y-103392345D01*
X150631482Y-103392188D01*
X150507000Y-103379928D01*
X149957000Y-103379928D01*
X149832518Y-103392188D01*
X149832000Y-103392345D01*
X149831482Y-103392188D01*
X149707000Y-103379928D01*
X149517000Y-103379928D01*
X149517000Y-102747078D01*
X149658006Y-102606072D01*
X149769500Y-102606072D01*
X149940316Y-102589248D01*
X150104567Y-102539423D01*
X150255942Y-102458512D01*
X150388623Y-102349623D01*
X150497512Y-102216942D01*
X150578423Y-102065567D01*
X150628248Y-101901316D01*
X150645072Y-101730500D01*
X150645072Y-101230500D01*
X150628248Y-101059684D01*
X150578423Y-100895433D01*
X150497512Y-100744058D01*
X150388623Y-100611377D01*
X150335768Y-100568000D01*
X150388623Y-100524623D01*
X150497512Y-100391942D01*
X150578423Y-100240567D01*
X150628248Y-100076316D01*
X150645072Y-99905500D01*
X150645072Y-99405500D01*
X150628248Y-99234684D01*
X150578423Y-99070433D01*
X150497512Y-98919058D01*
X150388623Y-98786377D01*
X150255942Y-98677488D01*
X150104567Y-98596577D01*
X149940316Y-98546752D01*
X149769500Y-98529928D01*
X149658006Y-98529928D01*
X149424178Y-98296100D01*
X159971022Y-98296100D01*
X161268928Y-99594007D01*
X161268928Y-100043000D01*
X161285992Y-100216254D01*
X161336528Y-100382850D01*
X161418595Y-100536386D01*
X161529038Y-100670962D01*
X161663614Y-100781405D01*
X161817150Y-100863472D01*
X161983746Y-100914008D01*
X162157000Y-100931072D01*
X162832000Y-100931072D01*
X163005254Y-100914008D01*
X163171850Y-100863472D01*
X163325386Y-100781405D01*
X163459962Y-100670962D01*
X163532000Y-100583183D01*
X163604038Y-100670962D01*
X163738614Y-100781405D01*
X163892150Y-100863472D01*
X164058746Y-100914008D01*
X164232000Y-100931072D01*
X164480732Y-100931072D01*
X164441195Y-100990244D01*
X164363174Y-101178602D01*
X164323400Y-101378561D01*
X164323400Y-101582439D01*
X164363174Y-101782398D01*
X164441195Y-101970756D01*
X164554463Y-102140274D01*
X164698626Y-102284437D01*
X164868144Y-102397705D01*
X165056502Y-102475726D01*
X165256461Y-102515500D01*
X165460339Y-102515500D01*
X165660298Y-102475726D01*
X165848656Y-102397705D01*
X165896854Y-102365500D01*
X166194723Y-102365500D01*
X166308058Y-102458512D01*
X166459433Y-102539423D01*
X166623684Y-102589248D01*
X166794500Y-102606072D01*
X167269500Y-102606072D01*
X167440316Y-102589248D01*
X167604567Y-102539423D01*
X167755942Y-102458512D01*
X167888623Y-102349623D01*
X167997512Y-102216942D01*
X168078423Y-102065567D01*
X168128248Y-101901316D01*
X168145072Y-101730500D01*
X168145072Y-101230500D01*
X168128248Y-101059684D01*
X168078423Y-100895433D01*
X167997512Y-100744058D01*
X167888623Y-100611377D01*
X167835768Y-100568000D01*
X167888623Y-100524623D01*
X167997512Y-100391942D01*
X168078423Y-100240567D01*
X168128248Y-100076316D01*
X168145072Y-99905500D01*
X168145072Y-99405500D01*
X168128248Y-99234684D01*
X168078423Y-99070433D01*
X167997512Y-98919058D01*
X167888623Y-98786377D01*
X167755942Y-98677488D01*
X167604567Y-98596577D01*
X167557000Y-98582148D01*
X167557000Y-98195000D01*
X170222000Y-98195000D01*
X170222000Y-99622664D01*
G36*
X143207626Y-107771937D02*
G01*
X143377144Y-107885205D01*
X143565502Y-107963226D01*
X143765461Y-108003000D01*
X143969339Y-108003000D01*
X144169298Y-107963226D01*
X144243928Y-107932313D01*
X144243928Y-108043000D01*
X144256188Y-108167482D01*
X144256345Y-108168000D01*
X144256188Y-108168518D01*
X144243928Y-108293000D01*
X144243928Y-108843000D01*
X144256188Y-108967482D01*
X144256546Y-108968663D01*
X144247000Y-109082250D01*
X144339083Y-109174333D01*
X144351463Y-109197494D01*
X144430815Y-109294185D01*
X144520759Y-109368000D01*
X144430815Y-109441815D01*
X144351463Y-109538506D01*
X144339083Y-109561667D01*
X144247000Y-109653750D01*
X144256546Y-109767337D01*
X144256188Y-109768518D01*
X144243928Y-109893000D01*
X144243928Y-110443000D01*
X144256188Y-110567482D01*
X144256345Y-110568000D01*
X144256188Y-110568518D01*
X144243928Y-110693000D01*
X144243928Y-111243000D01*
X144256188Y-111367482D01*
X144256345Y-111368000D01*
X144256188Y-111368518D01*
X144243928Y-111493000D01*
X144243928Y-112043000D01*
X144256188Y-112167482D01*
X144291230Y-112283000D01*
X134808379Y-112283000D01*
X134159002Y-111633623D01*
X134159002Y-111594252D01*
X134317750Y-111753000D01*
X134632000Y-111756072D01*
X134756482Y-111743812D01*
X134876180Y-111707502D01*
X134986494Y-111648537D01*
X135083185Y-111569185D01*
X135162537Y-111472494D01*
X135221502Y-111362180D01*
X135257812Y-111242482D01*
X135270072Y-111118000D01*
X135267000Y-110903750D01*
X135108250Y-110745000D01*
X134159000Y-110745000D01*
X134159000Y-110765000D01*
X133905000Y-110765000D01*
X133905000Y-110745000D01*
X133885000Y-110745000D01*
X133885000Y-110491000D01*
X133905000Y-110491000D01*
X133905000Y-110471000D01*
X134159000Y-110471000D01*
X134159000Y-110491000D01*
X135108250Y-110491000D01*
X135267000Y-110332250D01*
X135270072Y-110118000D01*
X135257812Y-109993518D01*
X135221502Y-109873820D01*
X135164939Y-109768000D01*
X135221502Y-109662180D01*
X135257812Y-109542482D01*
X135270072Y-109418000D01*
X135270072Y-108853000D01*
X137658031Y-108853000D01*
X137701500Y-108857281D01*
X137744969Y-108853000D01*
X137744977Y-108853000D01*
X137874990Y-108840195D01*
X138041813Y-108789589D01*
X138195559Y-108707411D01*
X138330317Y-108596817D01*
X138358034Y-108563044D01*
X139194533Y-107726546D01*
X139229488Y-107791942D01*
X139338377Y-107924623D01*
X139347001Y-107931700D01*
X139347000Y-109145833D01*
X139291463Y-109213506D01*
X139232498Y-109323820D01*
X139196188Y-109443518D01*
X139183928Y-109568000D01*
X139183928Y-110568000D01*
X139196188Y-110692482D01*
X139232498Y-110812180D01*
X139291463Y-110922494D01*
X139370815Y-111019185D01*
X139467506Y-111098537D01*
X139577820Y-111157502D01*
X139697518Y-111193812D01*
X139822000Y-111206072D01*
X140642000Y-111206072D01*
X140766482Y-111193812D01*
X140886180Y-111157502D01*
X140996494Y-111098537D01*
X141032000Y-111069398D01*
X141067506Y-111098537D01*
X141177820Y-111157502D01*
X141297518Y-111193812D01*
X141422000Y-111206072D01*
X141546250Y-111203000D01*
X141705000Y-111044250D01*
X141705000Y-110195000D01*
X141959000Y-110195000D01*
X141959000Y-111044250D01*
X142117750Y-111203000D01*
X142242000Y-111206072D01*
X142366482Y-111193812D01*
X142486180Y-111157502D01*
X142596494Y-111098537D01*
X142693185Y-111019185D01*
X142772537Y-110922494D01*
X142831502Y-110812180D01*
X142867812Y-110692482D01*
X142880072Y-110568000D01*
X142877000Y-110353750D01*
X142718250Y-110195000D01*
X141959000Y-110195000D01*
X141705000Y-110195000D01*
X141685000Y-110195000D01*
X141685000Y-109941000D01*
X141705000Y-109941000D01*
X141705000Y-109091750D01*
X141959000Y-109091750D01*
X141959000Y-109941000D01*
X142718250Y-109941000D01*
X142877000Y-109782250D01*
X142880072Y-109568000D01*
X142867812Y-109443518D01*
X142831502Y-109323820D01*
X142772537Y-109213506D01*
X142693185Y-109116815D01*
X142596494Y-109037463D01*
X142486180Y-108978498D01*
X142366482Y-108942188D01*
X142242000Y-108929928D01*
X142117750Y-108933000D01*
X141959000Y-109091750D01*
X141705000Y-109091750D01*
X141546250Y-108933000D01*
X141422000Y-108929928D01*
X141297518Y-108942188D01*
X141177820Y-108978498D01*
X141117000Y-109011007D01*
X141117000Y-107875424D01*
X141120000Y-107871768D01*
X141163377Y-107924623D01*
X141296058Y-108033512D01*
X141447433Y-108114423D01*
X141611684Y-108164248D01*
X141782500Y-108181072D01*
X142282500Y-108181072D01*
X142453316Y-108164248D01*
X142617567Y-108114423D01*
X142768942Y-108033512D01*
X142901623Y-107924623D01*
X143010512Y-107791942D01*
X143086140Y-107650451D01*
X143207626Y-107771937D01*
G37*
X143207626Y-107771937D02*
X143377144Y-107885205D01*
X143565502Y-107963226D01*
X143765461Y-108003000D01*
X143969339Y-108003000D01*
X144169298Y-107963226D01*
X144243928Y-107932313D01*
X144243928Y-108043000D01*
X144256188Y-108167482D01*
X144256345Y-108168000D01*
X144256188Y-108168518D01*
X144243928Y-108293000D01*
X144243928Y-108843000D01*
X144256188Y-108967482D01*
X144256546Y-108968663D01*
X144247000Y-109082250D01*
X144339083Y-109174333D01*
X144351463Y-109197494D01*
X144430815Y-109294185D01*
X144520759Y-109368000D01*
X144430815Y-109441815D01*
X144351463Y-109538506D01*
X144339083Y-109561667D01*
X144247000Y-109653750D01*
X144256546Y-109767337D01*
X144256188Y-109768518D01*
X144243928Y-109893000D01*
X144243928Y-110443000D01*
X144256188Y-110567482D01*
X144256345Y-110568000D01*
X144256188Y-110568518D01*
X144243928Y-110693000D01*
X144243928Y-111243000D01*
X144256188Y-111367482D01*
X144256345Y-111368000D01*
X144256188Y-111368518D01*
X144243928Y-111493000D01*
X144243928Y-112043000D01*
X144256188Y-112167482D01*
X144291230Y-112283000D01*
X134808379Y-112283000D01*
X134159002Y-111633623D01*
X134159002Y-111594252D01*
X134317750Y-111753000D01*
X134632000Y-111756072D01*
X134756482Y-111743812D01*
X134876180Y-111707502D01*
X134986494Y-111648537D01*
X135083185Y-111569185D01*
X135162537Y-111472494D01*
X135221502Y-111362180D01*
X135257812Y-111242482D01*
X135270072Y-111118000D01*
X135267000Y-110903750D01*
X135108250Y-110745000D01*
X134159000Y-110745000D01*
X134159000Y-110765000D01*
X133905000Y-110765000D01*
X133905000Y-110745000D01*
X133885000Y-110745000D01*
X133885000Y-110491000D01*
X133905000Y-110491000D01*
X133905000Y-110471000D01*
X134159000Y-110471000D01*
X134159000Y-110491000D01*
X135108250Y-110491000D01*
X135267000Y-110332250D01*
X135270072Y-110118000D01*
X135257812Y-109993518D01*
X135221502Y-109873820D01*
X135164939Y-109768000D01*
X135221502Y-109662180D01*
X135257812Y-109542482D01*
X135270072Y-109418000D01*
X135270072Y-108853000D01*
X137658031Y-108853000D01*
X137701500Y-108857281D01*
X137744969Y-108853000D01*
X137744977Y-108853000D01*
X137874990Y-108840195D01*
X138041813Y-108789589D01*
X138195559Y-108707411D01*
X138330317Y-108596817D01*
X138358034Y-108563044D01*
X139194533Y-107726546D01*
X139229488Y-107791942D01*
X139338377Y-107924623D01*
X139347001Y-107931700D01*
X139347000Y-109145833D01*
X139291463Y-109213506D01*
X139232498Y-109323820D01*
X139196188Y-109443518D01*
X139183928Y-109568000D01*
X139183928Y-110568000D01*
X139196188Y-110692482D01*
X139232498Y-110812180D01*
X139291463Y-110922494D01*
X139370815Y-111019185D01*
X139467506Y-111098537D01*
X139577820Y-111157502D01*
X139697518Y-111193812D01*
X139822000Y-111206072D01*
X140642000Y-111206072D01*
X140766482Y-111193812D01*
X140886180Y-111157502D01*
X140996494Y-111098537D01*
X141032000Y-111069398D01*
X141067506Y-111098537D01*
X141177820Y-111157502D01*
X141297518Y-111193812D01*
X141422000Y-111206072D01*
X141546250Y-111203000D01*
X141705000Y-111044250D01*
X141705000Y-110195000D01*
X141959000Y-110195000D01*
X141959000Y-111044250D01*
X142117750Y-111203000D01*
X142242000Y-111206072D01*
X142366482Y-111193812D01*
X142486180Y-111157502D01*
X142596494Y-111098537D01*
X142693185Y-111019185D01*
X142772537Y-110922494D01*
X142831502Y-110812180D01*
X142867812Y-110692482D01*
X142880072Y-110568000D01*
X142877000Y-110353750D01*
X142718250Y-110195000D01*
X141959000Y-110195000D01*
X141705000Y-110195000D01*
X141685000Y-110195000D01*
X141685000Y-109941000D01*
X141705000Y-109941000D01*
X141705000Y-109091750D01*
X141959000Y-109091750D01*
X141959000Y-109941000D01*
X142718250Y-109941000D01*
X142877000Y-109782250D01*
X142880072Y-109568000D01*
X142867812Y-109443518D01*
X142831502Y-109323820D01*
X142772537Y-109213506D01*
X142693185Y-109116815D01*
X142596494Y-109037463D01*
X142486180Y-108978498D01*
X142366482Y-108942188D01*
X142242000Y-108929928D01*
X142117750Y-108933000D01*
X141959000Y-109091750D01*
X141705000Y-109091750D01*
X141546250Y-108933000D01*
X141422000Y-108929928D01*
X141297518Y-108942188D01*
X141177820Y-108978498D01*
X141117000Y-109011007D01*
X141117000Y-107875424D01*
X141120000Y-107871768D01*
X141163377Y-107924623D01*
X141296058Y-108033512D01*
X141447433Y-108114423D01*
X141611684Y-108164248D01*
X141782500Y-108181072D01*
X142282500Y-108181072D01*
X142453316Y-108164248D01*
X142617567Y-108114423D01*
X142768942Y-108033512D01*
X142901623Y-107924623D01*
X143010512Y-107791942D01*
X143086140Y-107650451D01*
X143207626Y-107771937D01*
G36*
X152647000Y-110295002D02*
G01*
X152787166Y-110295002D01*
X152751463Y-110338506D01*
X152739083Y-110361667D01*
X152647000Y-110453750D01*
X152656546Y-110567337D01*
X152656188Y-110568518D01*
X152643928Y-110693000D01*
X152643928Y-110776300D01*
X152457261Y-110776300D01*
X152257302Y-110816074D01*
X152068944Y-110894095D01*
X151899426Y-111007363D01*
X151873789Y-111033000D01*
X151075477Y-111033000D01*
X151032000Y-111028718D01*
X150988524Y-111033000D01*
X150988523Y-111033000D01*
X150858510Y-111045805D01*
X150691687Y-111096411D01*
X150672334Y-111106755D01*
X149818578Y-110253000D01*
X152647000Y-110253000D01*
X152647000Y-110295002D01*
G37*
X152647000Y-110295002D02*
X152787166Y-110295002D01*
X152751463Y-110338506D01*
X152739083Y-110361667D01*
X152647000Y-110453750D01*
X152656546Y-110567337D01*
X152656188Y-110568518D01*
X152643928Y-110693000D01*
X152643928Y-110776300D01*
X152457261Y-110776300D01*
X152257302Y-110816074D01*
X152068944Y-110894095D01*
X151899426Y-111007363D01*
X151873789Y-111033000D01*
X151075477Y-111033000D01*
X151032000Y-111028718D01*
X150988524Y-111033000D01*
X150988523Y-111033000D01*
X150858510Y-111045805D01*
X150691687Y-111096411D01*
X150672334Y-111106755D01*
X149818578Y-110253000D01*
X152647000Y-110253000D01*
X152647000Y-110295002D01*
G36*
X152232518Y-106143812D02*
G01*
X152357000Y-106156072D01*
X152643928Y-106156072D01*
X152643928Y-106443000D01*
X152656188Y-106567482D01*
X152656345Y-106568000D01*
X152656188Y-106568518D01*
X152643928Y-106693000D01*
X152643928Y-107243000D01*
X152656188Y-107367482D01*
X152656345Y-107368000D01*
X152656188Y-107368518D01*
X152643928Y-107493000D01*
X152643928Y-108043000D01*
X152656188Y-108167482D01*
X152656546Y-108168663D01*
X152647000Y-108282250D01*
X152739083Y-108374333D01*
X152751463Y-108397494D01*
X152787166Y-108440998D01*
X152647000Y-108440998D01*
X152647000Y-108483000D01*
X148048579Y-108483000D01*
X147767000Y-108201422D01*
X147767000Y-107226469D01*
X147771281Y-107183000D01*
X147767000Y-107139531D01*
X147767000Y-107139523D01*
X147754195Y-107009510D01*
X147749521Y-106994100D01*
X147739120Y-106959814D01*
X147703589Y-106842687D01*
X147621411Y-106688941D01*
X147510817Y-106554183D01*
X147477045Y-106526467D01*
X147323534Y-106372956D01*
X147295817Y-106339183D01*
X147161059Y-106228589D01*
X147025388Y-106156072D01*
X147307000Y-106156072D01*
X147431482Y-106143812D01*
X147432000Y-106143655D01*
X147432518Y-106143812D01*
X147557000Y-106156072D01*
X148107000Y-106156072D01*
X148231482Y-106143812D01*
X148232000Y-106143655D01*
X148232518Y-106143812D01*
X148357000Y-106156072D01*
X148907000Y-106156072D01*
X149031482Y-106143812D01*
X149032000Y-106143655D01*
X149032518Y-106143812D01*
X149157000Y-106156072D01*
X149707000Y-106156072D01*
X149831482Y-106143812D01*
X149832000Y-106143655D01*
X149832518Y-106143812D01*
X149957000Y-106156072D01*
X150507000Y-106156072D01*
X150631482Y-106143812D01*
X150632000Y-106143655D01*
X150632518Y-106143812D01*
X150757000Y-106156072D01*
X151307000Y-106156072D01*
X151431482Y-106143812D01*
X151432000Y-106143655D01*
X151432518Y-106143812D01*
X151557000Y-106156072D01*
X152107000Y-106156072D01*
X152231482Y-106143812D01*
X152232000Y-106143655D01*
X152232518Y-106143812D01*
G37*
X152232518Y-106143812D02*
X152357000Y-106156072D01*
X152643928Y-106156072D01*
X152643928Y-106443000D01*
X152656188Y-106567482D01*
X152656345Y-106568000D01*
X152656188Y-106568518D01*
X152643928Y-106693000D01*
X152643928Y-107243000D01*
X152656188Y-107367482D01*
X152656345Y-107368000D01*
X152656188Y-107368518D01*
X152643928Y-107493000D01*
X152643928Y-108043000D01*
X152656188Y-108167482D01*
X152656546Y-108168663D01*
X152647000Y-108282250D01*
X152739083Y-108374333D01*
X152751463Y-108397494D01*
X152787166Y-108440998D01*
X152647000Y-108440998D01*
X152647000Y-108483000D01*
X148048579Y-108483000D01*
X147767000Y-108201422D01*
X147767000Y-107226469D01*
X147771281Y-107183000D01*
X147767000Y-107139531D01*
X147767000Y-107139523D01*
X147754195Y-107009510D01*
X147749521Y-106994100D01*
X147739120Y-106959814D01*
X147703589Y-106842687D01*
X147621411Y-106688941D01*
X147510817Y-106554183D01*
X147477045Y-106526467D01*
X147323534Y-106372956D01*
X147295817Y-106339183D01*
X147161059Y-106228589D01*
X147025388Y-106156072D01*
X147307000Y-106156072D01*
X147431482Y-106143812D01*
X147432000Y-106143655D01*
X147432518Y-106143812D01*
X147557000Y-106156072D01*
X148107000Y-106156072D01*
X148231482Y-106143812D01*
X148232000Y-106143655D01*
X148232518Y-106143812D01*
X148357000Y-106156072D01*
X148907000Y-106156072D01*
X149031482Y-106143812D01*
X149032000Y-106143655D01*
X149032518Y-106143812D01*
X149157000Y-106156072D01*
X149707000Y-106156072D01*
X149831482Y-106143812D01*
X149832000Y-106143655D01*
X149832518Y-106143812D01*
X149957000Y-106156072D01*
X150507000Y-106156072D01*
X150631482Y-106143812D01*
X150632000Y-106143655D01*
X150632518Y-106143812D01*
X150757000Y-106156072D01*
X151307000Y-106156072D01*
X151431482Y-106143812D01*
X151432000Y-106143655D01*
X151432518Y-106143812D01*
X151557000Y-106156072D01*
X152107000Y-106156072D01*
X152231482Y-106143812D01*
X152232000Y-106143655D01*
X152232518Y-106143812D01*
M02*
