G04 #@! TF.GenerationSoftware,KiCad,Pcbnew,(5.1.5)-3*
G04 #@! TF.CreationDate,2023-01-26T09:30:51+09:00*
G04 #@! TF.ProjectId,raspberrypi_zerow_uhat,72617370-6265-4727-9279-70695f7a6572,1.0*
G04 #@! TF.SameCoordinates,Original*
G04 #@! TF.FileFunction,Copper,L2,Bot*
G04 #@! TF.FilePolarity,Positive*
%FSLAX46Y46*%
G04 Gerber Fmt 4.6, Leading zero omitted, Abs format (unit mm)*
G04 Created by KiCad (PCBNEW (5.1.5)-3) date 2023-01-26 09:30:51*
%MOMM*%
%LPD*%
G04 APERTURE LIST*
%ADD10O,1.700000X1.700000*%
%ADD11R,1.700000X1.700000*%
%ADD12C,0.800000*%
%ADD13C,0.500000*%
%ADD14C,1.200000*%
%ADD15C,0.800000*%
%ADD16C,0.254000*%
G04 APERTURE END LIST*
D10*
X174292000Y-93528000D03*
X174292000Y-96068000D03*
X171752000Y-93528000D03*
X171752000Y-96068000D03*
X169212000Y-93528000D03*
X169212000Y-96068000D03*
X166672000Y-93528000D03*
X166672000Y-96068000D03*
X164132000Y-93528000D03*
X164132000Y-96068000D03*
X161592000Y-93528000D03*
X161592000Y-96068000D03*
X159052000Y-93528000D03*
X159052000Y-96068000D03*
X156512000Y-93528000D03*
X156512000Y-96068000D03*
X153972000Y-93528000D03*
X153972000Y-96068000D03*
X151432000Y-93528000D03*
X151432000Y-96068000D03*
X148892000Y-93528000D03*
X148892000Y-96068000D03*
X146352000Y-93528000D03*
X146352000Y-96068000D03*
X143812000Y-93528000D03*
X143812000Y-96068000D03*
X141272000Y-93528000D03*
X141272000Y-96068000D03*
X138732000Y-93528000D03*
X138732000Y-96068000D03*
X136192000Y-93528000D03*
X136192000Y-96068000D03*
X133652000Y-93528000D03*
X133652000Y-96068000D03*
X131112000Y-93528000D03*
X131112000Y-96068000D03*
X128572000Y-93528000D03*
X128572000Y-96068000D03*
X126032000Y-93528000D03*
D11*
X126032000Y-96068000D03*
D12*
X143867400Y-106968000D03*
X140131700Y-105768000D03*
X133697900Y-99437700D03*
X152638300Y-110251000D03*
X152615900Y-108385700D03*
X119382000Y-101218000D03*
X119382000Y-105218000D03*
X119382000Y-111218000D03*
X121032000Y-110568000D03*
X121032000Y-104568000D03*
X123032000Y-105568000D03*
X123032000Y-109568000D03*
X124032000Y-111568000D03*
X124032000Y-113568000D03*
X128032000Y-113568000D03*
X132032000Y-113568000D03*
X127032000Y-111568000D03*
X130032000Y-111568000D03*
X125032000Y-107568000D03*
X127032000Y-108568000D03*
X122032000Y-102568000D03*
X137532000Y-103068000D03*
X137532000Y-101068000D03*
X136532000Y-102068000D03*
X145532000Y-104568000D03*
X119382000Y-108718000D03*
X121032000Y-107068000D03*
X137081600Y-111018400D03*
X135782000Y-111818000D03*
X135782000Y-110068000D03*
X149532000Y-108068000D03*
X149532000Y-106568000D03*
X151532000Y-106568000D03*
X151532000Y-108068000D03*
X161532000Y-108068000D03*
X163532000Y-106494200D03*
X165532000Y-104568000D03*
X167032000Y-103068000D03*
X161532000Y-102068000D03*
X163282000Y-101318000D03*
X160782000Y-100068000D03*
X159532000Y-99068000D03*
X158532000Y-100068000D03*
X157532000Y-99068000D03*
X150782000Y-102818000D03*
X151032000Y-100568000D03*
X151032000Y-98818000D03*
X147032800Y-110626900D03*
X153632700Y-118508300D03*
X147411800Y-100453900D03*
X135272800Y-106893000D03*
X135264800Y-104668000D03*
X139050000Y-106619500D03*
X141995000Y-98716700D03*
X152559200Y-111811300D03*
X165358400Y-101480500D03*
D13*
X143812000Y-96068000D02*
X143812000Y-96743000D01*
D14*
X143812000Y-96068000D02*
X143812000Y-93528000D01*
X143812000Y-93528000D02*
X141272000Y-93528000D01*
X141272000Y-93528000D02*
X141272000Y-96068000D01*
X143812000Y-96068000D02*
X141272000Y-96068000D01*
X143812000Y-97418000D02*
X143812000Y-96068000D01*
X143867400Y-97473400D02*
X143812000Y-97418000D01*
X143867400Y-106968000D02*
X143467401Y-106568001D01*
X143467401Y-106568001D02*
X143087401Y-106568001D01*
X143087401Y-106568001D02*
X142287400Y-105768000D01*
D13*
X142287400Y-105768000D02*
X142477400Y-105578000D01*
D14*
X140131700Y-105768000D02*
X142287400Y-105768000D01*
X143867400Y-106968000D02*
X143867400Y-97473400D01*
D13*
X152615900Y-108385700D02*
X152638300Y-108408100D01*
D14*
X133697900Y-96113900D02*
X133652000Y-96068000D01*
X133697900Y-99437700D02*
X133697900Y-96113900D01*
X133652000Y-96068000D02*
X136192000Y-96068000D01*
X136192000Y-96068000D02*
X136192000Y-93528000D01*
X131112000Y-93528000D02*
X136192000Y-93528000D01*
X133652000Y-96068000D02*
X133652000Y-93528000D01*
D15*
X146352000Y-92325919D02*
X146352000Y-93528000D01*
X146094081Y-92068000D02*
X146352000Y-92325919D01*
X136192000Y-92325919D02*
X136449919Y-92068000D01*
X136449919Y-92068000D02*
X146094081Y-92068000D01*
X136192000Y-93528000D02*
X136192000Y-92325919D01*
D14*
X146352000Y-93528000D02*
X146352000Y-96068000D01*
X153972000Y-107029600D02*
X153972000Y-96068000D01*
X152615900Y-108385700D02*
X153972000Y-107029600D01*
X152615900Y-110228600D02*
X152638300Y-110251000D01*
X152615900Y-108385700D02*
X152615900Y-110228600D01*
D13*
X147032800Y-110626900D02*
X141854900Y-110626900D01*
X141854900Y-110626900D02*
X138199700Y-106971700D01*
X138199700Y-106971700D02*
X138199700Y-106051400D01*
X138199700Y-106051400D02*
X131112000Y-98963700D01*
X131112000Y-98963700D02*
X131112000Y-97418000D01*
X131112000Y-96068000D02*
X131112000Y-97418000D01*
X169212000Y-96068000D02*
X169212000Y-102929000D01*
X169212000Y-102929000D02*
X153632700Y-118508300D01*
X135272800Y-106893000D02*
X139886700Y-111506900D01*
X139886700Y-111506900D02*
X147369400Y-111506900D01*
X147369400Y-111506900D02*
X147906300Y-110970000D01*
X147906300Y-110970000D02*
X147906300Y-100948400D01*
X147906300Y-100948400D02*
X147411800Y-100453900D01*
X128572000Y-93528000D02*
X127254000Y-92210000D01*
X127254000Y-92210000D02*
X125510900Y-92210000D01*
X125510900Y-92210000D02*
X124729900Y-92991000D01*
X124729900Y-92991000D02*
X124729900Y-97120100D01*
X124729900Y-97120100D02*
X134502800Y-106893000D01*
X134502800Y-106893000D02*
X135272800Y-106893000D01*
X128572000Y-97418000D02*
X135264800Y-104110800D01*
X135264800Y-104110800D02*
X135264800Y-104668000D01*
X128572000Y-96068000D02*
X128572000Y-97418000D01*
X139050000Y-106619500D02*
X139050000Y-101661700D01*
X139050000Y-101661700D02*
X141995000Y-98716700D01*
X165358400Y-101480500D02*
X155027600Y-111811300D01*
X155027600Y-111811300D02*
X152559200Y-111811300D01*
D16*
G36*
X133846270Y-107488049D02*
G01*
X133873983Y-107521817D01*
X133907751Y-107549530D01*
X133907753Y-107549532D01*
X133969045Y-107599833D01*
X134008741Y-107632411D01*
X134162487Y-107714589D01*
X134329310Y-107765195D01*
X134459323Y-107778000D01*
X134459331Y-107778000D01*
X134502800Y-107782281D01*
X134546269Y-107778000D01*
X134734346Y-107778000D01*
X134782544Y-107810205D01*
X134970902Y-107888226D01*
X135027757Y-107899535D01*
X139230170Y-112101949D01*
X139257883Y-112135717D01*
X139291651Y-112163430D01*
X139291653Y-112163432D01*
X139363152Y-112222110D01*
X139392641Y-112246311D01*
X139546387Y-112328489D01*
X139662603Y-112363743D01*
X139713209Y-112379095D01*
X139728006Y-112380552D01*
X139843223Y-112391900D01*
X139843231Y-112391900D01*
X139886700Y-112396181D01*
X139930169Y-112391900D01*
X147325931Y-112391900D01*
X147369400Y-112396181D01*
X147412869Y-112391900D01*
X147412877Y-112391900D01*
X147542890Y-112379095D01*
X147709713Y-112328489D01*
X147863459Y-112246311D01*
X147998217Y-112135717D01*
X148025934Y-112101944D01*
X148501345Y-111626533D01*
X148535117Y-111598817D01*
X148645711Y-111464059D01*
X148727889Y-111310313D01*
X148778495Y-111143490D01*
X148791300Y-111013477D01*
X148791300Y-111013467D01*
X148795581Y-110970001D01*
X148791300Y-110926535D01*
X148791300Y-100991869D01*
X148795581Y-100948400D01*
X148791300Y-100904931D01*
X148791300Y-100904923D01*
X148778495Y-100774910D01*
X148733745Y-100627390D01*
X148727889Y-100608086D01*
X148645711Y-100454341D01*
X148562832Y-100353354D01*
X148535117Y-100319583D01*
X148501344Y-100291866D01*
X148418335Y-100208857D01*
X148407026Y-100152002D01*
X148329005Y-99963644D01*
X148215737Y-99794126D01*
X148071574Y-99649963D01*
X147902056Y-99536695D01*
X147713698Y-99458674D01*
X147513739Y-99418900D01*
X147309861Y-99418900D01*
X147109902Y-99458674D01*
X146921544Y-99536695D01*
X146752026Y-99649963D01*
X146607863Y-99794126D01*
X146494595Y-99963644D01*
X146416574Y-100152002D01*
X146376800Y-100351961D01*
X146376800Y-100555839D01*
X146416574Y-100755798D01*
X146494595Y-100944156D01*
X146607863Y-101113674D01*
X146752026Y-101257837D01*
X146921544Y-101371105D01*
X147021301Y-101412426D01*
X147021300Y-109591900D01*
X146930861Y-109591900D01*
X146730902Y-109631674D01*
X146542544Y-109709695D01*
X146494346Y-109741900D01*
X142221479Y-109741900D01*
X139806395Y-107326816D01*
X139853937Y-107279274D01*
X139967205Y-107109756D01*
X140013762Y-106997359D01*
X140071035Y-107003000D01*
X141775847Y-107003000D01*
X142171222Y-107398375D01*
X142209899Y-107445503D01*
X142397952Y-107599834D01*
X142612500Y-107714512D01*
X142845299Y-107785131D01*
X142948103Y-107795256D01*
X142951223Y-107798376D01*
X142989898Y-107845502D01*
X143177951Y-107999833D01*
X143392499Y-108114511D01*
X143547698Y-108161590D01*
X143625297Y-108185130D01*
X143867399Y-108208975D01*
X143867400Y-108208975D01*
X143988450Y-108197053D01*
X144109502Y-108185130D01*
X144225900Y-108149821D01*
X144342300Y-108114511D01*
X144556848Y-107999833D01*
X144744902Y-107845502D01*
X144899233Y-107657449D01*
X145013911Y-107442901D01*
X145084530Y-107210102D01*
X145102400Y-107028665D01*
X145102400Y-107028664D01*
X145108375Y-106967999D01*
X145102400Y-106907334D01*
X145102400Y-98195000D01*
X168327000Y-98195000D01*
X168327001Y-102562420D01*
X160659000Y-110230422D01*
X160659000Y-107431478D01*
X165603444Y-102487035D01*
X165660298Y-102475726D01*
X165848656Y-102397705D01*
X166018174Y-102284437D01*
X166162337Y-102140274D01*
X166275605Y-101970756D01*
X166353626Y-101782398D01*
X166393400Y-101582439D01*
X166393400Y-101378561D01*
X166353626Y-101178602D01*
X166275605Y-100990244D01*
X166162337Y-100820726D01*
X166018174Y-100676563D01*
X165848656Y-100563295D01*
X165660298Y-100485274D01*
X165460339Y-100445500D01*
X165256461Y-100445500D01*
X165056502Y-100485274D01*
X164868144Y-100563295D01*
X164698626Y-100676563D01*
X164554463Y-100820726D01*
X164441195Y-100990244D01*
X164363174Y-101178602D01*
X164351865Y-101235456D01*
X160659000Y-104928321D01*
X160659000Y-100568000D01*
X160656560Y-100543224D01*
X160649333Y-100519399D01*
X160637597Y-100497443D01*
X160621803Y-100478197D01*
X160602557Y-100462403D01*
X160580601Y-100450667D01*
X160556776Y-100443440D01*
X160532000Y-100441000D01*
X157532000Y-100441000D01*
X157507224Y-100443440D01*
X157483399Y-100450667D01*
X157461443Y-100462403D01*
X157442197Y-100478197D01*
X157426403Y-100497443D01*
X157414667Y-100519399D01*
X157407440Y-100543224D01*
X157405000Y-100568000D01*
X157405000Y-108182322D01*
X154661022Y-110926300D01*
X153097654Y-110926300D01*
X153049456Y-110894095D01*
X152861098Y-110816074D01*
X152661139Y-110776300D01*
X152457261Y-110776300D01*
X152257302Y-110816074D01*
X152068944Y-110894095D01*
X151899426Y-111007363D01*
X151755263Y-111151526D01*
X151641995Y-111321044D01*
X151563974Y-111509402D01*
X151524200Y-111709361D01*
X151524200Y-111913239D01*
X151563974Y-112113198D01*
X151641995Y-112301556D01*
X151755263Y-112471074D01*
X151899426Y-112615237D01*
X152068944Y-112728505D01*
X152257302Y-112806526D01*
X152457261Y-112846300D01*
X152661139Y-112846300D01*
X152861098Y-112806526D01*
X153049456Y-112728505D01*
X153097654Y-112696300D01*
X154984131Y-112696300D01*
X155027600Y-112700581D01*
X155071069Y-112696300D01*
X155071077Y-112696300D01*
X155201090Y-112683495D01*
X155367913Y-112632889D01*
X155521659Y-112550711D01*
X155656417Y-112440117D01*
X155684134Y-112406344D01*
X157405000Y-110685478D01*
X157405000Y-113484422D01*
X156448422Y-114441000D01*
X121852565Y-114441000D01*
X121349832Y-114341000D01*
X120714168Y-114341000D01*
X120211435Y-114441000D01*
X118242000Y-114441000D01*
X118242000Y-98195000D01*
X124553222Y-98195000D01*
X133846270Y-107488049D01*
G37*
X133846270Y-107488049D02*
X133873983Y-107521817D01*
X133907751Y-107549530D01*
X133907753Y-107549532D01*
X133969045Y-107599833D01*
X134008741Y-107632411D01*
X134162487Y-107714589D01*
X134329310Y-107765195D01*
X134459323Y-107778000D01*
X134459331Y-107778000D01*
X134502800Y-107782281D01*
X134546269Y-107778000D01*
X134734346Y-107778000D01*
X134782544Y-107810205D01*
X134970902Y-107888226D01*
X135027757Y-107899535D01*
X139230170Y-112101949D01*
X139257883Y-112135717D01*
X139291651Y-112163430D01*
X139291653Y-112163432D01*
X139363152Y-112222110D01*
X139392641Y-112246311D01*
X139546387Y-112328489D01*
X139662603Y-112363743D01*
X139713209Y-112379095D01*
X139728006Y-112380552D01*
X139843223Y-112391900D01*
X139843231Y-112391900D01*
X139886700Y-112396181D01*
X139930169Y-112391900D01*
X147325931Y-112391900D01*
X147369400Y-112396181D01*
X147412869Y-112391900D01*
X147412877Y-112391900D01*
X147542890Y-112379095D01*
X147709713Y-112328489D01*
X147863459Y-112246311D01*
X147998217Y-112135717D01*
X148025934Y-112101944D01*
X148501345Y-111626533D01*
X148535117Y-111598817D01*
X148645711Y-111464059D01*
X148727889Y-111310313D01*
X148778495Y-111143490D01*
X148791300Y-111013477D01*
X148791300Y-111013467D01*
X148795581Y-110970001D01*
X148791300Y-110926535D01*
X148791300Y-100991869D01*
X148795581Y-100948400D01*
X148791300Y-100904931D01*
X148791300Y-100904923D01*
X148778495Y-100774910D01*
X148733745Y-100627390D01*
X148727889Y-100608086D01*
X148645711Y-100454341D01*
X148562832Y-100353354D01*
X148535117Y-100319583D01*
X148501344Y-100291866D01*
X148418335Y-100208857D01*
X148407026Y-100152002D01*
X148329005Y-99963644D01*
X148215737Y-99794126D01*
X148071574Y-99649963D01*
X147902056Y-99536695D01*
X147713698Y-99458674D01*
X147513739Y-99418900D01*
X147309861Y-99418900D01*
X147109902Y-99458674D01*
X146921544Y-99536695D01*
X146752026Y-99649963D01*
X146607863Y-99794126D01*
X146494595Y-99963644D01*
X146416574Y-100152002D01*
X146376800Y-100351961D01*
X146376800Y-100555839D01*
X146416574Y-100755798D01*
X146494595Y-100944156D01*
X146607863Y-101113674D01*
X146752026Y-101257837D01*
X146921544Y-101371105D01*
X147021301Y-101412426D01*
X147021300Y-109591900D01*
X146930861Y-109591900D01*
X146730902Y-109631674D01*
X146542544Y-109709695D01*
X146494346Y-109741900D01*
X142221479Y-109741900D01*
X139806395Y-107326816D01*
X139853937Y-107279274D01*
X139967205Y-107109756D01*
X140013762Y-106997359D01*
X140071035Y-107003000D01*
X141775847Y-107003000D01*
X142171222Y-107398375D01*
X142209899Y-107445503D01*
X142397952Y-107599834D01*
X142612500Y-107714512D01*
X142845299Y-107785131D01*
X142948103Y-107795256D01*
X142951223Y-107798376D01*
X142989898Y-107845502D01*
X143177951Y-107999833D01*
X143392499Y-108114511D01*
X143547698Y-108161590D01*
X143625297Y-108185130D01*
X143867399Y-108208975D01*
X143867400Y-108208975D01*
X143988450Y-108197053D01*
X144109502Y-108185130D01*
X144225900Y-108149821D01*
X144342300Y-108114511D01*
X144556848Y-107999833D01*
X144744902Y-107845502D01*
X144899233Y-107657449D01*
X145013911Y-107442901D01*
X145084530Y-107210102D01*
X145102400Y-107028665D01*
X145102400Y-107028664D01*
X145108375Y-106967999D01*
X145102400Y-106907334D01*
X145102400Y-98195000D01*
X168327000Y-98195000D01*
X168327001Y-102562420D01*
X160659000Y-110230422D01*
X160659000Y-107431478D01*
X165603444Y-102487035D01*
X165660298Y-102475726D01*
X165848656Y-102397705D01*
X166018174Y-102284437D01*
X166162337Y-102140274D01*
X166275605Y-101970756D01*
X166353626Y-101782398D01*
X166393400Y-101582439D01*
X166393400Y-101378561D01*
X166353626Y-101178602D01*
X166275605Y-100990244D01*
X166162337Y-100820726D01*
X166018174Y-100676563D01*
X165848656Y-100563295D01*
X165660298Y-100485274D01*
X165460339Y-100445500D01*
X165256461Y-100445500D01*
X165056502Y-100485274D01*
X164868144Y-100563295D01*
X164698626Y-100676563D01*
X164554463Y-100820726D01*
X164441195Y-100990244D01*
X164363174Y-101178602D01*
X164351865Y-101235456D01*
X160659000Y-104928321D01*
X160659000Y-100568000D01*
X160656560Y-100543224D01*
X160649333Y-100519399D01*
X160637597Y-100497443D01*
X160621803Y-100478197D01*
X160602557Y-100462403D01*
X160580601Y-100450667D01*
X160556776Y-100443440D01*
X160532000Y-100441000D01*
X157532000Y-100441000D01*
X157507224Y-100443440D01*
X157483399Y-100450667D01*
X157461443Y-100462403D01*
X157442197Y-100478197D01*
X157426403Y-100497443D01*
X157414667Y-100519399D01*
X157407440Y-100543224D01*
X157405000Y-100568000D01*
X157405000Y-108182322D01*
X154661022Y-110926300D01*
X153097654Y-110926300D01*
X153049456Y-110894095D01*
X152861098Y-110816074D01*
X152661139Y-110776300D01*
X152457261Y-110776300D01*
X152257302Y-110816074D01*
X152068944Y-110894095D01*
X151899426Y-111007363D01*
X151755263Y-111151526D01*
X151641995Y-111321044D01*
X151563974Y-111509402D01*
X151524200Y-111709361D01*
X151524200Y-111913239D01*
X151563974Y-112113198D01*
X151641995Y-112301556D01*
X151755263Y-112471074D01*
X151899426Y-112615237D01*
X152068944Y-112728505D01*
X152257302Y-112806526D01*
X152457261Y-112846300D01*
X152661139Y-112846300D01*
X152861098Y-112806526D01*
X153049456Y-112728505D01*
X153097654Y-112696300D01*
X154984131Y-112696300D01*
X155027600Y-112700581D01*
X155071069Y-112696300D01*
X155071077Y-112696300D01*
X155201090Y-112683495D01*
X155367913Y-112632889D01*
X155521659Y-112550711D01*
X155656417Y-112440117D01*
X155684134Y-112406344D01*
X157405000Y-110685478D01*
X157405000Y-113484422D01*
X156448422Y-114441000D01*
X121852565Y-114441000D01*
X121349832Y-114341000D01*
X120714168Y-114341000D01*
X120211435Y-114441000D01*
X118242000Y-114441000D01*
X118242000Y-98195000D01*
X124553222Y-98195000D01*
X133846270Y-107488049D01*
G36*
X141077795Y-98226444D02*
G01*
X140999774Y-98414802D01*
X140988465Y-98471656D01*
X138454951Y-101005171D01*
X138421184Y-101032883D01*
X138393471Y-101066651D01*
X138393468Y-101066654D01*
X138310590Y-101167641D01*
X138228412Y-101321387D01*
X138177805Y-101488210D01*
X138160719Y-101661700D01*
X138165001Y-101705179D01*
X138165000Y-104765121D01*
X131997000Y-98597122D01*
X131997000Y-98195000D01*
X141098805Y-98195000D01*
X141077795Y-98226444D01*
G37*
X141077795Y-98226444D02*
X140999774Y-98414802D01*
X140988465Y-98471656D01*
X138454951Y-101005171D01*
X138421184Y-101032883D01*
X138393471Y-101066651D01*
X138393468Y-101066654D01*
X138310590Y-101167641D01*
X138228412Y-101321387D01*
X138177805Y-101488210D01*
X138160719Y-101661700D01*
X138165001Y-101705179D01*
X138165000Y-104765121D01*
X131997000Y-98597122D01*
X131997000Y-98195000D01*
X141098805Y-98195000D01*
X141077795Y-98226444D01*
M02*
