G04 #@! TF.GenerationSoftware,KiCad,Pcbnew,(5.1.5)-3*
G04 #@! TF.CreationDate,2023-01-26T09:30:51+09:00*
G04 #@! TF.ProjectId,raspberrypi_zerow_uhat,72617370-6265-4727-9279-70695f7a6572,1.0*
G04 #@! TF.SameCoordinates,Original*
G04 #@! TF.FileFunction,Legend,Top*
G04 #@! TF.FilePolarity,Positive*
%FSLAX46Y46*%
G04 Gerber Fmt 4.6, Leading zero omitted, Abs format (unit mm)*
G04 Created by KiCad (PCBNEW (5.1.5)-3) date 2023-01-26 09:30:51*
%MOMM*%
%LPD*%
G04 APERTURE LIST*
%ADD10C,0.150000*%
%ADD11C,0.127000*%
%ADD12C,0.200000*%
%ADD13C,0.152400*%
%ADD14C,0.100000*%
%ADD15C,0.120000*%
G04 APERTURE END LIST*
D10*
X173998666Y-97718000D02*
X173932000Y-97684666D01*
X173832000Y-97684666D01*
X173732000Y-97718000D01*
X173665333Y-97784666D01*
X173632000Y-97851333D01*
X173598666Y-97984666D01*
X173598666Y-98084666D01*
X173632000Y-98218000D01*
X173665333Y-98284666D01*
X173732000Y-98351333D01*
X173832000Y-98384666D01*
X173898666Y-98384666D01*
X173998666Y-98351333D01*
X174032000Y-98318000D01*
X174032000Y-98084666D01*
X173898666Y-98084666D01*
X174332000Y-98384666D02*
X174332000Y-97684666D01*
X174732000Y-98384666D01*
X174732000Y-97684666D01*
X175065333Y-98384666D02*
X175065333Y-97684666D01*
X175232000Y-97684666D01*
X175332000Y-97718000D01*
X175398666Y-97784666D01*
X175432000Y-97851333D01*
X175465333Y-97984666D01*
X175465333Y-98084666D01*
X175432000Y-98218000D01*
X175398666Y-98284666D01*
X175332000Y-98351333D01*
X175232000Y-98384666D01*
X175065333Y-98384666D01*
X170948666Y-97684666D02*
X171182000Y-98384666D01*
X171415333Y-97684666D01*
X171948666Y-98351333D02*
X171882000Y-98384666D01*
X171748666Y-98384666D01*
X171682000Y-98351333D01*
X171648666Y-98318000D01*
X171615333Y-98251333D01*
X171615333Y-98051333D01*
X171648666Y-97984666D01*
X171682000Y-97951333D01*
X171748666Y-97918000D01*
X171882000Y-97918000D01*
X171948666Y-97951333D01*
X172548666Y-98351333D02*
X172482000Y-98384666D01*
X172348666Y-98384666D01*
X172282000Y-98351333D01*
X172248666Y-98318000D01*
X172215333Y-98251333D01*
X172215333Y-98051333D01*
X172248666Y-97984666D01*
X172282000Y-97951333D01*
X172348666Y-97918000D01*
X172482000Y-97918000D01*
X172548666Y-97951333D01*
X168998666Y-97684666D02*
X169398666Y-97684666D01*
X169198666Y-98384666D02*
X169198666Y-97684666D01*
X169565333Y-97684666D02*
X170032000Y-98384666D01*
X170032000Y-97684666D02*
X169565333Y-98384666D01*
X163232000Y-98384666D02*
X163232000Y-97684666D01*
X163398666Y-97684666D01*
X163498666Y-97718000D01*
X163565333Y-97784666D01*
X163598666Y-97851333D01*
X163632000Y-97984666D01*
X163632000Y-98084666D01*
X163598666Y-98218000D01*
X163565333Y-98284666D01*
X163498666Y-98351333D01*
X163398666Y-98384666D01*
X163232000Y-98384666D01*
X163832000Y-97684666D02*
X164232000Y-97684666D01*
X164032000Y-98384666D02*
X164032000Y-97684666D01*
X164865333Y-98384666D02*
X164632000Y-98051333D01*
X164465333Y-98384666D02*
X164465333Y-97684666D01*
X164732000Y-97684666D01*
X164798666Y-97718000D01*
X164832000Y-97751333D01*
X164865333Y-97818000D01*
X164865333Y-97918000D01*
X164832000Y-97984666D01*
X164798666Y-98018000D01*
X164732000Y-98051333D01*
X164465333Y-98051333D01*
X166665333Y-98384666D02*
X166432000Y-98051333D01*
X166265333Y-98384666D02*
X166265333Y-97684666D01*
X166532000Y-97684666D01*
X166598666Y-97718000D01*
X166632000Y-97751333D01*
X166665333Y-97818000D01*
X166665333Y-97918000D01*
X166632000Y-97984666D01*
X166598666Y-98018000D01*
X166532000Y-98051333D01*
X166265333Y-98051333D01*
X166898666Y-97684666D02*
X167365333Y-98384666D01*
X167365333Y-97684666D02*
X166898666Y-98384666D01*
X130998666Y-91468000D02*
X130932000Y-91434666D01*
X130832000Y-91434666D01*
X130732000Y-91468000D01*
X130665333Y-91534666D01*
X130632000Y-91601333D01*
X130598666Y-91734666D01*
X130598666Y-91834666D01*
X130632000Y-91968000D01*
X130665333Y-92034666D01*
X130732000Y-92101333D01*
X130832000Y-92134666D01*
X130898666Y-92134666D01*
X130998666Y-92101333D01*
X131032000Y-92068000D01*
X131032000Y-91834666D01*
X130898666Y-91834666D01*
X131332000Y-92134666D02*
X131332000Y-91434666D01*
X131732000Y-92134666D01*
X131732000Y-91434666D01*
X132065333Y-92134666D02*
X132065333Y-91434666D01*
X132232000Y-91434666D01*
X132332000Y-91468000D01*
X132398666Y-91534666D01*
X132432000Y-91601333D01*
X132465333Y-91734666D01*
X132465333Y-91834666D01*
X132432000Y-91968000D01*
X132398666Y-92034666D01*
X132332000Y-92101333D01*
X132232000Y-92134666D01*
X132065333Y-92134666D01*
X127682000Y-92134666D02*
X127682000Y-91434666D01*
X127915333Y-91934666D01*
X128148666Y-91434666D01*
X128148666Y-92134666D01*
X128615333Y-91434666D02*
X128748666Y-91434666D01*
X128815333Y-91468000D01*
X128882000Y-91534666D01*
X128915333Y-91668000D01*
X128915333Y-91901333D01*
X128882000Y-92034666D01*
X128815333Y-92101333D01*
X128748666Y-92134666D01*
X128615333Y-92134666D01*
X128548666Y-92101333D01*
X128482000Y-92034666D01*
X128448666Y-91901333D01*
X128448666Y-91668000D01*
X128482000Y-91534666D01*
X128548666Y-91468000D01*
X128615333Y-91434666D01*
X129182000Y-92101333D02*
X129282000Y-92134666D01*
X129448666Y-92134666D01*
X129515333Y-92101333D01*
X129548666Y-92068000D01*
X129582000Y-92001333D01*
X129582000Y-91934666D01*
X129548666Y-91868000D01*
X129515333Y-91834666D01*
X129448666Y-91801333D01*
X129315333Y-91768000D01*
X129248666Y-91734666D01*
X129215333Y-91701333D01*
X129182000Y-91634666D01*
X129182000Y-91568000D01*
X129215333Y-91501333D01*
X129248666Y-91468000D01*
X129315333Y-91434666D01*
X129482000Y-91434666D01*
X129582000Y-91468000D01*
X129882000Y-92134666D02*
X129882000Y-91434666D01*
X131148666Y-98384666D02*
X130915333Y-98051333D01*
X130748666Y-98384666D02*
X130748666Y-97684666D01*
X131015333Y-97684666D01*
X131082000Y-97718000D01*
X131115333Y-97751333D01*
X131148666Y-97818000D01*
X131148666Y-97918000D01*
X131115333Y-97984666D01*
X131082000Y-98018000D01*
X131015333Y-98051333D01*
X130748666Y-98051333D01*
X131415333Y-98351333D02*
X131515333Y-98384666D01*
X131682000Y-98384666D01*
X131748666Y-98351333D01*
X131782000Y-98318000D01*
X131815333Y-98251333D01*
X131815333Y-98184666D01*
X131782000Y-98118000D01*
X131748666Y-98084666D01*
X131682000Y-98051333D01*
X131548666Y-98018000D01*
X131482000Y-97984666D01*
X131448666Y-97951333D01*
X131415333Y-97884666D01*
X131415333Y-97818000D01*
X131448666Y-97751333D01*
X131482000Y-97718000D01*
X131548666Y-97684666D01*
X131715333Y-97684666D01*
X131815333Y-97718000D01*
X132015333Y-97684666D02*
X132415333Y-97684666D01*
X132215333Y-98384666D02*
X132215333Y-97684666D01*
X127882000Y-98351333D02*
X127982000Y-98384666D01*
X128148666Y-98384666D01*
X128215333Y-98351333D01*
X128248666Y-98318000D01*
X128282000Y-98251333D01*
X128282000Y-98184666D01*
X128248666Y-98118000D01*
X128215333Y-98084666D01*
X128148666Y-98051333D01*
X128015333Y-98018000D01*
X127948666Y-97984666D01*
X127915333Y-97951333D01*
X127882000Y-97884666D01*
X127882000Y-97818000D01*
X127915333Y-97751333D01*
X127948666Y-97718000D01*
X128015333Y-97684666D01*
X128182000Y-97684666D01*
X128282000Y-97718000D01*
X128982000Y-98318000D02*
X128948666Y-98351333D01*
X128848666Y-98384666D01*
X128782000Y-98384666D01*
X128682000Y-98351333D01*
X128615333Y-98284666D01*
X128582000Y-98218000D01*
X128548666Y-98084666D01*
X128548666Y-97984666D01*
X128582000Y-97851333D01*
X128615333Y-97784666D01*
X128682000Y-97718000D01*
X128782000Y-97684666D01*
X128848666Y-97684666D01*
X128948666Y-97718000D01*
X128982000Y-97751333D01*
X129282000Y-98384666D02*
X129282000Y-97684666D01*
X129682000Y-98384666D02*
X129382000Y-97984666D01*
X129682000Y-97684666D02*
X129282000Y-98084666D01*
X124998666Y-91434666D02*
X125432000Y-91434666D01*
X125198666Y-91701333D01*
X125298666Y-91701333D01*
X125365333Y-91734666D01*
X125398666Y-91768000D01*
X125432000Y-91834666D01*
X125432000Y-92001333D01*
X125398666Y-92068000D01*
X125365333Y-92101333D01*
X125298666Y-92134666D01*
X125098666Y-92134666D01*
X125032000Y-92101333D01*
X124998666Y-92068000D01*
X125732000Y-92068000D02*
X125765333Y-92101333D01*
X125732000Y-92134666D01*
X125698666Y-92101333D01*
X125732000Y-92068000D01*
X125732000Y-92134666D01*
X125998666Y-91434666D02*
X126432000Y-91434666D01*
X126198666Y-91701333D01*
X126298666Y-91701333D01*
X126365333Y-91734666D01*
X126398666Y-91768000D01*
X126432000Y-91834666D01*
X126432000Y-92001333D01*
X126398666Y-92068000D01*
X126365333Y-92101333D01*
X126298666Y-92134666D01*
X126098666Y-92134666D01*
X126032000Y-92101333D01*
X125998666Y-92068000D01*
X126632000Y-91434666D02*
X126865333Y-92134666D01*
X127098666Y-91434666D01*
X124932000Y-98384666D02*
X124932000Y-97684666D01*
X125165333Y-98184666D01*
X125398666Y-97684666D01*
X125398666Y-98384666D01*
X125732000Y-98384666D02*
X125732000Y-97684666D01*
X126032000Y-98351333D02*
X126132000Y-98384666D01*
X126298666Y-98384666D01*
X126365333Y-98351333D01*
X126398666Y-98318000D01*
X126432000Y-98251333D01*
X126432000Y-98184666D01*
X126398666Y-98118000D01*
X126365333Y-98084666D01*
X126298666Y-98051333D01*
X126165333Y-98018000D01*
X126098666Y-97984666D01*
X126065333Y-97951333D01*
X126032000Y-97884666D01*
X126032000Y-97818000D01*
X126065333Y-97751333D01*
X126098666Y-97718000D01*
X126165333Y-97684666D01*
X126332000Y-97684666D01*
X126432000Y-97718000D01*
X126865333Y-97684666D02*
X126998666Y-97684666D01*
X127065333Y-97718000D01*
X127132000Y-97784666D01*
X127165333Y-97918000D01*
X127165333Y-98151333D01*
X127132000Y-98284666D01*
X127065333Y-98351333D01*
X126998666Y-98384666D01*
X126865333Y-98384666D01*
X126798666Y-98351333D01*
X126732000Y-98284666D01*
X126698666Y-98151333D01*
X126698666Y-97918000D01*
X126732000Y-97784666D01*
X126798666Y-97718000D01*
X126865333Y-97684666D01*
X125674857Y-115796571D02*
X125960571Y-115796571D01*
X126103428Y-115868000D01*
X126246285Y-116010857D01*
X126317714Y-116296571D01*
X126317714Y-116796571D01*
X126246285Y-117082285D01*
X126103428Y-117225142D01*
X125960571Y-117296571D01*
X125674857Y-117296571D01*
X125532000Y-117225142D01*
X125389142Y-117082285D01*
X125317714Y-116796571D01*
X125317714Y-116296571D01*
X125389142Y-116010857D01*
X125532000Y-115868000D01*
X125674857Y-115796571D01*
X126960571Y-116296571D02*
X126960571Y-117796571D01*
X126960571Y-116368000D02*
X127103428Y-116296571D01*
X127389142Y-116296571D01*
X127532000Y-116368000D01*
X127603428Y-116439428D01*
X127674857Y-116582285D01*
X127674857Y-117010857D01*
X127603428Y-117153714D01*
X127532000Y-117225142D01*
X127389142Y-117296571D01*
X127103428Y-117296571D01*
X126960571Y-117225142D01*
X128889142Y-117225142D02*
X128746285Y-117296571D01*
X128460571Y-117296571D01*
X128317714Y-117225142D01*
X128246285Y-117082285D01*
X128246285Y-116510857D01*
X128317714Y-116368000D01*
X128460571Y-116296571D01*
X128746285Y-116296571D01*
X128889142Y-116368000D01*
X128960571Y-116510857D01*
X128960571Y-116653714D01*
X128246285Y-116796571D01*
X129603428Y-116296571D02*
X129603428Y-117296571D01*
X129603428Y-116439428D02*
X129674857Y-116368000D01*
X129817714Y-116296571D01*
X130032000Y-116296571D01*
X130174857Y-116368000D01*
X130246285Y-116510857D01*
X130246285Y-117296571D01*
X131674857Y-117296571D02*
X130960571Y-117296571D01*
X130960571Y-115796571D01*
X132389142Y-117296571D02*
X132246285Y-117225142D01*
X132174857Y-117153714D01*
X132103428Y-117010857D01*
X132103428Y-116582285D01*
X132174857Y-116439428D01*
X132246285Y-116368000D01*
X132389142Y-116296571D01*
X132603428Y-116296571D01*
X132746285Y-116368000D01*
X132817714Y-116439428D01*
X132889142Y-116582285D01*
X132889142Y-117010857D01*
X132817714Y-117153714D01*
X132746285Y-117225142D01*
X132603428Y-117296571D01*
X132389142Y-117296571D01*
X134174857Y-116296571D02*
X134174857Y-117510857D01*
X134103428Y-117653714D01*
X134032000Y-117725142D01*
X133889142Y-117796571D01*
X133674857Y-117796571D01*
X133532000Y-117725142D01*
X134174857Y-117225142D02*
X134032000Y-117296571D01*
X133746285Y-117296571D01*
X133603428Y-117225142D01*
X133532000Y-117153714D01*
X133460571Y-117010857D01*
X133460571Y-116582285D01*
X133532000Y-116439428D01*
X133603428Y-116368000D01*
X133746285Y-116296571D01*
X134032000Y-116296571D01*
X134174857Y-116368000D01*
X135817714Y-116296571D02*
X136389142Y-116296571D01*
X136032000Y-117296571D02*
X136032000Y-116010857D01*
X136103428Y-115868000D01*
X136246285Y-115796571D01*
X136389142Y-115796571D01*
X137103428Y-117296571D02*
X136960571Y-117225142D01*
X136889142Y-117153714D01*
X136817714Y-117010857D01*
X136817714Y-116582285D01*
X136889142Y-116439428D01*
X136960571Y-116368000D01*
X137103428Y-116296571D01*
X137317714Y-116296571D01*
X137460571Y-116368000D01*
X137532000Y-116439428D01*
X137603428Y-116582285D01*
X137603428Y-117010857D01*
X137532000Y-117153714D01*
X137460571Y-117225142D01*
X137317714Y-117296571D01*
X137103428Y-117296571D01*
X138246285Y-117296571D02*
X138246285Y-116296571D01*
X138246285Y-116582285D02*
X138317714Y-116439428D01*
X138389142Y-116368000D01*
X138532000Y-116296571D01*
X138674857Y-116296571D01*
X140174857Y-115796571D02*
X140532000Y-117296571D01*
X140817714Y-116225142D01*
X141103428Y-117296571D01*
X141460571Y-115796571D01*
X142032000Y-117296571D02*
X142032000Y-115796571D01*
X142532000Y-116868000D01*
X143032000Y-115796571D01*
X143032000Y-117296571D01*
X127317714Y-118196571D02*
X127817714Y-119696571D01*
X128317714Y-118196571D01*
X129389142Y-119625142D02*
X129246285Y-119696571D01*
X128960571Y-119696571D01*
X128817714Y-119625142D01*
X128746285Y-119482285D01*
X128746285Y-118910857D01*
X128817714Y-118768000D01*
X128960571Y-118696571D01*
X129246285Y-118696571D01*
X129389142Y-118768000D01*
X129460571Y-118910857D01*
X129460571Y-119053714D01*
X128746285Y-119196571D01*
X130103428Y-119696571D02*
X130103428Y-118696571D01*
X130103428Y-118982285D02*
X130174857Y-118839428D01*
X130246285Y-118768000D01*
X130389142Y-118696571D01*
X130531999Y-118696571D01*
X131817714Y-119696571D02*
X130960571Y-119696571D01*
X131389142Y-119696571D02*
X131389142Y-118196571D01*
X131246285Y-118410857D01*
X131103428Y-118553714D01*
X130960571Y-118625142D01*
X132460571Y-119553714D02*
X132531999Y-119625142D01*
X132460571Y-119696571D01*
X132389142Y-119625142D01*
X132460571Y-119553714D01*
X132460571Y-119696571D01*
X133460571Y-118196571D02*
X133603428Y-118196571D01*
X133746285Y-118268000D01*
X133817714Y-118339428D01*
X133889142Y-118482285D01*
X133960571Y-118768000D01*
X133960571Y-119125142D01*
X133889142Y-119410857D01*
X133817714Y-119553714D01*
X133746285Y-119625142D01*
X133603428Y-119696571D01*
X133460571Y-119696571D01*
X133317714Y-119625142D01*
X133246285Y-119553714D01*
X133174857Y-119410857D01*
X133103428Y-119125142D01*
X133103428Y-118768000D01*
X133174857Y-118482285D01*
X133246285Y-118339428D01*
X133317714Y-118268000D01*
X133460571Y-118196571D01*
X136674857Y-118982285D02*
X136603428Y-118910857D01*
X136460571Y-118839428D01*
X136317714Y-118839428D01*
X136174857Y-118910857D01*
X136103428Y-118982285D01*
X136032000Y-119125142D01*
X136032000Y-119268000D01*
X136103428Y-119410857D01*
X136174857Y-119482285D01*
X136317714Y-119553714D01*
X136460571Y-119553714D01*
X136603428Y-119482285D01*
X136674857Y-119410857D01*
X136674857Y-118839428D02*
X136674857Y-119410857D01*
X136746285Y-119482285D01*
X136817714Y-119482285D01*
X136960571Y-119410857D01*
X137032000Y-119268000D01*
X137032000Y-118910857D01*
X136889142Y-118696571D01*
X136674857Y-118553714D01*
X136389142Y-118482285D01*
X136103428Y-118553714D01*
X135889142Y-118696571D01*
X135746285Y-118910857D01*
X135674857Y-119196571D01*
X135746285Y-119482285D01*
X135889142Y-119696571D01*
X136103428Y-119839428D01*
X136389142Y-119910857D01*
X136674857Y-119839428D01*
X136889142Y-119696571D01*
X137532000Y-118696571D02*
X137889142Y-119696571D01*
X138246285Y-118696571D02*
X137889142Y-119696571D01*
X137746285Y-120053714D01*
X137674857Y-120125142D01*
X137532000Y-120196571D01*
X139460571Y-119696571D02*
X139460571Y-118910857D01*
X139389142Y-118768000D01*
X139246285Y-118696571D01*
X138960571Y-118696571D01*
X138817714Y-118768000D01*
X139460571Y-119625142D02*
X139317714Y-119696571D01*
X138960571Y-119696571D01*
X138817714Y-119625142D01*
X138746285Y-119482285D01*
X138746285Y-119339428D01*
X138817714Y-119196571D01*
X138960571Y-119125142D01*
X139317714Y-119125142D01*
X139460571Y-119053714D01*
X140174857Y-119696571D02*
X140174857Y-118196571D01*
X140317714Y-119125142D02*
X140746285Y-119696571D01*
X140746285Y-118696571D02*
X140174857Y-119268000D01*
X142032000Y-118696571D02*
X142032000Y-119696571D01*
X141389142Y-118696571D02*
X141389142Y-119482285D01*
X141460571Y-119625142D01*
X141603428Y-119696571D01*
X141817714Y-119696571D01*
X141960571Y-119625142D01*
X142032000Y-119553714D01*
D11*
X121132000Y-99368000D02*
X122732000Y-99368000D01*
D12*
X135782000Y-109118000D02*
G75*
G03X135782000Y-109118000I-250000J0D01*
G01*
D11*
X134282000Y-113218000D02*
X120132000Y-113218000D01*
X134282000Y-111368000D02*
X134282000Y-113218000D01*
X134282000Y-99368000D02*
X133732000Y-99368000D01*
X134282000Y-99818000D02*
X134282000Y-99368000D01*
X113232000Y-100368000D02*
G75*
G03X112732000Y-100868000I0J-500000D01*
G01*
X116732000Y-100368000D02*
X113232000Y-100368000D01*
X117232000Y-100368000D02*
G75*
G03X116732000Y-100868000I0J-500000D01*
G01*
X117532000Y-100368000D02*
X117232000Y-100368000D01*
X118032000Y-100368000D02*
G75*
G03X117532000Y-100868000I0J-500000D01*
G01*
X118332000Y-100368000D02*
X118032000Y-100368000D01*
X113232000Y-111368000D02*
G75*
G02X112732000Y-110868000I0J500000D01*
G01*
X116732000Y-111368000D02*
X113232000Y-111368000D01*
X117232000Y-111368000D02*
G75*
G02X116732000Y-110868000I0J500000D01*
G01*
X117532000Y-111368000D02*
X117232000Y-111368000D01*
X118032000Y-111368000D02*
G75*
G02X117532000Y-110868000I0J500000D01*
G01*
X118332000Y-111368000D02*
X118032000Y-111368000D01*
X112732000Y-110868000D02*
X112732000Y-100868000D01*
X118332000Y-100368000D02*
X118332000Y-111368000D01*
X116732000Y-100368000D02*
X117232000Y-100368000D01*
X116732000Y-100868000D02*
X116732000Y-100368000D01*
X116732000Y-110868000D02*
X116732000Y-100868000D01*
X116732000Y-111368000D02*
X116732000Y-110868000D01*
X117232000Y-111368000D02*
X116732000Y-111368000D01*
X117532000Y-100368000D02*
X118032000Y-100368000D01*
X117532000Y-100868000D02*
X117532000Y-100368000D01*
X117532000Y-110868000D02*
X117532000Y-100868000D01*
X117532000Y-111368000D02*
X117532000Y-110868000D01*
X118032000Y-111368000D02*
X117532000Y-111368000D01*
D13*
X161445000Y-103107000D02*
X161445000Y-114029000D01*
X161191000Y-102853000D02*
G75*
G02X161445000Y-103107000I0J-254000D01*
G01*
X161445000Y-114029000D02*
G75*
G02X161191000Y-114283000I-254000J0D01*
G01*
X156619000Y-103107000D02*
X156619000Y-114029000D01*
X156873000Y-102853000D02*
G75*
G03X156619000Y-103107000I0J-254000D01*
G01*
X156619000Y-114029000D02*
G75*
G03X156873000Y-114283000I254000J0D01*
G01*
D14*
X160409000Y-100818000D02*
G75*
G03X160409000Y-100818000I-127000J0D01*
G01*
X152982000Y-112568000D02*
X153082000Y-112568000D01*
X153082000Y-112568000D02*
X153432000Y-112218000D01*
X153432000Y-112218000D02*
X153432000Y-112118000D01*
X153432000Y-112118000D02*
X154732000Y-112118000D01*
X146232000Y-112568000D02*
X146682000Y-112568000D01*
X146232000Y-112568000D02*
X146232000Y-112118000D01*
X146232000Y-105368000D02*
X146232000Y-105818000D01*
X146232000Y-105368000D02*
X146682000Y-105368000D01*
X153432000Y-105368000D02*
X152982000Y-105368000D01*
X153432000Y-105368000D02*
X153432000Y-105818000D01*
D15*
X172757000Y-110968000D02*
X172757000Y-110568000D01*
X174257000Y-110968000D02*
X172757000Y-110968000D01*
X172757000Y-109168000D02*
X172757000Y-105968000D01*
X172757000Y-104168000D02*
X174257000Y-104168000D01*
X172757000Y-104518000D02*
X172757000Y-104168000D01*
X144054500Y-100822724D02*
X144054500Y-100313276D01*
X143009500Y-100822724D02*
X143009500Y-100313276D01*
X153054500Y-100910724D02*
X153054500Y-100401276D01*
X152009500Y-100910724D02*
X152009500Y-100401276D01*
X141374724Y-106545500D02*
X140865276Y-106545500D01*
X141374724Y-107590500D02*
X140865276Y-107590500D01*
X151009500Y-116313276D02*
X151009500Y-116822724D01*
X152054500Y-116313276D02*
X152054500Y-116822724D01*
X167554500Y-100822724D02*
X167554500Y-100313276D01*
X166509500Y-100822724D02*
X166509500Y-100313276D01*
X147054500Y-100822724D02*
X147054500Y-100313276D01*
X146009500Y-100822724D02*
X146009500Y-100313276D01*
X150054500Y-100822724D02*
X150054500Y-100313276D01*
X149009500Y-100822724D02*
X149009500Y-100313276D01*
X148054500Y-117410724D02*
X148054500Y-116901276D01*
X147009500Y-117410724D02*
X147009500Y-116901276D01*
X124702000Y-97398000D02*
X124702000Y-96068000D01*
X126032000Y-97398000D02*
X124702000Y-97398000D01*
X124702000Y-94798000D02*
X124702000Y-92198000D01*
X127302000Y-94798000D02*
X124702000Y-94798000D01*
X127302000Y-97398000D02*
X127302000Y-94798000D01*
X124702000Y-92198000D02*
X175622000Y-92198000D01*
X127302000Y-97398000D02*
X175622000Y-97398000D01*
X175622000Y-97398000D02*
X175622000Y-92198000D01*
X156292000Y-102038000D02*
X156292000Y-99768000D01*
X154772000Y-102038000D02*
X156292000Y-102038000D01*
X154772000Y-99768000D02*
X154772000Y-102038000D01*
X142502000Y-109308000D02*
X140232000Y-109308000D01*
X142502000Y-110828000D02*
X142502000Y-109308000D01*
X140232000Y-110828000D02*
X142502000Y-110828000D01*
X159293252Y-117333000D02*
X158770748Y-117333000D01*
X159293252Y-118803000D02*
X158770748Y-118803000D01*
X164042000Y-104714267D02*
X164042000Y-104421733D01*
X163022000Y-104714267D02*
X163022000Y-104421733D01*
X163022000Y-112421733D02*
X163022000Y-112714267D01*
X164042000Y-112421733D02*
X164042000Y-112714267D01*
X172793252Y-101333000D02*
X172270748Y-101333000D01*
X172793252Y-102803000D02*
X172270748Y-102803000D01*
X172755252Y-98833000D02*
X172232748Y-98833000D01*
X172755252Y-100303000D02*
X172232748Y-100303000D01*
X174293252Y-112333000D02*
X173770748Y-112333000D01*
X174293252Y-113803000D02*
X173770748Y-113803000D01*
X163793252Y-98833000D02*
X163270748Y-98833000D01*
X163793252Y-100303000D02*
X163270748Y-100303000D01*
D10*
X135733544Y-113151842D02*
X136448921Y-113151842D01*
X136591996Y-113199534D01*
X136687380Y-113294918D01*
X136735072Y-113437993D01*
X136735072Y-113533377D01*
X135828927Y-112722616D02*
X135781236Y-112674924D01*
X135733544Y-112579540D01*
X135733544Y-112341081D01*
X135781236Y-112245698D01*
X135828927Y-112198006D01*
X135924311Y-112150314D01*
X136019695Y-112150314D01*
X136162770Y-112198006D01*
X136735072Y-112770308D01*
X136735072Y-112150314D01*
X162758155Y-108544880D02*
X163235036Y-108544880D01*
X162233587Y-108878696D02*
X162758155Y-108544880D01*
X162233587Y-108211064D01*
X163235036Y-107352679D02*
X163235036Y-107924935D01*
X163235036Y-107638807D02*
X162233587Y-107638807D01*
X162376651Y-107734183D01*
X162472027Y-107829559D01*
X162519715Y-107924935D01*
X142770095Y-113020380D02*
X142770095Y-113829904D01*
X142817714Y-113925142D01*
X142865333Y-113972761D01*
X142960571Y-114020380D01*
X143151047Y-114020380D01*
X143246285Y-113972761D01*
X143293904Y-113925142D01*
X143341523Y-113829904D01*
X143341523Y-113020380D01*
X143770095Y-113115619D02*
X143817714Y-113068000D01*
X143912952Y-113020380D01*
X144151047Y-113020380D01*
X144246285Y-113068000D01*
X144293904Y-113115619D01*
X144341523Y-113210857D01*
X144341523Y-113306095D01*
X144293904Y-113448952D01*
X143722476Y-114020380D01*
X144341523Y-114020380D01*
X179270095Y-102520380D02*
X179270095Y-103329904D01*
X179317714Y-103425142D01*
X179365333Y-103472761D01*
X179460571Y-103520380D01*
X179651047Y-103520380D01*
X179746285Y-103472761D01*
X179793904Y-103425142D01*
X179841523Y-103329904D01*
X179841523Y-102520380D01*
X180841523Y-103520380D02*
X180270095Y-103520380D01*
X180555809Y-103520380D02*
X180555809Y-102520380D01*
X180460571Y-102663238D01*
X180365333Y-102758476D01*
X180270095Y-102806095D01*
X142554380Y-100734666D02*
X142078190Y-101068000D01*
X142554380Y-101306095D02*
X141554380Y-101306095D01*
X141554380Y-100925142D01*
X141602000Y-100829904D01*
X141649619Y-100782285D01*
X141744857Y-100734666D01*
X141887714Y-100734666D01*
X141982952Y-100782285D01*
X142030571Y-100829904D01*
X142078190Y-100925142D01*
X142078190Y-101306095D01*
X141982952Y-100163238D02*
X141935333Y-100258476D01*
X141887714Y-100306095D01*
X141792476Y-100353714D01*
X141744857Y-100353714D01*
X141649619Y-100306095D01*
X141602000Y-100258476D01*
X141554380Y-100163238D01*
X141554380Y-99972761D01*
X141602000Y-99877523D01*
X141649619Y-99829904D01*
X141744857Y-99782285D01*
X141792476Y-99782285D01*
X141887714Y-99829904D01*
X141935333Y-99877523D01*
X141982952Y-99972761D01*
X141982952Y-100163238D01*
X142030571Y-100258476D01*
X142078190Y-100306095D01*
X142173428Y-100353714D01*
X142363904Y-100353714D01*
X142459142Y-100306095D01*
X142506761Y-100258476D01*
X142554380Y-100163238D01*
X142554380Y-99972761D01*
X142506761Y-99877523D01*
X142459142Y-99829904D01*
X142363904Y-99782285D01*
X142173428Y-99782285D01*
X142078190Y-99829904D01*
X142030571Y-99877523D01*
X141982952Y-99972761D01*
X151554380Y-100822666D02*
X151078190Y-101156000D01*
X151554380Y-101394095D02*
X150554380Y-101394095D01*
X150554380Y-101013142D01*
X150602000Y-100917904D01*
X150649619Y-100870285D01*
X150744857Y-100822666D01*
X150887714Y-100822666D01*
X150982952Y-100870285D01*
X151030571Y-100917904D01*
X151078190Y-101013142D01*
X151078190Y-101394095D01*
X150554380Y-100489333D02*
X150554380Y-99822666D01*
X151554380Y-100251238D01*
X140953333Y-108950380D02*
X140620000Y-108474190D01*
X140381904Y-108950380D02*
X140381904Y-107950380D01*
X140762857Y-107950380D01*
X140858095Y-107998000D01*
X140905714Y-108045619D01*
X140953333Y-108140857D01*
X140953333Y-108283714D01*
X140905714Y-108378952D01*
X140858095Y-108426571D01*
X140762857Y-108474190D01*
X140381904Y-108474190D01*
X141810476Y-107950380D02*
X141620000Y-107950380D01*
X141524761Y-107998000D01*
X141477142Y-108045619D01*
X141381904Y-108188476D01*
X141334285Y-108378952D01*
X141334285Y-108759904D01*
X141381904Y-108855142D01*
X141429523Y-108902761D01*
X141524761Y-108950380D01*
X141715238Y-108950380D01*
X141810476Y-108902761D01*
X141858095Y-108855142D01*
X141905714Y-108759904D01*
X141905714Y-108521809D01*
X141858095Y-108426571D01*
X141810476Y-108378952D01*
X141715238Y-108331333D01*
X141524761Y-108331333D01*
X141429523Y-108378952D01*
X141381904Y-108426571D01*
X141334285Y-108521809D01*
X153984380Y-118147166D02*
X153508190Y-118480500D01*
X153984380Y-118718595D02*
X152984380Y-118718595D01*
X152984380Y-118337642D01*
X153032000Y-118242404D01*
X153079619Y-118194785D01*
X153174857Y-118147166D01*
X153317714Y-118147166D01*
X153412952Y-118194785D01*
X153460571Y-118242404D01*
X153508190Y-118337642D01*
X153508190Y-118718595D01*
X152984380Y-117242404D02*
X152984380Y-117718595D01*
X153460571Y-117766214D01*
X153412952Y-117718595D01*
X153365333Y-117623357D01*
X153365333Y-117385261D01*
X153412952Y-117290023D01*
X153460571Y-117242404D01*
X153555809Y-117194785D01*
X153793904Y-117194785D01*
X153889142Y-117242404D01*
X153936761Y-117290023D01*
X153984380Y-117385261D01*
X153984380Y-117623357D01*
X153936761Y-117718595D01*
X153889142Y-117766214D01*
X169234380Y-100984666D02*
X168758190Y-101318000D01*
X169234380Y-101556095D02*
X168234380Y-101556095D01*
X168234380Y-101175142D01*
X168282000Y-101079904D01*
X168329619Y-101032285D01*
X168424857Y-100984666D01*
X168567714Y-100984666D01*
X168662952Y-101032285D01*
X168710571Y-101079904D01*
X168758190Y-101175142D01*
X168758190Y-101556095D01*
X168567714Y-100127523D02*
X169234380Y-100127523D01*
X168186761Y-100365619D02*
X168901047Y-100603714D01*
X168901047Y-99984666D01*
X145554380Y-100734666D02*
X145078190Y-101068000D01*
X145554380Y-101306095D02*
X144554380Y-101306095D01*
X144554380Y-100925142D01*
X144602000Y-100829904D01*
X144649619Y-100782285D01*
X144744857Y-100734666D01*
X144887714Y-100734666D01*
X144982952Y-100782285D01*
X145030571Y-100829904D01*
X145078190Y-100925142D01*
X145078190Y-101306095D01*
X144554380Y-100401333D02*
X144554380Y-99782285D01*
X144935333Y-100115619D01*
X144935333Y-99972761D01*
X144982952Y-99877523D01*
X145030571Y-99829904D01*
X145125809Y-99782285D01*
X145363904Y-99782285D01*
X145459142Y-99829904D01*
X145506761Y-99877523D01*
X145554380Y-99972761D01*
X145554380Y-100258476D01*
X145506761Y-100353714D01*
X145459142Y-100401333D01*
X148554380Y-100734666D02*
X148078190Y-101068000D01*
X148554380Y-101306095D02*
X147554380Y-101306095D01*
X147554380Y-100925142D01*
X147602000Y-100829904D01*
X147649619Y-100782285D01*
X147744857Y-100734666D01*
X147887714Y-100734666D01*
X147982952Y-100782285D01*
X148030571Y-100829904D01*
X148078190Y-100925142D01*
X148078190Y-101306095D01*
X147649619Y-100353714D02*
X147602000Y-100306095D01*
X147554380Y-100210857D01*
X147554380Y-99972761D01*
X147602000Y-99877523D01*
X147649619Y-99829904D01*
X147744857Y-99782285D01*
X147840095Y-99782285D01*
X147982952Y-99829904D01*
X148554380Y-100401333D01*
X148554380Y-99782285D01*
X146484380Y-118735166D02*
X146008190Y-119068500D01*
X146484380Y-119306595D02*
X145484380Y-119306595D01*
X145484380Y-118925642D01*
X145532000Y-118830404D01*
X145579619Y-118782785D01*
X145674857Y-118735166D01*
X145817714Y-118735166D01*
X145912952Y-118782785D01*
X145960571Y-118830404D01*
X146008190Y-118925642D01*
X146008190Y-119306595D01*
X146484380Y-117782785D02*
X146484380Y-118354214D01*
X146484380Y-118068500D02*
X145484380Y-118068500D01*
X145627238Y-118163738D01*
X145722476Y-118258976D01*
X145770095Y-118354214D01*
X138448666Y-98270380D02*
X138448666Y-98984666D01*
X138401047Y-99127523D01*
X138305809Y-99222761D01*
X138162952Y-99270380D01*
X138067714Y-99270380D01*
X139448666Y-99270380D02*
X138877238Y-99270380D01*
X139162952Y-99270380D02*
X139162952Y-98270380D01*
X139067714Y-98413238D01*
X138972476Y-98508476D01*
X138877238Y-98556095D01*
X154534380Y-101306095D02*
X153534380Y-101306095D01*
X153534380Y-101068000D01*
X153582000Y-100925142D01*
X153677238Y-100829904D01*
X153772476Y-100782285D01*
X153962952Y-100734666D01*
X154105809Y-100734666D01*
X154296285Y-100782285D01*
X154391523Y-100829904D01*
X154486761Y-100925142D01*
X154534380Y-101068000D01*
X154534380Y-101306095D01*
X153629619Y-100353714D02*
X153582000Y-100306095D01*
X153534380Y-100210857D01*
X153534380Y-99972761D01*
X153582000Y-99877523D01*
X153629619Y-99829904D01*
X153724857Y-99782285D01*
X153820095Y-99782285D01*
X153962952Y-99829904D01*
X154534380Y-100401333D01*
X154534380Y-99782285D01*
X140293904Y-111970380D02*
X140293904Y-110970380D01*
X140532000Y-110970380D01*
X140674857Y-111018000D01*
X140770095Y-111113238D01*
X140817714Y-111208476D01*
X140865333Y-111398952D01*
X140865333Y-111541809D01*
X140817714Y-111732285D01*
X140770095Y-111827523D01*
X140674857Y-111922761D01*
X140532000Y-111970380D01*
X140293904Y-111970380D01*
X141817714Y-111970380D02*
X141246285Y-111970380D01*
X141532000Y-111970380D02*
X141532000Y-110970380D01*
X141436761Y-111113238D01*
X141341523Y-111208476D01*
X141246285Y-111256095D01*
X162365333Y-118675142D02*
X162317714Y-118722761D01*
X162174857Y-118770380D01*
X162079619Y-118770380D01*
X161936761Y-118722761D01*
X161841523Y-118627523D01*
X161793904Y-118532285D01*
X161746285Y-118341809D01*
X161746285Y-118198952D01*
X161793904Y-118008476D01*
X161841523Y-117913238D01*
X161936761Y-117818000D01*
X162079619Y-117770380D01*
X162174857Y-117770380D01*
X162317714Y-117818000D01*
X162365333Y-117865619D01*
X162698666Y-117770380D02*
X163365333Y-117770380D01*
X162936761Y-118770380D01*
X165389142Y-104984666D02*
X165436761Y-105032285D01*
X165484380Y-105175142D01*
X165484380Y-105270380D01*
X165436761Y-105413238D01*
X165341523Y-105508476D01*
X165246285Y-105556095D01*
X165055809Y-105603714D01*
X164912952Y-105603714D01*
X164722476Y-105556095D01*
X164627238Y-105508476D01*
X164532000Y-105413238D01*
X164484380Y-105270380D01*
X164484380Y-105175142D01*
X164532000Y-105032285D01*
X164579619Y-104984666D01*
X164484380Y-104127523D02*
X164484380Y-104318000D01*
X164532000Y-104413238D01*
X164579619Y-104460857D01*
X164722476Y-104556095D01*
X164912952Y-104603714D01*
X165293904Y-104603714D01*
X165389142Y-104556095D01*
X165436761Y-104508476D01*
X165484380Y-104413238D01*
X165484380Y-104222761D01*
X165436761Y-104127523D01*
X165389142Y-104079904D01*
X165293904Y-104032285D01*
X165055809Y-104032285D01*
X164960571Y-104079904D01*
X164912952Y-104127523D01*
X164865333Y-104222761D01*
X164865333Y-104413238D01*
X164912952Y-104508476D01*
X164960571Y-104556095D01*
X165055809Y-104603714D01*
X165319142Y-112734666D02*
X165366761Y-112782285D01*
X165414380Y-112925142D01*
X165414380Y-113020380D01*
X165366761Y-113163238D01*
X165271523Y-113258476D01*
X165176285Y-113306095D01*
X164985809Y-113353714D01*
X164842952Y-113353714D01*
X164652476Y-113306095D01*
X164557238Y-113258476D01*
X164462000Y-113163238D01*
X164414380Y-113020380D01*
X164414380Y-112925142D01*
X164462000Y-112782285D01*
X164509619Y-112734666D01*
X164414380Y-111829904D02*
X164414380Y-112306095D01*
X164890571Y-112353714D01*
X164842952Y-112306095D01*
X164795333Y-112210857D01*
X164795333Y-111972761D01*
X164842952Y-111877523D01*
X164890571Y-111829904D01*
X164985809Y-111782285D01*
X165223904Y-111782285D01*
X165319142Y-111829904D01*
X165366761Y-111877523D01*
X165414380Y-111972761D01*
X165414380Y-112210857D01*
X165366761Y-112306095D01*
X165319142Y-112353714D01*
X175865333Y-102425142D02*
X175817714Y-102472761D01*
X175674857Y-102520380D01*
X175579619Y-102520380D01*
X175436761Y-102472761D01*
X175341523Y-102377523D01*
X175293904Y-102282285D01*
X175246285Y-102091809D01*
X175246285Y-101948952D01*
X175293904Y-101758476D01*
X175341523Y-101663238D01*
X175436761Y-101568000D01*
X175579619Y-101520380D01*
X175674857Y-101520380D01*
X175817714Y-101568000D01*
X175865333Y-101615619D01*
X176722476Y-101853714D02*
X176722476Y-102520380D01*
X176484380Y-101472761D02*
X176246285Y-102187047D01*
X176865333Y-102187047D01*
X175864833Y-99925142D02*
X175817214Y-99972761D01*
X175674357Y-100020380D01*
X175579119Y-100020380D01*
X175436261Y-99972761D01*
X175341023Y-99877523D01*
X175293404Y-99782285D01*
X175245785Y-99591809D01*
X175245785Y-99448952D01*
X175293404Y-99258476D01*
X175341023Y-99163238D01*
X175436261Y-99068000D01*
X175579119Y-99020380D01*
X175674357Y-99020380D01*
X175817214Y-99068000D01*
X175864833Y-99115619D01*
X176198166Y-99020380D02*
X176817214Y-99020380D01*
X176483880Y-99401333D01*
X176626738Y-99401333D01*
X176721976Y-99448952D01*
X176769595Y-99496571D01*
X176817214Y-99591809D01*
X176817214Y-99829904D01*
X176769595Y-99925142D01*
X176721976Y-99972761D01*
X176626738Y-100020380D01*
X176341023Y-100020380D01*
X176245785Y-99972761D01*
X176198166Y-99925142D01*
X173865333Y-115105142D02*
X173817714Y-115152761D01*
X173674857Y-115200380D01*
X173579619Y-115200380D01*
X173436761Y-115152761D01*
X173341523Y-115057523D01*
X173293904Y-114962285D01*
X173246285Y-114771809D01*
X173246285Y-114628952D01*
X173293904Y-114438476D01*
X173341523Y-114343238D01*
X173436761Y-114248000D01*
X173579619Y-114200380D01*
X173674857Y-114200380D01*
X173817714Y-114248000D01*
X173865333Y-114295619D01*
X174246285Y-114295619D02*
X174293904Y-114248000D01*
X174389142Y-114200380D01*
X174627238Y-114200380D01*
X174722476Y-114248000D01*
X174770095Y-114295619D01*
X174817714Y-114390857D01*
X174817714Y-114486095D01*
X174770095Y-114628952D01*
X174198666Y-115200380D01*
X174817714Y-115200380D01*
X163365333Y-101605142D02*
X163317714Y-101652761D01*
X163174857Y-101700380D01*
X163079619Y-101700380D01*
X162936761Y-101652761D01*
X162841523Y-101557523D01*
X162793904Y-101462285D01*
X162746285Y-101271809D01*
X162746285Y-101128952D01*
X162793904Y-100938476D01*
X162841523Y-100843238D01*
X162936761Y-100748000D01*
X163079619Y-100700380D01*
X163174857Y-100700380D01*
X163317714Y-100748000D01*
X163365333Y-100795619D01*
X164317714Y-101700380D02*
X163746285Y-101700380D01*
X164032000Y-101700380D02*
X164032000Y-100700380D01*
X163936761Y-100843238D01*
X163841523Y-100938476D01*
X163746285Y-100986095D01*
M02*
