G04 #@! TF.GenerationSoftware,KiCad,Pcbnew,(5.1.5)-3*
G04 #@! TF.CreationDate,2023-01-26T09:30:51+09:00*
G04 #@! TF.ProjectId,raspberrypi_zerow_uhat,72617370-6265-4727-9279-70695f7a6572,1.0*
G04 #@! TF.SameCoordinates,Original*
G04 #@! TF.FileFunction,Soldermask,Bot*
G04 #@! TF.FilePolarity,Negative*
%FSLAX46Y46*%
G04 Gerber Fmt 4.6, Leading zero omitted, Abs format (unit mm)*
G04 Created by KiCad (PCBNEW (5.1.5)-3) date 2023-01-26 09:30:51*
%MOMM*%
%LPD*%
G04 APERTURE LIST*
%ADD10C,0.100000*%
G04 APERTURE END LIST*
D10*
G36*
X179350433Y-116202893D02*
G01*
X179440657Y-116220839D01*
X179546267Y-116264585D01*
X179695621Y-116326449D01*
X179695622Y-116326450D01*
X179925086Y-116479772D01*
X180120228Y-116674914D01*
X180222675Y-116828237D01*
X180273551Y-116904379D01*
X180379161Y-117159344D01*
X180433000Y-117430012D01*
X180433000Y-117705988D01*
X180379161Y-117976656D01*
X180273551Y-118231621D01*
X180273550Y-118231622D01*
X180120228Y-118461086D01*
X179925086Y-118656228D01*
X179771763Y-118758675D01*
X179695621Y-118809551D01*
X179546267Y-118871415D01*
X179440657Y-118915161D01*
X179350433Y-118933107D01*
X179169988Y-118969000D01*
X178894012Y-118969000D01*
X178713567Y-118933107D01*
X178623343Y-118915161D01*
X178517733Y-118871415D01*
X178368379Y-118809551D01*
X178292237Y-118758675D01*
X178138914Y-118656228D01*
X177943772Y-118461086D01*
X177790450Y-118231622D01*
X177790449Y-118231621D01*
X177684839Y-117976656D01*
X177631000Y-117705988D01*
X177631000Y-117430012D01*
X177684839Y-117159344D01*
X177790449Y-116904379D01*
X177841325Y-116828237D01*
X177943772Y-116674914D01*
X178138914Y-116479772D01*
X178368378Y-116326450D01*
X178368379Y-116326449D01*
X178517733Y-116264585D01*
X178623343Y-116220839D01*
X178713567Y-116202893D01*
X178894012Y-116167000D01*
X179169988Y-116167000D01*
X179350433Y-116202893D01*
G37*
G36*
X121350433Y-116202893D02*
G01*
X121440657Y-116220839D01*
X121546267Y-116264585D01*
X121695621Y-116326449D01*
X121695622Y-116326450D01*
X121925086Y-116479772D01*
X122120228Y-116674914D01*
X122222675Y-116828237D01*
X122273551Y-116904379D01*
X122379161Y-117159344D01*
X122433000Y-117430012D01*
X122433000Y-117705988D01*
X122379161Y-117976656D01*
X122273551Y-118231621D01*
X122273550Y-118231622D01*
X122120228Y-118461086D01*
X121925086Y-118656228D01*
X121771763Y-118758675D01*
X121695621Y-118809551D01*
X121546267Y-118871415D01*
X121440657Y-118915161D01*
X121350433Y-118933107D01*
X121169988Y-118969000D01*
X120894012Y-118969000D01*
X120713567Y-118933107D01*
X120623343Y-118915161D01*
X120517733Y-118871415D01*
X120368379Y-118809551D01*
X120292237Y-118758675D01*
X120138914Y-118656228D01*
X119943772Y-118461086D01*
X119790450Y-118231622D01*
X119790449Y-118231621D01*
X119684839Y-117976656D01*
X119631000Y-117705988D01*
X119631000Y-117430012D01*
X119684839Y-117159344D01*
X119790449Y-116904379D01*
X119841325Y-116828237D01*
X119943772Y-116674914D01*
X120138914Y-116479772D01*
X120368378Y-116326450D01*
X120368379Y-116326449D01*
X120517733Y-116264585D01*
X120623343Y-116220839D01*
X120713567Y-116202893D01*
X120894012Y-116167000D01*
X121169988Y-116167000D01*
X121350433Y-116202893D01*
G37*
G36*
X174405512Y-95171927D02*
G01*
X174554812Y-95201624D01*
X174718784Y-95269544D01*
X174866354Y-95368147D01*
X174991853Y-95493646D01*
X175090456Y-95641216D01*
X175158376Y-95805188D01*
X175180250Y-95915161D01*
X175190960Y-95969000D01*
X175193000Y-95979259D01*
X175193000Y-96156741D01*
X175158376Y-96330812D01*
X175090456Y-96494784D01*
X174991853Y-96642354D01*
X174866354Y-96767853D01*
X174718784Y-96866456D01*
X174554812Y-96934376D01*
X174405512Y-96964073D01*
X174380742Y-96969000D01*
X174203258Y-96969000D01*
X174178488Y-96964073D01*
X174029188Y-96934376D01*
X173865216Y-96866456D01*
X173717646Y-96767853D01*
X173592147Y-96642354D01*
X173493544Y-96494784D01*
X173425624Y-96330812D01*
X173391000Y-96156741D01*
X173391000Y-95979259D01*
X173393041Y-95969000D01*
X173403750Y-95915161D01*
X173425624Y-95805188D01*
X173493544Y-95641216D01*
X173592147Y-95493646D01*
X173717646Y-95368147D01*
X173865216Y-95269544D01*
X174029188Y-95201624D01*
X174178488Y-95171927D01*
X174203258Y-95167000D01*
X174380742Y-95167000D01*
X174405512Y-95171927D01*
G37*
G36*
X126933000Y-96969000D02*
G01*
X125131000Y-96969000D01*
X125131000Y-95167000D01*
X126933000Y-95167000D01*
X126933000Y-96969000D01*
G37*
G36*
X128685512Y-95171927D02*
G01*
X128834812Y-95201624D01*
X128998784Y-95269544D01*
X129146354Y-95368147D01*
X129271853Y-95493646D01*
X129370456Y-95641216D01*
X129438376Y-95805188D01*
X129460250Y-95915161D01*
X129470960Y-95969000D01*
X129473000Y-95979259D01*
X129473000Y-96156741D01*
X129438376Y-96330812D01*
X129370456Y-96494784D01*
X129271853Y-96642354D01*
X129146354Y-96767853D01*
X128998784Y-96866456D01*
X128834812Y-96934376D01*
X128685512Y-96964073D01*
X128660742Y-96969000D01*
X128483258Y-96969000D01*
X128458488Y-96964073D01*
X128309188Y-96934376D01*
X128145216Y-96866456D01*
X127997646Y-96767853D01*
X127872147Y-96642354D01*
X127773544Y-96494784D01*
X127705624Y-96330812D01*
X127671000Y-96156741D01*
X127671000Y-95979259D01*
X127673041Y-95969000D01*
X127683750Y-95915161D01*
X127705624Y-95805188D01*
X127773544Y-95641216D01*
X127872147Y-95493646D01*
X127997646Y-95368147D01*
X128145216Y-95269544D01*
X128309188Y-95201624D01*
X128458488Y-95171927D01*
X128483258Y-95167000D01*
X128660742Y-95167000D01*
X128685512Y-95171927D01*
G37*
G36*
X131225512Y-95171927D02*
G01*
X131374812Y-95201624D01*
X131538784Y-95269544D01*
X131686354Y-95368147D01*
X131811853Y-95493646D01*
X131910456Y-95641216D01*
X131978376Y-95805188D01*
X132000250Y-95915161D01*
X132010960Y-95969000D01*
X132013000Y-95979259D01*
X132013000Y-96156741D01*
X131978376Y-96330812D01*
X131910456Y-96494784D01*
X131811853Y-96642354D01*
X131686354Y-96767853D01*
X131538784Y-96866456D01*
X131374812Y-96934376D01*
X131225512Y-96964073D01*
X131200742Y-96969000D01*
X131023258Y-96969000D01*
X130998488Y-96964073D01*
X130849188Y-96934376D01*
X130685216Y-96866456D01*
X130537646Y-96767853D01*
X130412147Y-96642354D01*
X130313544Y-96494784D01*
X130245624Y-96330812D01*
X130211000Y-96156741D01*
X130211000Y-95979259D01*
X130213041Y-95969000D01*
X130223750Y-95915161D01*
X130245624Y-95805188D01*
X130313544Y-95641216D01*
X130412147Y-95493646D01*
X130537646Y-95368147D01*
X130685216Y-95269544D01*
X130849188Y-95201624D01*
X130998488Y-95171927D01*
X131023258Y-95167000D01*
X131200742Y-95167000D01*
X131225512Y-95171927D01*
G37*
G36*
X133765512Y-95171927D02*
G01*
X133914812Y-95201624D01*
X134078784Y-95269544D01*
X134226354Y-95368147D01*
X134351853Y-95493646D01*
X134450456Y-95641216D01*
X134518376Y-95805188D01*
X134540250Y-95915161D01*
X134550960Y-95969000D01*
X134553000Y-95979259D01*
X134553000Y-96156741D01*
X134518376Y-96330812D01*
X134450456Y-96494784D01*
X134351853Y-96642354D01*
X134226354Y-96767853D01*
X134078784Y-96866456D01*
X133914812Y-96934376D01*
X133765512Y-96964073D01*
X133740742Y-96969000D01*
X133563258Y-96969000D01*
X133538488Y-96964073D01*
X133389188Y-96934376D01*
X133225216Y-96866456D01*
X133077646Y-96767853D01*
X132952147Y-96642354D01*
X132853544Y-96494784D01*
X132785624Y-96330812D01*
X132751000Y-96156741D01*
X132751000Y-95979259D01*
X132753041Y-95969000D01*
X132763750Y-95915161D01*
X132785624Y-95805188D01*
X132853544Y-95641216D01*
X132952147Y-95493646D01*
X133077646Y-95368147D01*
X133225216Y-95269544D01*
X133389188Y-95201624D01*
X133538488Y-95171927D01*
X133563258Y-95167000D01*
X133740742Y-95167000D01*
X133765512Y-95171927D01*
G37*
G36*
X136305512Y-95171927D02*
G01*
X136454812Y-95201624D01*
X136618784Y-95269544D01*
X136766354Y-95368147D01*
X136891853Y-95493646D01*
X136990456Y-95641216D01*
X137058376Y-95805188D01*
X137080250Y-95915161D01*
X137090960Y-95969000D01*
X137093000Y-95979259D01*
X137093000Y-96156741D01*
X137058376Y-96330812D01*
X136990456Y-96494784D01*
X136891853Y-96642354D01*
X136766354Y-96767853D01*
X136618784Y-96866456D01*
X136454812Y-96934376D01*
X136305512Y-96964073D01*
X136280742Y-96969000D01*
X136103258Y-96969000D01*
X136078488Y-96964073D01*
X135929188Y-96934376D01*
X135765216Y-96866456D01*
X135617646Y-96767853D01*
X135492147Y-96642354D01*
X135393544Y-96494784D01*
X135325624Y-96330812D01*
X135291000Y-96156741D01*
X135291000Y-95979259D01*
X135293041Y-95969000D01*
X135303750Y-95915161D01*
X135325624Y-95805188D01*
X135393544Y-95641216D01*
X135492147Y-95493646D01*
X135617646Y-95368147D01*
X135765216Y-95269544D01*
X135929188Y-95201624D01*
X136078488Y-95171927D01*
X136103258Y-95167000D01*
X136280742Y-95167000D01*
X136305512Y-95171927D01*
G37*
G36*
X138845512Y-95171927D02*
G01*
X138994812Y-95201624D01*
X139158784Y-95269544D01*
X139306354Y-95368147D01*
X139431853Y-95493646D01*
X139530456Y-95641216D01*
X139598376Y-95805188D01*
X139620250Y-95915161D01*
X139630960Y-95969000D01*
X139633000Y-95979259D01*
X139633000Y-96156741D01*
X139598376Y-96330812D01*
X139530456Y-96494784D01*
X139431853Y-96642354D01*
X139306354Y-96767853D01*
X139158784Y-96866456D01*
X138994812Y-96934376D01*
X138845512Y-96964073D01*
X138820742Y-96969000D01*
X138643258Y-96969000D01*
X138618488Y-96964073D01*
X138469188Y-96934376D01*
X138305216Y-96866456D01*
X138157646Y-96767853D01*
X138032147Y-96642354D01*
X137933544Y-96494784D01*
X137865624Y-96330812D01*
X137831000Y-96156741D01*
X137831000Y-95979259D01*
X137833041Y-95969000D01*
X137843750Y-95915161D01*
X137865624Y-95805188D01*
X137933544Y-95641216D01*
X138032147Y-95493646D01*
X138157646Y-95368147D01*
X138305216Y-95269544D01*
X138469188Y-95201624D01*
X138618488Y-95171927D01*
X138643258Y-95167000D01*
X138820742Y-95167000D01*
X138845512Y-95171927D01*
G37*
G36*
X141385512Y-95171927D02*
G01*
X141534812Y-95201624D01*
X141698784Y-95269544D01*
X141846354Y-95368147D01*
X141971853Y-95493646D01*
X142070456Y-95641216D01*
X142138376Y-95805188D01*
X142160250Y-95915161D01*
X142170960Y-95969000D01*
X142173000Y-95979259D01*
X142173000Y-96156741D01*
X142138376Y-96330812D01*
X142070456Y-96494784D01*
X141971853Y-96642354D01*
X141846354Y-96767853D01*
X141698784Y-96866456D01*
X141534812Y-96934376D01*
X141385512Y-96964073D01*
X141360742Y-96969000D01*
X141183258Y-96969000D01*
X141158488Y-96964073D01*
X141009188Y-96934376D01*
X140845216Y-96866456D01*
X140697646Y-96767853D01*
X140572147Y-96642354D01*
X140473544Y-96494784D01*
X140405624Y-96330812D01*
X140371000Y-96156741D01*
X140371000Y-95979259D01*
X140373041Y-95969000D01*
X140383750Y-95915161D01*
X140405624Y-95805188D01*
X140473544Y-95641216D01*
X140572147Y-95493646D01*
X140697646Y-95368147D01*
X140845216Y-95269544D01*
X141009188Y-95201624D01*
X141158488Y-95171927D01*
X141183258Y-95167000D01*
X141360742Y-95167000D01*
X141385512Y-95171927D01*
G37*
G36*
X143925512Y-95171927D02*
G01*
X144074812Y-95201624D01*
X144238784Y-95269544D01*
X144386354Y-95368147D01*
X144511853Y-95493646D01*
X144610456Y-95641216D01*
X144678376Y-95805188D01*
X144700250Y-95915161D01*
X144710960Y-95969000D01*
X144713000Y-95979259D01*
X144713000Y-96156741D01*
X144678376Y-96330812D01*
X144610456Y-96494784D01*
X144511853Y-96642354D01*
X144386354Y-96767853D01*
X144238784Y-96866456D01*
X144074812Y-96934376D01*
X143925512Y-96964073D01*
X143900742Y-96969000D01*
X143723258Y-96969000D01*
X143698488Y-96964073D01*
X143549188Y-96934376D01*
X143385216Y-96866456D01*
X143237646Y-96767853D01*
X143112147Y-96642354D01*
X143013544Y-96494784D01*
X142945624Y-96330812D01*
X142911000Y-96156741D01*
X142911000Y-95979259D01*
X142913041Y-95969000D01*
X142923750Y-95915161D01*
X142945624Y-95805188D01*
X143013544Y-95641216D01*
X143112147Y-95493646D01*
X143237646Y-95368147D01*
X143385216Y-95269544D01*
X143549188Y-95201624D01*
X143698488Y-95171927D01*
X143723258Y-95167000D01*
X143900742Y-95167000D01*
X143925512Y-95171927D01*
G37*
G36*
X146465512Y-95171927D02*
G01*
X146614812Y-95201624D01*
X146778784Y-95269544D01*
X146926354Y-95368147D01*
X147051853Y-95493646D01*
X147150456Y-95641216D01*
X147218376Y-95805188D01*
X147240250Y-95915161D01*
X147250960Y-95969000D01*
X147253000Y-95979259D01*
X147253000Y-96156741D01*
X147218376Y-96330812D01*
X147150456Y-96494784D01*
X147051853Y-96642354D01*
X146926354Y-96767853D01*
X146778784Y-96866456D01*
X146614812Y-96934376D01*
X146465512Y-96964073D01*
X146440742Y-96969000D01*
X146263258Y-96969000D01*
X146238488Y-96964073D01*
X146089188Y-96934376D01*
X145925216Y-96866456D01*
X145777646Y-96767853D01*
X145652147Y-96642354D01*
X145553544Y-96494784D01*
X145485624Y-96330812D01*
X145451000Y-96156741D01*
X145451000Y-95979259D01*
X145453041Y-95969000D01*
X145463750Y-95915161D01*
X145485624Y-95805188D01*
X145553544Y-95641216D01*
X145652147Y-95493646D01*
X145777646Y-95368147D01*
X145925216Y-95269544D01*
X146089188Y-95201624D01*
X146238488Y-95171927D01*
X146263258Y-95167000D01*
X146440742Y-95167000D01*
X146465512Y-95171927D01*
G37*
G36*
X149005512Y-95171927D02*
G01*
X149154812Y-95201624D01*
X149318784Y-95269544D01*
X149466354Y-95368147D01*
X149591853Y-95493646D01*
X149690456Y-95641216D01*
X149758376Y-95805188D01*
X149780250Y-95915161D01*
X149790960Y-95969000D01*
X149793000Y-95979259D01*
X149793000Y-96156741D01*
X149758376Y-96330812D01*
X149690456Y-96494784D01*
X149591853Y-96642354D01*
X149466354Y-96767853D01*
X149318784Y-96866456D01*
X149154812Y-96934376D01*
X149005512Y-96964073D01*
X148980742Y-96969000D01*
X148803258Y-96969000D01*
X148778488Y-96964073D01*
X148629188Y-96934376D01*
X148465216Y-96866456D01*
X148317646Y-96767853D01*
X148192147Y-96642354D01*
X148093544Y-96494784D01*
X148025624Y-96330812D01*
X147991000Y-96156741D01*
X147991000Y-95979259D01*
X147993041Y-95969000D01*
X148003750Y-95915161D01*
X148025624Y-95805188D01*
X148093544Y-95641216D01*
X148192147Y-95493646D01*
X148317646Y-95368147D01*
X148465216Y-95269544D01*
X148629188Y-95201624D01*
X148778488Y-95171927D01*
X148803258Y-95167000D01*
X148980742Y-95167000D01*
X149005512Y-95171927D01*
G37*
G36*
X151545512Y-95171927D02*
G01*
X151694812Y-95201624D01*
X151858784Y-95269544D01*
X152006354Y-95368147D01*
X152131853Y-95493646D01*
X152230456Y-95641216D01*
X152298376Y-95805188D01*
X152320250Y-95915161D01*
X152330960Y-95969000D01*
X152333000Y-95979259D01*
X152333000Y-96156741D01*
X152298376Y-96330812D01*
X152230456Y-96494784D01*
X152131853Y-96642354D01*
X152006354Y-96767853D01*
X151858784Y-96866456D01*
X151694812Y-96934376D01*
X151545512Y-96964073D01*
X151520742Y-96969000D01*
X151343258Y-96969000D01*
X151318488Y-96964073D01*
X151169188Y-96934376D01*
X151005216Y-96866456D01*
X150857646Y-96767853D01*
X150732147Y-96642354D01*
X150633544Y-96494784D01*
X150565624Y-96330812D01*
X150531000Y-96156741D01*
X150531000Y-95979259D01*
X150533041Y-95969000D01*
X150543750Y-95915161D01*
X150565624Y-95805188D01*
X150633544Y-95641216D01*
X150732147Y-95493646D01*
X150857646Y-95368147D01*
X151005216Y-95269544D01*
X151169188Y-95201624D01*
X151318488Y-95171927D01*
X151343258Y-95167000D01*
X151520742Y-95167000D01*
X151545512Y-95171927D01*
G37*
G36*
X154085512Y-95171927D02*
G01*
X154234812Y-95201624D01*
X154398784Y-95269544D01*
X154546354Y-95368147D01*
X154671853Y-95493646D01*
X154770456Y-95641216D01*
X154838376Y-95805188D01*
X154860250Y-95915161D01*
X154870960Y-95969000D01*
X154873000Y-95979259D01*
X154873000Y-96156741D01*
X154838376Y-96330812D01*
X154770456Y-96494784D01*
X154671853Y-96642354D01*
X154546354Y-96767853D01*
X154398784Y-96866456D01*
X154234812Y-96934376D01*
X154085512Y-96964073D01*
X154060742Y-96969000D01*
X153883258Y-96969000D01*
X153858488Y-96964073D01*
X153709188Y-96934376D01*
X153545216Y-96866456D01*
X153397646Y-96767853D01*
X153272147Y-96642354D01*
X153173544Y-96494784D01*
X153105624Y-96330812D01*
X153071000Y-96156741D01*
X153071000Y-95979259D01*
X153073041Y-95969000D01*
X153083750Y-95915161D01*
X153105624Y-95805188D01*
X153173544Y-95641216D01*
X153272147Y-95493646D01*
X153397646Y-95368147D01*
X153545216Y-95269544D01*
X153709188Y-95201624D01*
X153858488Y-95171927D01*
X153883258Y-95167000D01*
X154060742Y-95167000D01*
X154085512Y-95171927D01*
G37*
G36*
X156625512Y-95171927D02*
G01*
X156774812Y-95201624D01*
X156938784Y-95269544D01*
X157086354Y-95368147D01*
X157211853Y-95493646D01*
X157310456Y-95641216D01*
X157378376Y-95805188D01*
X157400250Y-95915161D01*
X157410960Y-95969000D01*
X157413000Y-95979259D01*
X157413000Y-96156741D01*
X157378376Y-96330812D01*
X157310456Y-96494784D01*
X157211853Y-96642354D01*
X157086354Y-96767853D01*
X156938784Y-96866456D01*
X156774812Y-96934376D01*
X156625512Y-96964073D01*
X156600742Y-96969000D01*
X156423258Y-96969000D01*
X156398488Y-96964073D01*
X156249188Y-96934376D01*
X156085216Y-96866456D01*
X155937646Y-96767853D01*
X155812147Y-96642354D01*
X155713544Y-96494784D01*
X155645624Y-96330812D01*
X155611000Y-96156741D01*
X155611000Y-95979259D01*
X155613041Y-95969000D01*
X155623750Y-95915161D01*
X155645624Y-95805188D01*
X155713544Y-95641216D01*
X155812147Y-95493646D01*
X155937646Y-95368147D01*
X156085216Y-95269544D01*
X156249188Y-95201624D01*
X156398488Y-95171927D01*
X156423258Y-95167000D01*
X156600742Y-95167000D01*
X156625512Y-95171927D01*
G37*
G36*
X159165512Y-95171927D02*
G01*
X159314812Y-95201624D01*
X159478784Y-95269544D01*
X159626354Y-95368147D01*
X159751853Y-95493646D01*
X159850456Y-95641216D01*
X159918376Y-95805188D01*
X159940250Y-95915161D01*
X159950960Y-95969000D01*
X159953000Y-95979259D01*
X159953000Y-96156741D01*
X159918376Y-96330812D01*
X159850456Y-96494784D01*
X159751853Y-96642354D01*
X159626354Y-96767853D01*
X159478784Y-96866456D01*
X159314812Y-96934376D01*
X159165512Y-96964073D01*
X159140742Y-96969000D01*
X158963258Y-96969000D01*
X158938488Y-96964073D01*
X158789188Y-96934376D01*
X158625216Y-96866456D01*
X158477646Y-96767853D01*
X158352147Y-96642354D01*
X158253544Y-96494784D01*
X158185624Y-96330812D01*
X158151000Y-96156741D01*
X158151000Y-95979259D01*
X158153041Y-95969000D01*
X158163750Y-95915161D01*
X158185624Y-95805188D01*
X158253544Y-95641216D01*
X158352147Y-95493646D01*
X158477646Y-95368147D01*
X158625216Y-95269544D01*
X158789188Y-95201624D01*
X158938488Y-95171927D01*
X158963258Y-95167000D01*
X159140742Y-95167000D01*
X159165512Y-95171927D01*
G37*
G36*
X161705512Y-95171927D02*
G01*
X161854812Y-95201624D01*
X162018784Y-95269544D01*
X162166354Y-95368147D01*
X162291853Y-95493646D01*
X162390456Y-95641216D01*
X162458376Y-95805188D01*
X162480250Y-95915161D01*
X162490960Y-95969000D01*
X162493000Y-95979259D01*
X162493000Y-96156741D01*
X162458376Y-96330812D01*
X162390456Y-96494784D01*
X162291853Y-96642354D01*
X162166354Y-96767853D01*
X162018784Y-96866456D01*
X161854812Y-96934376D01*
X161705512Y-96964073D01*
X161680742Y-96969000D01*
X161503258Y-96969000D01*
X161478488Y-96964073D01*
X161329188Y-96934376D01*
X161165216Y-96866456D01*
X161017646Y-96767853D01*
X160892147Y-96642354D01*
X160793544Y-96494784D01*
X160725624Y-96330812D01*
X160691000Y-96156741D01*
X160691000Y-95979259D01*
X160693041Y-95969000D01*
X160703750Y-95915161D01*
X160725624Y-95805188D01*
X160793544Y-95641216D01*
X160892147Y-95493646D01*
X161017646Y-95368147D01*
X161165216Y-95269544D01*
X161329188Y-95201624D01*
X161478488Y-95171927D01*
X161503258Y-95167000D01*
X161680742Y-95167000D01*
X161705512Y-95171927D01*
G37*
G36*
X164245512Y-95171927D02*
G01*
X164394812Y-95201624D01*
X164558784Y-95269544D01*
X164706354Y-95368147D01*
X164831853Y-95493646D01*
X164930456Y-95641216D01*
X164998376Y-95805188D01*
X165020250Y-95915161D01*
X165030960Y-95969000D01*
X165033000Y-95979259D01*
X165033000Y-96156741D01*
X164998376Y-96330812D01*
X164930456Y-96494784D01*
X164831853Y-96642354D01*
X164706354Y-96767853D01*
X164558784Y-96866456D01*
X164394812Y-96934376D01*
X164245512Y-96964073D01*
X164220742Y-96969000D01*
X164043258Y-96969000D01*
X164018488Y-96964073D01*
X163869188Y-96934376D01*
X163705216Y-96866456D01*
X163557646Y-96767853D01*
X163432147Y-96642354D01*
X163333544Y-96494784D01*
X163265624Y-96330812D01*
X163231000Y-96156741D01*
X163231000Y-95979259D01*
X163233041Y-95969000D01*
X163243750Y-95915161D01*
X163265624Y-95805188D01*
X163333544Y-95641216D01*
X163432147Y-95493646D01*
X163557646Y-95368147D01*
X163705216Y-95269544D01*
X163869188Y-95201624D01*
X164018488Y-95171927D01*
X164043258Y-95167000D01*
X164220742Y-95167000D01*
X164245512Y-95171927D01*
G37*
G36*
X166785512Y-95171927D02*
G01*
X166934812Y-95201624D01*
X167098784Y-95269544D01*
X167246354Y-95368147D01*
X167371853Y-95493646D01*
X167470456Y-95641216D01*
X167538376Y-95805188D01*
X167560250Y-95915161D01*
X167570960Y-95969000D01*
X167573000Y-95979259D01*
X167573000Y-96156741D01*
X167538376Y-96330812D01*
X167470456Y-96494784D01*
X167371853Y-96642354D01*
X167246354Y-96767853D01*
X167098784Y-96866456D01*
X166934812Y-96934376D01*
X166785512Y-96964073D01*
X166760742Y-96969000D01*
X166583258Y-96969000D01*
X166558488Y-96964073D01*
X166409188Y-96934376D01*
X166245216Y-96866456D01*
X166097646Y-96767853D01*
X165972147Y-96642354D01*
X165873544Y-96494784D01*
X165805624Y-96330812D01*
X165771000Y-96156741D01*
X165771000Y-95979259D01*
X165773041Y-95969000D01*
X165783750Y-95915161D01*
X165805624Y-95805188D01*
X165873544Y-95641216D01*
X165972147Y-95493646D01*
X166097646Y-95368147D01*
X166245216Y-95269544D01*
X166409188Y-95201624D01*
X166558488Y-95171927D01*
X166583258Y-95167000D01*
X166760742Y-95167000D01*
X166785512Y-95171927D01*
G37*
G36*
X169325512Y-95171927D02*
G01*
X169474812Y-95201624D01*
X169638784Y-95269544D01*
X169786354Y-95368147D01*
X169911853Y-95493646D01*
X170010456Y-95641216D01*
X170078376Y-95805188D01*
X170100250Y-95915161D01*
X170110960Y-95969000D01*
X170113000Y-95979259D01*
X170113000Y-96156741D01*
X170078376Y-96330812D01*
X170010456Y-96494784D01*
X169911853Y-96642354D01*
X169786354Y-96767853D01*
X169638784Y-96866456D01*
X169474812Y-96934376D01*
X169325512Y-96964073D01*
X169300742Y-96969000D01*
X169123258Y-96969000D01*
X169098488Y-96964073D01*
X168949188Y-96934376D01*
X168785216Y-96866456D01*
X168637646Y-96767853D01*
X168512147Y-96642354D01*
X168413544Y-96494784D01*
X168345624Y-96330812D01*
X168311000Y-96156741D01*
X168311000Y-95979259D01*
X168313041Y-95969000D01*
X168323750Y-95915161D01*
X168345624Y-95805188D01*
X168413544Y-95641216D01*
X168512147Y-95493646D01*
X168637646Y-95368147D01*
X168785216Y-95269544D01*
X168949188Y-95201624D01*
X169098488Y-95171927D01*
X169123258Y-95167000D01*
X169300742Y-95167000D01*
X169325512Y-95171927D01*
G37*
G36*
X171865512Y-95171927D02*
G01*
X172014812Y-95201624D01*
X172178784Y-95269544D01*
X172326354Y-95368147D01*
X172451853Y-95493646D01*
X172550456Y-95641216D01*
X172618376Y-95805188D01*
X172640250Y-95915161D01*
X172650960Y-95969000D01*
X172653000Y-95979259D01*
X172653000Y-96156741D01*
X172618376Y-96330812D01*
X172550456Y-96494784D01*
X172451853Y-96642354D01*
X172326354Y-96767853D01*
X172178784Y-96866456D01*
X172014812Y-96934376D01*
X171865512Y-96964073D01*
X171840742Y-96969000D01*
X171663258Y-96969000D01*
X171638488Y-96964073D01*
X171489188Y-96934376D01*
X171325216Y-96866456D01*
X171177646Y-96767853D01*
X171052147Y-96642354D01*
X170953544Y-96494784D01*
X170885624Y-96330812D01*
X170851000Y-96156741D01*
X170851000Y-95979259D01*
X170853041Y-95969000D01*
X170863750Y-95915161D01*
X170885624Y-95805188D01*
X170953544Y-95641216D01*
X171052147Y-95493646D01*
X171177646Y-95368147D01*
X171325216Y-95269544D01*
X171489188Y-95201624D01*
X171638488Y-95171927D01*
X171663258Y-95167000D01*
X171840742Y-95167000D01*
X171865512Y-95171927D01*
G37*
G36*
X179350433Y-93202893D02*
G01*
X179440657Y-93220839D01*
X179546267Y-93264585D01*
X179695621Y-93326449D01*
X179695622Y-93326450D01*
X179925086Y-93479772D01*
X180120228Y-93674914D01*
X180197667Y-93790811D01*
X180273551Y-93904379D01*
X180379161Y-94159344D01*
X180433000Y-94430012D01*
X180433000Y-94705988D01*
X180379161Y-94976656D01*
X180273551Y-95231621D01*
X180222675Y-95307763D01*
X180120228Y-95461086D01*
X179925086Y-95656228D01*
X179771763Y-95758675D01*
X179695621Y-95809551D01*
X179546267Y-95871415D01*
X179440657Y-95915161D01*
X179350433Y-95933107D01*
X179169988Y-95969000D01*
X178894012Y-95969000D01*
X178713567Y-95933107D01*
X178623343Y-95915161D01*
X178517733Y-95871415D01*
X178368379Y-95809551D01*
X178292237Y-95758675D01*
X178138914Y-95656228D01*
X177943772Y-95461086D01*
X177841325Y-95307763D01*
X177790449Y-95231621D01*
X177684839Y-94976656D01*
X177631000Y-94705988D01*
X177631000Y-94430012D01*
X177684839Y-94159344D01*
X177790449Y-93904379D01*
X177866333Y-93790811D01*
X177943772Y-93674914D01*
X178138914Y-93479772D01*
X178368378Y-93326450D01*
X178368379Y-93326449D01*
X178517733Y-93264585D01*
X178623343Y-93220839D01*
X178713567Y-93202893D01*
X178894012Y-93167000D01*
X179169988Y-93167000D01*
X179350433Y-93202893D01*
G37*
G36*
X121350433Y-93202893D02*
G01*
X121440657Y-93220839D01*
X121546267Y-93264585D01*
X121695621Y-93326449D01*
X121695622Y-93326450D01*
X121925086Y-93479772D01*
X122120228Y-93674914D01*
X122197667Y-93790811D01*
X122273551Y-93904379D01*
X122379161Y-94159344D01*
X122433000Y-94430012D01*
X122433000Y-94705988D01*
X122379161Y-94976656D01*
X122273551Y-95231621D01*
X122222675Y-95307763D01*
X122120228Y-95461086D01*
X121925086Y-95656228D01*
X121771763Y-95758675D01*
X121695621Y-95809551D01*
X121546267Y-95871415D01*
X121440657Y-95915161D01*
X121350433Y-95933107D01*
X121169988Y-95969000D01*
X120894012Y-95969000D01*
X120713567Y-95933107D01*
X120623343Y-95915161D01*
X120517733Y-95871415D01*
X120368379Y-95809551D01*
X120292237Y-95758675D01*
X120138914Y-95656228D01*
X119943772Y-95461086D01*
X119841325Y-95307763D01*
X119790449Y-95231621D01*
X119684839Y-94976656D01*
X119631000Y-94705988D01*
X119631000Y-94430012D01*
X119684839Y-94159344D01*
X119790449Y-93904379D01*
X119866333Y-93790811D01*
X119943772Y-93674914D01*
X120138914Y-93479772D01*
X120368378Y-93326450D01*
X120368379Y-93326449D01*
X120517733Y-93264585D01*
X120623343Y-93220839D01*
X120713567Y-93202893D01*
X120894012Y-93167000D01*
X121169988Y-93167000D01*
X121350433Y-93202893D01*
G37*
G36*
X154085512Y-92631927D02*
G01*
X154234812Y-92661624D01*
X154398784Y-92729544D01*
X154546354Y-92828147D01*
X154671853Y-92953646D01*
X154770456Y-93101216D01*
X154838376Y-93265188D01*
X154873000Y-93439259D01*
X154873000Y-93616741D01*
X154838376Y-93790812D01*
X154770456Y-93954784D01*
X154671853Y-94102354D01*
X154546354Y-94227853D01*
X154398784Y-94326456D01*
X154234812Y-94394376D01*
X154085512Y-94424073D01*
X154060742Y-94429000D01*
X153883258Y-94429000D01*
X153858488Y-94424073D01*
X153709188Y-94394376D01*
X153545216Y-94326456D01*
X153397646Y-94227853D01*
X153272147Y-94102354D01*
X153173544Y-93954784D01*
X153105624Y-93790812D01*
X153071000Y-93616741D01*
X153071000Y-93439259D01*
X153105624Y-93265188D01*
X153173544Y-93101216D01*
X153272147Y-92953646D01*
X153397646Y-92828147D01*
X153545216Y-92729544D01*
X153709188Y-92661624D01*
X153858488Y-92631927D01*
X153883258Y-92627000D01*
X154060742Y-92627000D01*
X154085512Y-92631927D01*
G37*
G36*
X174405512Y-92631927D02*
G01*
X174554812Y-92661624D01*
X174718784Y-92729544D01*
X174866354Y-92828147D01*
X174991853Y-92953646D01*
X175090456Y-93101216D01*
X175158376Y-93265188D01*
X175193000Y-93439259D01*
X175193000Y-93616741D01*
X175158376Y-93790812D01*
X175090456Y-93954784D01*
X174991853Y-94102354D01*
X174866354Y-94227853D01*
X174718784Y-94326456D01*
X174554812Y-94394376D01*
X174405512Y-94424073D01*
X174380742Y-94429000D01*
X174203258Y-94429000D01*
X174178488Y-94424073D01*
X174029188Y-94394376D01*
X173865216Y-94326456D01*
X173717646Y-94227853D01*
X173592147Y-94102354D01*
X173493544Y-93954784D01*
X173425624Y-93790812D01*
X173391000Y-93616741D01*
X173391000Y-93439259D01*
X173425624Y-93265188D01*
X173493544Y-93101216D01*
X173592147Y-92953646D01*
X173717646Y-92828147D01*
X173865216Y-92729544D01*
X174029188Y-92661624D01*
X174178488Y-92631927D01*
X174203258Y-92627000D01*
X174380742Y-92627000D01*
X174405512Y-92631927D01*
G37*
G36*
X171865512Y-92631927D02*
G01*
X172014812Y-92661624D01*
X172178784Y-92729544D01*
X172326354Y-92828147D01*
X172451853Y-92953646D01*
X172550456Y-93101216D01*
X172618376Y-93265188D01*
X172653000Y-93439259D01*
X172653000Y-93616741D01*
X172618376Y-93790812D01*
X172550456Y-93954784D01*
X172451853Y-94102354D01*
X172326354Y-94227853D01*
X172178784Y-94326456D01*
X172014812Y-94394376D01*
X171865512Y-94424073D01*
X171840742Y-94429000D01*
X171663258Y-94429000D01*
X171638488Y-94424073D01*
X171489188Y-94394376D01*
X171325216Y-94326456D01*
X171177646Y-94227853D01*
X171052147Y-94102354D01*
X170953544Y-93954784D01*
X170885624Y-93790812D01*
X170851000Y-93616741D01*
X170851000Y-93439259D01*
X170885624Y-93265188D01*
X170953544Y-93101216D01*
X171052147Y-92953646D01*
X171177646Y-92828147D01*
X171325216Y-92729544D01*
X171489188Y-92661624D01*
X171638488Y-92631927D01*
X171663258Y-92627000D01*
X171840742Y-92627000D01*
X171865512Y-92631927D01*
G37*
G36*
X169325512Y-92631927D02*
G01*
X169474812Y-92661624D01*
X169638784Y-92729544D01*
X169786354Y-92828147D01*
X169911853Y-92953646D01*
X170010456Y-93101216D01*
X170078376Y-93265188D01*
X170113000Y-93439259D01*
X170113000Y-93616741D01*
X170078376Y-93790812D01*
X170010456Y-93954784D01*
X169911853Y-94102354D01*
X169786354Y-94227853D01*
X169638784Y-94326456D01*
X169474812Y-94394376D01*
X169325512Y-94424073D01*
X169300742Y-94429000D01*
X169123258Y-94429000D01*
X169098488Y-94424073D01*
X168949188Y-94394376D01*
X168785216Y-94326456D01*
X168637646Y-94227853D01*
X168512147Y-94102354D01*
X168413544Y-93954784D01*
X168345624Y-93790812D01*
X168311000Y-93616741D01*
X168311000Y-93439259D01*
X168345624Y-93265188D01*
X168413544Y-93101216D01*
X168512147Y-92953646D01*
X168637646Y-92828147D01*
X168785216Y-92729544D01*
X168949188Y-92661624D01*
X169098488Y-92631927D01*
X169123258Y-92627000D01*
X169300742Y-92627000D01*
X169325512Y-92631927D01*
G37*
G36*
X166785512Y-92631927D02*
G01*
X166934812Y-92661624D01*
X167098784Y-92729544D01*
X167246354Y-92828147D01*
X167371853Y-92953646D01*
X167470456Y-93101216D01*
X167538376Y-93265188D01*
X167573000Y-93439259D01*
X167573000Y-93616741D01*
X167538376Y-93790812D01*
X167470456Y-93954784D01*
X167371853Y-94102354D01*
X167246354Y-94227853D01*
X167098784Y-94326456D01*
X166934812Y-94394376D01*
X166785512Y-94424073D01*
X166760742Y-94429000D01*
X166583258Y-94429000D01*
X166558488Y-94424073D01*
X166409188Y-94394376D01*
X166245216Y-94326456D01*
X166097646Y-94227853D01*
X165972147Y-94102354D01*
X165873544Y-93954784D01*
X165805624Y-93790812D01*
X165771000Y-93616741D01*
X165771000Y-93439259D01*
X165805624Y-93265188D01*
X165873544Y-93101216D01*
X165972147Y-92953646D01*
X166097646Y-92828147D01*
X166245216Y-92729544D01*
X166409188Y-92661624D01*
X166558488Y-92631927D01*
X166583258Y-92627000D01*
X166760742Y-92627000D01*
X166785512Y-92631927D01*
G37*
G36*
X164245512Y-92631927D02*
G01*
X164394812Y-92661624D01*
X164558784Y-92729544D01*
X164706354Y-92828147D01*
X164831853Y-92953646D01*
X164930456Y-93101216D01*
X164998376Y-93265188D01*
X165033000Y-93439259D01*
X165033000Y-93616741D01*
X164998376Y-93790812D01*
X164930456Y-93954784D01*
X164831853Y-94102354D01*
X164706354Y-94227853D01*
X164558784Y-94326456D01*
X164394812Y-94394376D01*
X164245512Y-94424073D01*
X164220742Y-94429000D01*
X164043258Y-94429000D01*
X164018488Y-94424073D01*
X163869188Y-94394376D01*
X163705216Y-94326456D01*
X163557646Y-94227853D01*
X163432147Y-94102354D01*
X163333544Y-93954784D01*
X163265624Y-93790812D01*
X163231000Y-93616741D01*
X163231000Y-93439259D01*
X163265624Y-93265188D01*
X163333544Y-93101216D01*
X163432147Y-92953646D01*
X163557646Y-92828147D01*
X163705216Y-92729544D01*
X163869188Y-92661624D01*
X164018488Y-92631927D01*
X164043258Y-92627000D01*
X164220742Y-92627000D01*
X164245512Y-92631927D01*
G37*
G36*
X161705512Y-92631927D02*
G01*
X161854812Y-92661624D01*
X162018784Y-92729544D01*
X162166354Y-92828147D01*
X162291853Y-92953646D01*
X162390456Y-93101216D01*
X162458376Y-93265188D01*
X162493000Y-93439259D01*
X162493000Y-93616741D01*
X162458376Y-93790812D01*
X162390456Y-93954784D01*
X162291853Y-94102354D01*
X162166354Y-94227853D01*
X162018784Y-94326456D01*
X161854812Y-94394376D01*
X161705512Y-94424073D01*
X161680742Y-94429000D01*
X161503258Y-94429000D01*
X161478488Y-94424073D01*
X161329188Y-94394376D01*
X161165216Y-94326456D01*
X161017646Y-94227853D01*
X160892147Y-94102354D01*
X160793544Y-93954784D01*
X160725624Y-93790812D01*
X160691000Y-93616741D01*
X160691000Y-93439259D01*
X160725624Y-93265188D01*
X160793544Y-93101216D01*
X160892147Y-92953646D01*
X161017646Y-92828147D01*
X161165216Y-92729544D01*
X161329188Y-92661624D01*
X161478488Y-92631927D01*
X161503258Y-92627000D01*
X161680742Y-92627000D01*
X161705512Y-92631927D01*
G37*
G36*
X126145512Y-92631927D02*
G01*
X126294812Y-92661624D01*
X126458784Y-92729544D01*
X126606354Y-92828147D01*
X126731853Y-92953646D01*
X126830456Y-93101216D01*
X126898376Y-93265188D01*
X126933000Y-93439259D01*
X126933000Y-93616741D01*
X126898376Y-93790812D01*
X126830456Y-93954784D01*
X126731853Y-94102354D01*
X126606354Y-94227853D01*
X126458784Y-94326456D01*
X126294812Y-94394376D01*
X126145512Y-94424073D01*
X126120742Y-94429000D01*
X125943258Y-94429000D01*
X125918488Y-94424073D01*
X125769188Y-94394376D01*
X125605216Y-94326456D01*
X125457646Y-94227853D01*
X125332147Y-94102354D01*
X125233544Y-93954784D01*
X125165624Y-93790812D01*
X125131000Y-93616741D01*
X125131000Y-93439259D01*
X125165624Y-93265188D01*
X125233544Y-93101216D01*
X125332147Y-92953646D01*
X125457646Y-92828147D01*
X125605216Y-92729544D01*
X125769188Y-92661624D01*
X125918488Y-92631927D01*
X125943258Y-92627000D01*
X126120742Y-92627000D01*
X126145512Y-92631927D01*
G37*
G36*
X159165512Y-92631927D02*
G01*
X159314812Y-92661624D01*
X159478784Y-92729544D01*
X159626354Y-92828147D01*
X159751853Y-92953646D01*
X159850456Y-93101216D01*
X159918376Y-93265188D01*
X159953000Y-93439259D01*
X159953000Y-93616741D01*
X159918376Y-93790812D01*
X159850456Y-93954784D01*
X159751853Y-94102354D01*
X159626354Y-94227853D01*
X159478784Y-94326456D01*
X159314812Y-94394376D01*
X159165512Y-94424073D01*
X159140742Y-94429000D01*
X158963258Y-94429000D01*
X158938488Y-94424073D01*
X158789188Y-94394376D01*
X158625216Y-94326456D01*
X158477646Y-94227853D01*
X158352147Y-94102354D01*
X158253544Y-93954784D01*
X158185624Y-93790812D01*
X158151000Y-93616741D01*
X158151000Y-93439259D01*
X158185624Y-93265188D01*
X158253544Y-93101216D01*
X158352147Y-92953646D01*
X158477646Y-92828147D01*
X158625216Y-92729544D01*
X158789188Y-92661624D01*
X158938488Y-92631927D01*
X158963258Y-92627000D01*
X159140742Y-92627000D01*
X159165512Y-92631927D01*
G37*
G36*
X128685512Y-92631927D02*
G01*
X128834812Y-92661624D01*
X128998784Y-92729544D01*
X129146354Y-92828147D01*
X129271853Y-92953646D01*
X129370456Y-93101216D01*
X129438376Y-93265188D01*
X129473000Y-93439259D01*
X129473000Y-93616741D01*
X129438376Y-93790812D01*
X129370456Y-93954784D01*
X129271853Y-94102354D01*
X129146354Y-94227853D01*
X128998784Y-94326456D01*
X128834812Y-94394376D01*
X128685512Y-94424073D01*
X128660742Y-94429000D01*
X128483258Y-94429000D01*
X128458488Y-94424073D01*
X128309188Y-94394376D01*
X128145216Y-94326456D01*
X127997646Y-94227853D01*
X127872147Y-94102354D01*
X127773544Y-93954784D01*
X127705624Y-93790812D01*
X127671000Y-93616741D01*
X127671000Y-93439259D01*
X127705624Y-93265188D01*
X127773544Y-93101216D01*
X127872147Y-92953646D01*
X127997646Y-92828147D01*
X128145216Y-92729544D01*
X128309188Y-92661624D01*
X128458488Y-92631927D01*
X128483258Y-92627000D01*
X128660742Y-92627000D01*
X128685512Y-92631927D01*
G37*
G36*
X131225512Y-92631927D02*
G01*
X131374812Y-92661624D01*
X131538784Y-92729544D01*
X131686354Y-92828147D01*
X131811853Y-92953646D01*
X131910456Y-93101216D01*
X131978376Y-93265188D01*
X132013000Y-93439259D01*
X132013000Y-93616741D01*
X131978376Y-93790812D01*
X131910456Y-93954784D01*
X131811853Y-94102354D01*
X131686354Y-94227853D01*
X131538784Y-94326456D01*
X131374812Y-94394376D01*
X131225512Y-94424073D01*
X131200742Y-94429000D01*
X131023258Y-94429000D01*
X130998488Y-94424073D01*
X130849188Y-94394376D01*
X130685216Y-94326456D01*
X130537646Y-94227853D01*
X130412147Y-94102354D01*
X130313544Y-93954784D01*
X130245624Y-93790812D01*
X130211000Y-93616741D01*
X130211000Y-93439259D01*
X130245624Y-93265188D01*
X130313544Y-93101216D01*
X130412147Y-92953646D01*
X130537646Y-92828147D01*
X130685216Y-92729544D01*
X130849188Y-92661624D01*
X130998488Y-92631927D01*
X131023258Y-92627000D01*
X131200742Y-92627000D01*
X131225512Y-92631927D01*
G37*
G36*
X133765512Y-92631927D02*
G01*
X133914812Y-92661624D01*
X134078784Y-92729544D01*
X134226354Y-92828147D01*
X134351853Y-92953646D01*
X134450456Y-93101216D01*
X134518376Y-93265188D01*
X134553000Y-93439259D01*
X134553000Y-93616741D01*
X134518376Y-93790812D01*
X134450456Y-93954784D01*
X134351853Y-94102354D01*
X134226354Y-94227853D01*
X134078784Y-94326456D01*
X133914812Y-94394376D01*
X133765512Y-94424073D01*
X133740742Y-94429000D01*
X133563258Y-94429000D01*
X133538488Y-94424073D01*
X133389188Y-94394376D01*
X133225216Y-94326456D01*
X133077646Y-94227853D01*
X132952147Y-94102354D01*
X132853544Y-93954784D01*
X132785624Y-93790812D01*
X132751000Y-93616741D01*
X132751000Y-93439259D01*
X132785624Y-93265188D01*
X132853544Y-93101216D01*
X132952147Y-92953646D01*
X133077646Y-92828147D01*
X133225216Y-92729544D01*
X133389188Y-92661624D01*
X133538488Y-92631927D01*
X133563258Y-92627000D01*
X133740742Y-92627000D01*
X133765512Y-92631927D01*
G37*
G36*
X151545512Y-92631927D02*
G01*
X151694812Y-92661624D01*
X151858784Y-92729544D01*
X152006354Y-92828147D01*
X152131853Y-92953646D01*
X152230456Y-93101216D01*
X152298376Y-93265188D01*
X152333000Y-93439259D01*
X152333000Y-93616741D01*
X152298376Y-93790812D01*
X152230456Y-93954784D01*
X152131853Y-94102354D01*
X152006354Y-94227853D01*
X151858784Y-94326456D01*
X151694812Y-94394376D01*
X151545512Y-94424073D01*
X151520742Y-94429000D01*
X151343258Y-94429000D01*
X151318488Y-94424073D01*
X151169188Y-94394376D01*
X151005216Y-94326456D01*
X150857646Y-94227853D01*
X150732147Y-94102354D01*
X150633544Y-93954784D01*
X150565624Y-93790812D01*
X150531000Y-93616741D01*
X150531000Y-93439259D01*
X150565624Y-93265188D01*
X150633544Y-93101216D01*
X150732147Y-92953646D01*
X150857646Y-92828147D01*
X151005216Y-92729544D01*
X151169188Y-92661624D01*
X151318488Y-92631927D01*
X151343258Y-92627000D01*
X151520742Y-92627000D01*
X151545512Y-92631927D01*
G37*
G36*
X136305512Y-92631927D02*
G01*
X136454812Y-92661624D01*
X136618784Y-92729544D01*
X136766354Y-92828147D01*
X136891853Y-92953646D01*
X136990456Y-93101216D01*
X137058376Y-93265188D01*
X137093000Y-93439259D01*
X137093000Y-93616741D01*
X137058376Y-93790812D01*
X136990456Y-93954784D01*
X136891853Y-94102354D01*
X136766354Y-94227853D01*
X136618784Y-94326456D01*
X136454812Y-94394376D01*
X136305512Y-94424073D01*
X136280742Y-94429000D01*
X136103258Y-94429000D01*
X136078488Y-94424073D01*
X135929188Y-94394376D01*
X135765216Y-94326456D01*
X135617646Y-94227853D01*
X135492147Y-94102354D01*
X135393544Y-93954784D01*
X135325624Y-93790812D01*
X135291000Y-93616741D01*
X135291000Y-93439259D01*
X135325624Y-93265188D01*
X135393544Y-93101216D01*
X135492147Y-92953646D01*
X135617646Y-92828147D01*
X135765216Y-92729544D01*
X135929188Y-92661624D01*
X136078488Y-92631927D01*
X136103258Y-92627000D01*
X136280742Y-92627000D01*
X136305512Y-92631927D01*
G37*
G36*
X149005512Y-92631927D02*
G01*
X149154812Y-92661624D01*
X149318784Y-92729544D01*
X149466354Y-92828147D01*
X149591853Y-92953646D01*
X149690456Y-93101216D01*
X149758376Y-93265188D01*
X149793000Y-93439259D01*
X149793000Y-93616741D01*
X149758376Y-93790812D01*
X149690456Y-93954784D01*
X149591853Y-94102354D01*
X149466354Y-94227853D01*
X149318784Y-94326456D01*
X149154812Y-94394376D01*
X149005512Y-94424073D01*
X148980742Y-94429000D01*
X148803258Y-94429000D01*
X148778488Y-94424073D01*
X148629188Y-94394376D01*
X148465216Y-94326456D01*
X148317646Y-94227853D01*
X148192147Y-94102354D01*
X148093544Y-93954784D01*
X148025624Y-93790812D01*
X147991000Y-93616741D01*
X147991000Y-93439259D01*
X148025624Y-93265188D01*
X148093544Y-93101216D01*
X148192147Y-92953646D01*
X148317646Y-92828147D01*
X148465216Y-92729544D01*
X148629188Y-92661624D01*
X148778488Y-92631927D01*
X148803258Y-92627000D01*
X148980742Y-92627000D01*
X149005512Y-92631927D01*
G37*
G36*
X138845512Y-92631927D02*
G01*
X138994812Y-92661624D01*
X139158784Y-92729544D01*
X139306354Y-92828147D01*
X139431853Y-92953646D01*
X139530456Y-93101216D01*
X139598376Y-93265188D01*
X139633000Y-93439259D01*
X139633000Y-93616741D01*
X139598376Y-93790812D01*
X139530456Y-93954784D01*
X139431853Y-94102354D01*
X139306354Y-94227853D01*
X139158784Y-94326456D01*
X138994812Y-94394376D01*
X138845512Y-94424073D01*
X138820742Y-94429000D01*
X138643258Y-94429000D01*
X138618488Y-94424073D01*
X138469188Y-94394376D01*
X138305216Y-94326456D01*
X138157646Y-94227853D01*
X138032147Y-94102354D01*
X137933544Y-93954784D01*
X137865624Y-93790812D01*
X137831000Y-93616741D01*
X137831000Y-93439259D01*
X137865624Y-93265188D01*
X137933544Y-93101216D01*
X138032147Y-92953646D01*
X138157646Y-92828147D01*
X138305216Y-92729544D01*
X138469188Y-92661624D01*
X138618488Y-92631927D01*
X138643258Y-92627000D01*
X138820742Y-92627000D01*
X138845512Y-92631927D01*
G37*
G36*
X146465512Y-92631927D02*
G01*
X146614812Y-92661624D01*
X146778784Y-92729544D01*
X146926354Y-92828147D01*
X147051853Y-92953646D01*
X147150456Y-93101216D01*
X147218376Y-93265188D01*
X147253000Y-93439259D01*
X147253000Y-93616741D01*
X147218376Y-93790812D01*
X147150456Y-93954784D01*
X147051853Y-94102354D01*
X146926354Y-94227853D01*
X146778784Y-94326456D01*
X146614812Y-94394376D01*
X146465512Y-94424073D01*
X146440742Y-94429000D01*
X146263258Y-94429000D01*
X146238488Y-94424073D01*
X146089188Y-94394376D01*
X145925216Y-94326456D01*
X145777646Y-94227853D01*
X145652147Y-94102354D01*
X145553544Y-93954784D01*
X145485624Y-93790812D01*
X145451000Y-93616741D01*
X145451000Y-93439259D01*
X145485624Y-93265188D01*
X145553544Y-93101216D01*
X145652147Y-92953646D01*
X145777646Y-92828147D01*
X145925216Y-92729544D01*
X146089188Y-92661624D01*
X146238488Y-92631927D01*
X146263258Y-92627000D01*
X146440742Y-92627000D01*
X146465512Y-92631927D01*
G37*
G36*
X141385512Y-92631927D02*
G01*
X141534812Y-92661624D01*
X141698784Y-92729544D01*
X141846354Y-92828147D01*
X141971853Y-92953646D01*
X142070456Y-93101216D01*
X142138376Y-93265188D01*
X142173000Y-93439259D01*
X142173000Y-93616741D01*
X142138376Y-93790812D01*
X142070456Y-93954784D01*
X141971853Y-94102354D01*
X141846354Y-94227853D01*
X141698784Y-94326456D01*
X141534812Y-94394376D01*
X141385512Y-94424073D01*
X141360742Y-94429000D01*
X141183258Y-94429000D01*
X141158488Y-94424073D01*
X141009188Y-94394376D01*
X140845216Y-94326456D01*
X140697646Y-94227853D01*
X140572147Y-94102354D01*
X140473544Y-93954784D01*
X140405624Y-93790812D01*
X140371000Y-93616741D01*
X140371000Y-93439259D01*
X140405624Y-93265188D01*
X140473544Y-93101216D01*
X140572147Y-92953646D01*
X140697646Y-92828147D01*
X140845216Y-92729544D01*
X141009188Y-92661624D01*
X141158488Y-92631927D01*
X141183258Y-92627000D01*
X141360742Y-92627000D01*
X141385512Y-92631927D01*
G37*
G36*
X143925512Y-92631927D02*
G01*
X144074812Y-92661624D01*
X144238784Y-92729544D01*
X144386354Y-92828147D01*
X144511853Y-92953646D01*
X144610456Y-93101216D01*
X144678376Y-93265188D01*
X144713000Y-93439259D01*
X144713000Y-93616741D01*
X144678376Y-93790812D01*
X144610456Y-93954784D01*
X144511853Y-94102354D01*
X144386354Y-94227853D01*
X144238784Y-94326456D01*
X144074812Y-94394376D01*
X143925512Y-94424073D01*
X143900742Y-94429000D01*
X143723258Y-94429000D01*
X143698488Y-94424073D01*
X143549188Y-94394376D01*
X143385216Y-94326456D01*
X143237646Y-94227853D01*
X143112147Y-94102354D01*
X143013544Y-93954784D01*
X142945624Y-93790812D01*
X142911000Y-93616741D01*
X142911000Y-93439259D01*
X142945624Y-93265188D01*
X143013544Y-93101216D01*
X143112147Y-92953646D01*
X143237646Y-92828147D01*
X143385216Y-92729544D01*
X143549188Y-92661624D01*
X143698488Y-92631927D01*
X143723258Y-92627000D01*
X143900742Y-92627000D01*
X143925512Y-92631927D01*
G37*
G36*
X156625512Y-92631927D02*
G01*
X156774812Y-92661624D01*
X156938784Y-92729544D01*
X157086354Y-92828147D01*
X157211853Y-92953646D01*
X157310456Y-93101216D01*
X157378376Y-93265188D01*
X157413000Y-93439259D01*
X157413000Y-93616741D01*
X157378376Y-93790812D01*
X157310456Y-93954784D01*
X157211853Y-94102354D01*
X157086354Y-94227853D01*
X156938784Y-94326456D01*
X156774812Y-94394376D01*
X156625512Y-94424073D01*
X156600742Y-94429000D01*
X156423258Y-94429000D01*
X156398488Y-94424073D01*
X156249188Y-94394376D01*
X156085216Y-94326456D01*
X155937646Y-94227853D01*
X155812147Y-94102354D01*
X155713544Y-93954784D01*
X155645624Y-93790812D01*
X155611000Y-93616741D01*
X155611000Y-93439259D01*
X155645624Y-93265188D01*
X155713544Y-93101216D01*
X155812147Y-92953646D01*
X155937646Y-92828147D01*
X156085216Y-92729544D01*
X156249188Y-92661624D01*
X156398488Y-92631927D01*
X156423258Y-92627000D01*
X156600742Y-92627000D01*
X156625512Y-92631927D01*
G37*
M02*
