M48
; DRILL file {KiCad (5.1.5)-3} date 2023/01/26 9:30:55
; FORMAT={-:-/ absolute / metric / decimal}
; #@! TF.CreationDate,2023-01-26T09:30:55+09:00
; #@! TF.GenerationSoftware,Kicad,Pcbnew,(5.1.5)-3
FMAT,2
METRIC
T1C0.400
T2C1.000
T3C2.700
%
G90
G05
T1
X119.382Y-101.218
X119.382Y-105.218
X119.382Y-108.718
X119.382Y-111.218
X121.032Y-104.568
X121.032Y-107.068
X121.032Y-110.568
X122.032Y-102.568
X123.032Y-105.568
X123.032Y-109.568
X124.032Y-111.568
X124.032Y-113.568
X125.032Y-107.568
X127.032Y-108.568
X127.032Y-111.568
X128.032Y-113.568
X130.032Y-111.568
X132.032Y-113.568
X133.698Y-99.438
X135.265Y-104.668
X135.273Y-106.893
X135.782Y-110.068
X135.782Y-111.818
X136.532Y-102.068
X137.082Y-111.018
X137.532Y-101.068
X137.532Y-103.068
X139.05Y-106.62
X140.132Y-105.768
X141.995Y-98.717
X143.867Y-106.968
X145.532Y-104.568
X147.033Y-110.627
X147.412Y-100.454
X149.532Y-106.568
X149.532Y-108.068
X150.782Y-102.818
X151.032Y-98.818
X151.032Y-100.568
X151.532Y-106.568
X151.532Y-108.068
X152.559Y-111.811
X152.616Y-108.386
X152.638Y-110.251
X153.633Y-118.508
X157.532Y-99.068
X158.532Y-100.068
X159.532Y-99.068
X160.782Y-100.068
X161.532Y-102.068
X161.532Y-108.068
X163.282Y-101.318
X163.532Y-106.494
X165.358Y-101.48
X165.532Y-104.568
X167.032Y-103.068
T2
X126.032Y-93.528
X126.032Y-96.068
X128.572Y-93.528
X128.572Y-96.068
X131.112Y-93.528
X131.112Y-96.068
X133.652Y-93.528
X133.652Y-96.068
X136.192Y-93.528
X136.192Y-96.068
X138.732Y-93.528
X138.732Y-96.068
X141.272Y-93.528
X141.272Y-96.068
X143.812Y-93.528
X143.812Y-96.068
X146.352Y-93.528
X146.352Y-96.068
X148.892Y-93.528
X148.892Y-96.068
X151.432Y-93.528
X151.432Y-96.068
X153.972Y-93.528
X153.972Y-96.068
X156.512Y-93.528
X156.512Y-96.068
X159.052Y-93.528
X159.052Y-96.068
X161.592Y-93.528
X161.592Y-96.068
X164.132Y-93.528
X164.132Y-96.068
X166.672Y-93.528
X166.672Y-96.068
X169.212Y-93.528
X169.212Y-96.068
X171.752Y-93.528
X171.752Y-96.068
X174.292Y-93.528
X174.292Y-96.068
T3
X121.032Y-117.568
X179.032Y-94.568
X179.032Y-117.568
X121.032Y-94.568
T0
M30
